<svg width="64" height="64" viewBox="0 0 64 64" fill="none" xmlns="http://www.w3.org/2000/svg">
<path fill-rule="evenodd" clip-rule="evenodd" d="M10 0C4.47715 0 0 4.47715 0 10V54C0 59.5228 4.47715 64 10 64H54C59.5228 64 64 59.5228 64 54V10C64 4.47715 59.5228 0 54 0H10ZM11.7497 30.2872C19.0094 24.214 32 13 32 13C32 13 44.9864 24.214 52.1957 30.2872C52.6766 30.6736 53 31.2364 53 31.9C53 33.0613 52.0613 34 50.9 34H46.7V48.7C46.7 49.8613 45.7613 50.8 44.6 50.8H38.3C37.1387 50.8 36.2 49.8592 36.2 48.7V40.3H27.8V48.7C27.8 49.8592 26.8613 50.8 25.7 50.8H19.4C18.2387 50.8 17.3 49.8613 17.3 48.7V34H13.1C11.9387 34 11 33.0613 11 31.9C11 31.2364 11.3234 30.6736 11.7497 30.2872Z" fill="#C3CED9"/>
</svg>
