<svg width="64" height="64" viewBox="0 0 64 64" fill="none" xmlns="http://www.w3.org/2000/svg">
<g clip-path="url(#clip0_8_8)">
<path fill-rule="evenodd" clip-rule="evenodd" d="M10 0C4.47715 0 0 4.47715 0 10V54C0 59.5228 4.47715 64 10 64H54C59.5228 64 64 59.5228 64 54V10C64 4.47715 59.5228 0 54 0H10ZM31 21V42H26.6651V33.1518H17.3349V42H13V21H17.3349V29.5281H26.6651V21H31ZM38.5933 28.2474V42H34.445V21H38.0622L47.7368 34.6798H47.8517V21H52V42H48.4115L38.7225 28.2474H38.5933Z" fill="#A4A4A4"/>
</g>
<defs>
<clipPath id="clip0_8_8">
<rect width="64" height="64" fill="white"/>
</clipPath>
</defs>
</svg>
