<svg width="64" height="64" viewBox="0 0 64 64" fill="none" xmlns="http://www.w3.org/2000/svg">
<path fill-rule="evenodd" clip-rule="evenodd" d="M0 10C0 4.47715 4.47715 0 10 0H54C59.5228 0 64 4.47715 64 10V54C64 59.5228 59.5228 64 54 64H10C4.47715 64 0 59.5228 0 54V10ZM22.9714 25.1428V48H16.1143V25.1428H22.9714ZM48.1143 48H41.2572V35.7897C41.2572 32.608 40.1235 31.024 37.8766 31.024C36.096 31.024 34.9669 31.9108 34.4 33.6868V48H27.5429C27.5429 48 27.6343 27.4285 27.5429 25.1428H32.9554L33.3737 29.7142H33.5154C34.9212 27.4285 37.168 25.8788 40.2492 25.8788C42.592 25.8788 44.4869 26.5302 45.9337 28.1668C47.3897 29.8057 48.1143 32.0045 48.1143 35.0925V48ZM23.0857 19.4286C23.0857 21.3221 21.4995 22.8572 19.5429 22.8572C17.5862 22.8572 16 21.3221 16 19.4286C16 17.535 17.5862 16 19.5429 16C21.4995 16 23.0857 17.535 23.0857 19.4286Z" fill="#C3CED9"/>
</svg>
