<svg width="64" height="64" viewBox="0 0 64 64" fill="none" xmlns="http://www.w3.org/2000/svg">
<g clip-path="url(#clip0_8_2)">
<path fill-rule="evenodd" clip-rule="evenodd" d="M0 10C0 4.47715 4.47715 0 10 0H54C59.5228 0 64 4.47715 64 10V54C64 59.5228 59.5228 64 54 64H10C4.47715 64 0 59.5228 0 54V10ZM12.8926 21.0619C13.5223 21.394 18.8182 24.2762 23.3161 26.7242L23.3181 26.7254C26.6451 28.5361 29.535 30.1089 29.7764 30.2359C30.3441 30.5348 30.9219 30.6742 31.8184 30.6742C32.7148 30.6742 33.2926 30.5348 33.8604 30.2359C34.1017 30.1089 36.9916 28.5361 40.3186 26.7254L40.3203 26.7244L40.3226 26.7232C44.8201 24.2754 50.1145 21.3939 50.7441 21.0619C51.1525 20.8527 51.8398 20.4742 51.9893 20.0459C52.2482 19.2889 51.9693 19 50.8637 19H31.8184H12.773C11.6674 19 11.3885 19.2988 11.6475 20.0459C11.7969 20.4842 12.4842 20.8527 12.8926 21.0619ZM47.2624 24.4387C49.5009 22.8972 51.2372 21.7015 51.6107 21.5102C52.4449 21.0884 52.4413 21.5221 52.4379 21.9233C52.4377 21.9485 52.4375 21.9735 52.4375 21.9983V42.4182C52.4375 43.3346 51.2721 44.5 50.2959 44.5H31.8184H13.3408C12.3646 44.5 11 43.3445 11 42.4182V21.9983C11 21.5899 11.0498 21.0619 11.9264 21.5102C12.311 21.7072 14.1583 22.9692 16.512 24.577C19.1559 26.3832 22.4387 28.6258 25.0051 30.2858L16.8271 39.4996C16.6279 39.6988 16.5383 39.9479 16.6578 40.0574C16.7773 40.177 17.0463 40.1172 17.2455 39.918L27.067 31.6305C28.5512 32.5867 29.5871 33.2442 29.7764 33.3438C30.5434 33.7322 31.0813 33.7821 31.8184 33.7821C32.5555 33.7821 33.0934 33.7322 33.8604 33.3438C34.0396 33.2442 35.0855 32.5867 36.5697 31.6305L46.3912 39.918C46.6004 40.1072 46.8594 40.167 46.9789 40.0574C47.0885 39.9379 46.9988 39.6988 46.7996 39.4996L38.6117 30.2858C41.244 28.5832 44.6066 26.2676 47.2624 24.4387Z" fill="#A4A4A4"/>
</g>
<defs>
<clipPath id="clip0_8_2">
<rect width="64" height="64" fill="white"/>
</clipPath>
</defs>
</svg>
