<svg width="64" height="64" viewBox="0 0 64 64" fill="none" xmlns="http://www.w3.org/2000/svg">
<path fill-rule="evenodd" clip-rule="evenodd" d="M10 0C4.47715 0 0 4.47715 0 10V54C0 59.5228 4.47715 64 10 64H54C59.5228 64 64 59.5228 64 54V10C64 4.47715 59.5228 0 54 0H10ZM52 32C52 43.0457 43.0457 52 32 52C20.9543 52 12 43.0457 12 32C12 20.9543 20.9543 12 32 12C43.0457 12 52 20.9543 52 32ZM31.9046 25.6328C33.5855 25.6328 34.9117 24.2911 34.9117 22.6874C34.9117 21.0836 33.5855 19.742 31.9046 19.742C30.2238 19.742 28.8976 21.0836 28.8976 22.6874C28.8976 24.2911 30.2238 25.6328 31.9046 25.6328ZM28.7742 44.2766H35.0968V27.2519H28.7742V44.2766Z" fill="#C3CED9"/>
</svg>
