<svg width="64" height="64" viewBox="0 0 64 64" fill="none" xmlns="http://www.w3.org/2000/svg">
<g clip-path="url(#clip0_8_12)">
<path fill-rule="evenodd" clip-rule="evenodd" d="M10 0C4.47715 0 0 4.47715 0 10V54C0 59.5228 4.47715 64 10 64H54C59.5228 64 64 59.5228 64 54V10C64 4.47715 59.5228 0 54 0H10ZM23.755 12.12C25.8883 12.025 26.5667 12 32 12C37.4333 12 38.1117 12.02 40.245 12.12C42.3733 12.2183 43.825 12.555 45.1 13.05C46.4183 13.5583 47.5317 14.245 48.6433 15.3567C49.7533 16.4683 50.44 17.585 50.95 18.9C51.4433 20.1733 51.78 21.6267 51.88 23.755C51.975 25.8883 52 26.5667 52 32C52 37.4333 51.98 38.1117 51.88 40.245C51.7817 42.3733 51.4433 43.825 50.95 45.1C50.4417 46.4183 49.7533 47.5317 48.6433 48.6433C47.5317 49.7533 46.4133 50.44 45.1 50.95C43.825 51.4433 42.3733 51.78 40.245 51.88C38.1117 51.975 37.4333 52 32 52C26.5667 52 25.8883 51.98 23.755 51.88C21.6267 51.7817 20.1767 51.4433 18.9 50.95C17.5833 50.4417 16.4683 49.7533 15.3567 48.6433C14.245 47.5317 13.56 46.4133 13.05 45.1C12.555 43.825 12.22 42.3733 12.12 40.245C12.025 38.1117 12 37.4333 12 32C12 26.5667 12.02 25.8883 12.12 23.755C12.2183 21.625 12.555 20.175 13.05 18.9C13.5583 17.5833 14.245 16.4683 15.3567 15.3567C16.4683 14.245 17.585 13.56 18.9 13.05C20.175 12.555 21.625 12.22 23.755 12.12ZM40.0833 15.7183C37.975 15.6267 37.3383 15.6 32 15.6L31.925 15.55C26.6583 15.55 25.9718 15.5742 23.9229 15.6466L23.8267 15.65C21.8767 15.75 20.825 16.075 20.125 16.3517C19.1767 16.7 18.525 17.15 17.8267 17.8483C17.125 18.55 16.6767 19.2 16.3267 20.15C16.0517 20.85 15.7283 21.9233 15.6267 23.8733L15.6224 23.9948C15.5506 26.0252 15.525 26.7512 15.525 31.975C15.525 37.204 15.5507 37.9234 15.6227 39.9362L15.6267 40.0483C15.7283 41.9983 16.0517 43.0733 16.3267 43.7733C16.6767 44.7 17.125 45.375 17.8267 46.0733C18.525 46.7733 19.1767 47.1983 20.125 47.5717C20.825 47.8467 21.9 48.1717 23.8517 48.2733C25.9733 48.3717 26.5983 48.3967 31.95 48.3967C37.3 48.3967 37.925 48.375 40.0483 48.28C41.9983 48.1917 43.0733 47.865 43.7733 47.5917C44.7 47.23 45.375 46.7967 46.0733 46.0983C46.7733 45.395 47.1983 44.7317 47.5717 43.795C47.8467 43.0917 48.1717 42.0333 48.2733 40.0833C48.3717 37.975 48.3967 37.34 48.3967 32C48.3967 26.66 48.375 26.0267 48.28 23.9167C48.1917 21.9667 47.865 20.9083 47.5917 20.205C47.23 19.2683 46.7967 18.6033 46.0983 17.9033C45.395 17.205 44.7317 16.7717 43.795 16.41C43.0917 16.1333 42.0333 15.81 40.0833 15.7183ZM21.73 32C21.73 26.33 26.325 21.73 32 21.73C37.67 21.73 42.27 26.325 42.27 32C42.27 37.67 37.675 42.27 32 42.27C26.33 42.27 21.73 37.675 21.73 32ZM25.3333 32C25.3333 35.6833 28.3167 38.6667 32 38.6667C35.6833 38.6667 38.6667 35.6833 38.6667 32C38.6667 28.3167 35.6833 25.3333 32 25.3333C28.3167 25.3333 25.3333 28.3167 25.3333 32ZM42.6767 23.725C44 23.725 45.0767 22.65 45.0767 21.325C45.0767 20.0017 43.9983 18.925 42.6767 18.9267C41.3533 18.9267 40.2767 20.0017 40.2767 21.325C40.2767 22.6483 41.3517 23.725 42.6767 23.725Z" fill="#A4A4A4"/>
</g>
<defs>
<clipPath id="clip0_8_12">
<rect width="64" height="64" fill="white"/>
</clipPath>
</defs>
</svg>
