<svg width="64" height="64" viewBox="0 0 64 64" fill="none" xmlns="http://www.w3.org/2000/svg">
<path fill-rule="evenodd" clip-rule="evenodd" d="M0 10C0 4.47715 4.47715 0 10 0H54C59.5228 0 64 4.47715 64 10V54C64 59.5228 59.5228 64 54 64H10C4.47715 64 0 59.5228 0 54V10ZM32 52C35.1425 52 38.105 51.255 40.75 49.9625C34.095 46.715 29.5 39.9025 29.5 32C29.5 24.0975 34.095 17.285 40.75 14.0375C38.105 12.745 35.1425 12 32 12C20.955 12 12 20.955 12 32C12 43.045 20.955 52 32 52ZM42 24.5C44.7625 24.5 47 22.2625 47 19.5C47 22.2625 49.2375 24.5 52 24.5C49.2375 24.5 47 26.7375 47 29.5C47 26.7375 44.7625 24.5 42 24.5ZM37 27C37 29.7625 34.7625 32 32 32C34.7625 32 37 34.2375 37 37C37 34.2375 39.2375 32 42 32C39.2375 32 37 29.7625 37 27ZM49.5 39.5C46.7375 39.5 44.5 41.7375 44.5 44.5C44.5 41.7375 42.2625 39.5 39.5 39.5C42.2625 39.5 44.5 37.2625 44.5 34.5C44.5 37.2625 46.7375 39.5 49.5 39.5Z" fill="#C3CED9"/>
</svg>
