<svg width="64" height="64" viewBox="0 0 64 64" fill="none" xmlns="http://www.w3.org/2000/svg">
<g clip-path="url(#clip0_8_26)">
<path fill-rule="evenodd" clip-rule="evenodd" d="M10 0C4.47715 0 0 4.47715 0 10V54C0 59.5228 4.47715 64 10 64H54C59.5228 64 64 59.5228 64 54V10C64 4.47715 59.5228 0 54 0H10ZM47.0086 25.0341C47.0086 34.9113 39.4889 46.3017 25.741 46.3017V46.2956C21.6796 46.3008 17.702 45.1374 14.2839 42.9438C14.8745 43.0147 15.4683 43.0507 16.063 43.0519C19.4293 43.0551 22.6989 41.9261 25.3459 39.8459C22.148 39.7859 19.3419 37.7 18.3627 34.6551C19.4828 34.8708 20.6377 34.8267 21.7379 34.5267C18.2501 33.822 15.742 30.7576 15.7412 27.1994V27.1047C16.7807 27.684 17.9441 28.005 19.1338 28.0402C15.8488 25.847 14.8356 21.4775 16.8196 18.0622C20.615 22.732 26.2146 25.5705 32.2239 25.8721C31.6216 23.2761 32.445 20.5558 34.3864 18.7301C37.3965 15.8993 42.1315 16.0446 44.9623 19.0548C46.6361 18.7248 48.2412 18.1112 49.7086 17.2404C49.1508 18.9714 47.9829 20.4404 46.4224 21.3747C47.9044 21.1998 49.3516 20.8031 50.7157 20.1987C49.7122 21.6997 48.4497 23.0097 46.9867 24.0678C47.0086 24.3885 47.0086 24.7107 47.0086 25.0341Z" fill="#A4A4A4"/>
</g>
<defs>
<clipPath id="clip0_8_26">
<rect width="64" height="64" fill="white"/>
</clipPath>
</defs>
</svg>
