<svg width="134" height="46" viewBox="0 0 134 46" fill="none" xmlns="http://www.w3.org/2000/svg">
<path fill-rule="evenodd" clip-rule="evenodd" d="M34.3301 1.49999C36.7216 0.119285 39.7795 0.938651 41.1603 3.33012L61.1602 37.9711C62.541 40.3626 61.7216 43.4206 59.3301 44.8013C56.9387 46.182 53.8807 45.3626 52.5 42.9711L32.5 8.33012C31.1193 5.93865 31.9387 2.8807 34.3301 1.49999ZM0 23.1506C0 20.3892 2.23858 18.1506 5 18.1506H25C27.7614 18.1506 30 20.3892 30 23.1506C30 25.9121 27.7614 28.1506 25 28.1506H5C2.23858 28.1506 0 25.9121 0 23.1506ZM61.1602 3.33012C59.7795 0.938651 56.7216 0.119285 54.3301 1.49999C51.9387 2.8807 51.1193 5.93865 52.5 8.33012L72.5 42.9711C73.8807 45.3626 76.9387 46.182 79.3301 44.8013C81.7216 43.4206 82.541 40.3626 81.1602 37.9711L61.1602 3.33012ZM74.3301 1.49999C76.7216 0.119285 79.7795 0.938651 81.1603 3.33012L101.16 37.9711C102.541 40.3626 101.722 43.4206 99.3301 44.8013C96.9387 46.182 93.8807 45.3626 92.5 42.9711L72.5 8.33012C71.1193 5.93865 71.9387 2.8807 74.3301 1.49999ZM108.66 18.1506C105.899 18.1506 103.66 20.3892 103.66 23.1506C103.66 25.9121 105.899 28.1506 108.66 28.1506H128.66C131.422 28.1506 133.66 25.9121 133.66 23.1506C133.66 20.3892 131.422 18.1506 128.66 18.1506H108.66Z" fill="url(#paint0_linear_450_19)"/>
<defs>
<linearGradient id="paint0_linear_450_19" x1="1.33598e-06" y1="0.999996" x2="134" y2="45" gradientUnits="userSpaceOnUse">
<stop stop-color="#5DA8FF"/>
<stop offset="1" stop-color="#874FFF"/>
</linearGradient>
</defs>
</svg>
