<?xml version="1.0" encoding="UTF-8"?>
<svg width="20px" height="20px" viewBox="0 0 20 20" version="1.1" xmlns="http://www.w3.org/2000/svg" xmlns:xlink="http://www.w3.org/1999/xlink">
    <!-- Generator: Sketch 64 (93537) - https://sketch.com -->
    <title>Shape</title>
    <desc>Created with Sketch.</desc>
    <defs>
        <linearGradient x1="0%" y1="0%" x2="100%" y2="100%" id="linearGradient-1">
            <stop stop-color="#FF7B22" offset="0%"></stop>
            <stop stop-color="#FFD543" offset="100%"></stop>
        </linearGradient>
    </defs>
    <g id="Page-1" stroke="none" stroke-width="1" fill="none" fill-rule="evenodd">
        <g id="Home_Dark" transform="translate(-1400.000000, -20.000000)" fill="url(#linearGradient-1)" fill-rule="nonzero">
            <path d="M1405.23636,23.9178082 L1403.6,22.283105 L1402.31818,23.5707763 L1403.94545,25.2054795 L1405.23636,23.9178082 Z M1402.72727,29.086758 L1400,29.086758 L1400,30.913242 L1402.72727,30.913242 L1402.72727,29.086758 Z M1410.90909,20 L1409.09091,20 L1409.09091,22.6940639 L1410.90909,22.6940639 L1410.90909,20 L1410.90909,20 Z M1417.68182,23.5707763 L1416.4,22.283105 L1414.77273,23.9178082 L1416.05455,25.2054795 L1417.68182,23.5707763 Z M1414.76364,36.0821918 L1416.39091,37.7260274 L1417.67273,36.4383562 L1416.03636,34.803653 L1414.76364,36.0821918 Z M1417.27273,29.086758 L1417.27273,30.913242 L1420,30.913242 L1420,29.086758 L1417.27273,29.086758 Z M1410,24.5205479 C1406.99091,24.5205479 1404.54545,26.9771689 1404.54545,30 C1404.54545,33.0228311 1406.99091,35.4794521 1410,35.4794521 C1413.00909,35.4794521 1415.45455,33.0228311 1415.45455,30 C1415.45455,26.9771689 1413.00909,24.5205479 1410,24.5205479 Z M1409.09091,40 L1410.90909,40 L1410.90909,37.3059361 L1409.09091,37.3059361 L1409.09091,40 Z M1402.31818,36.4292237 L1403.6,37.716895 L1405.22727,36.0730594 L1403.94545,34.7853881 L1402.31818,36.4292237 Z" id="Shape"></path>
        </g>
    </g>
</svg>