<svg width="64" height="64" viewBox="0 0 64 64" fill="none" xmlns="http://www.w3.org/2000/svg">
<path fill-rule="evenodd" clip-rule="evenodd" d="M10 0C4.47715 0 0 4.47715 0 10V54C0 59.5228 4.47715 64 10 64H54C59.5228 64 64 59.5228 64 54V10C64 4.47715 59.5228 0 54 0H10ZM12 32.5089C12 21.1786 20.9554 12 32 12C43.0446 12 52 21.1786 52 32.5089C52 41.5625 46.2768 49.2411 38.3125 51.9464C37.2946 52.1518 36.9375 51.5089 36.9375 50.9643C36.9375 50.7428 36.9404 50.3523 36.9444 49.8296C36.9523 48.7721 36.9643 47.1737 36.9643 45.3393C36.9643 43.4286 36.3214 42.1786 35.6071 41.5446C40.0625 41.0357 44.7411 39.3036 44.7411 31.4286C44.7411 29.1964 43.9643 27.3661 42.6875 25.9286C42.8929 25.4107 43.5804 23.3214 42.4911 20.5C42.4911 20.5 40.8214 19.9464 37 22.5982C35.4018 22.1429 33.6875 21.9196 31.9911 21.9107C30.2857 21.9196 28.5804 22.1429 26.9821 22.5982C23.1607 19.9464 21.4821 20.5 21.4821 20.5C20.3929 23.3214 21.0804 25.4107 21.2857 25.9286C20.0089 27.3571 19.2321 29.1875 19.2321 31.4286C19.2321 39.2857 23.9018 41.0446 28.3393 41.5625C27.7679 42.0714 27.25 42.9821 27.0714 44.3036C25.9286 44.8304 23.0357 45.7321 21.25 42.5982C21.25 42.5982 20.1964 40.625 18.1875 40.4821C18.1875 40.4821 16.2411 40.4554 18.0536 41.7321C18.0536 41.7321 19.3661 42.3661 20.2768 44.7321C20.2768 44.7321 21.4554 48.7232 27.0179 47.4821C27.0228 48.4339 27.0305 49.2536 27.0364 49.8785C27.0411 50.3791 27.0446 50.7548 27.0446 50.9732C27.0446 51.5179 26.6786 52.1518 25.6786 51.9643C17.7321 49.25 12 41.5714 12 32.5089Z" fill="#C3CED9"/>
</svg>
