<?xml version="1.0" encoding="UTF-8"?>
<svg width="1205px" height="958px" viewBox="0 0 1205 958" version="1.1" xmlns="http://www.w3.org/2000/svg" xmlns:xlink="http://www.w3.org/1999/xlink">
    <!-- Generator: Sketch 53.2 (72643) - https://sketchapp.com -->
    <title>lines</title>
    <desc>Created with Sketch.</desc>
    <defs>
        <linearGradient x1="26.5471494%" y1="44.4326751%" x2="82.5970837%" y2="45.2396754%" id="linearGradient-1">
            <stop stop-color="#FF4141" offset="0.461887669%"></stop>
            <stop stop-color="#0063A5" offset="100%"></stop>
        </linearGradient>
    </defs>
    <g id="Page-1" stroke="none" stroke-width="1" fill="none" fill-rule="evenodd">
        <g id="lines" fill="url(#linearGradient-1)" fill-rule="nonzero">
            <path d="M1012.04444,115.268337 L1012.66878,114.487182 L1033.21475,130.908511 L1018.13942,162.150351 L1017.23879,161.715764 L1031.96765,131.191929 L1012.04444,115.268337 Z M971.66248,133.350152 L971.75389,133.238233 L971.7715,133.094809 L971.66248,133.350152 Z M966.81199,173.486785 L965.81944,173.364915 L970.79656,132.829515 L1000.38425,96.601681 L1001.15877,97.234236 L971.75389,133.238233 L966.81199,173.486785 Z M1005.04582,171.488564 L1005.66957,172.270186 L990.38126,184.470605 L989.7575,183.688983 L1005.04582,171.488564 Z M1036.83389,194.903206 L1036.05512,195.53051 L1000.61058,151.527446 L1001.38935,150.900142 L1036.83389,194.903206 Z M992.71668,158.68695 L993.60028,159.155202 L969.66317,204.324689 L968.77958,203.856437 L992.71668,158.68695 Z M934.10153,169.960573 L933.14751,170.260313 L911.93873,102.756434 L912.89276,102.456694 L934.10153,169.960573 Z M941.03868,105.930144 L941.91104,106.419005 L934.73429,119.225776 L933.86193,118.736916 L941.03868,105.930144 Z M978.15608,76.993788 L978.03421,77.986334 L953.28259,74.947218 L953.40446,73.954671 L978.15608,76.993788 Z M961.25413,108.444027 L962.15735,108.873202 L945.21763,144.523722 L944.31441,144.094547 L961.25413,108.444027 Z M957.34487,247.287255 L957.03186,248.237003 L922.52773,236.865213 L922.84075,235.915465 L957.34487,247.287255 Z M882.88123,208.957161 L882.30888,208.137154 L900.95312,195.123726 L936.3143,214.675778 L935.83042,215.550911 L901.01453,196.300365 L882.88123,208.957161 Z M897.39155,222.328256 L897.93709,223.166338 L879.41691,235.221927 L844.4684,216.686143 L844.93695,215.802707 L879.36506,234.062481 L897.39155,222.328256 Z M887.85783,163.376052 L888.31576,164.265041 L867.65372,174.908336 L867.19579,174.019348 L887.85783,163.376052 Z M883.73266,117.331068 L900.79021,133.221316 L900.10859,133.953016 L883.57327,118.549266 L854.80598,133.885276 L817.5241,98.202985 L818.21554,97.480549 L854.9744,132.662264 L883.73266,117.331068 Z M869.87722,154.435746 L869.76851,155.429819 L847.04651,152.944916 L847.15522,151.950843 L869.87722,154.435746 Z M848.87468,180.079747 L849.30051,180.984551 L821.74095,193.954986 L821.31512,193.050183 L848.87468,180.079747 Z M918.10103,174.78143 L918.38606,175.739951 L885.62863,185.480587 L885.34361,184.522066 L918.10103,174.78143 Z M956.98147,209.812226 L956.14019,210.35283 L944.73069,192.597595 L945.57196,192.05699 L956.98147,209.812226 Z M998.81908,222.437772 L999.37899,223.266323 L970.2378,242.959169 L955.21856,217.773019 L956.07744,217.260844 L970.55468,241.538103 L998.81908,222.437772 Z M992.83144,273.235942 L992.87122,274.235151 L953.82828,275.78938 L953.78851,274.790172 L992.83144,273.235942 Z M935.60974,272.668781 L934.87962,273.352096 L905.33303,241.781577 L906.06316,241.098261 L935.60974,272.668781 Z M885.85233,252.470738 L885.73046,253.463284 L842.89202,248.203385 L843.01389,247.210838 L885.85233,252.470738 Z M1189.92558,289.74966 L1190.77944,289.22915 L1204.4699,311.687285 L1179.61839,335.888947 L1178.92072,335.172536 L1203.20108,311.52708 L1189.92558,289.74966 Z M1145.79461,292.929564 L1145.91878,292.855657 L1145.98438,292.726905 L1145.79461,292.929564 Z M1127.50909,328.986694 L1126.61809,328.532704 L1145.15897,292.144163 L1185.35296,268.22072 L1185.86442,269.080027 L1145.91878,292.855657 L1127.50909,328.986694 Z M1164.12057,340.185721 L1164.43938,341.133542 L1145.90027,347.369275 L1145.58147,346.421454 L1164.12057,340.185721 Z M1185.98331,373.06045 L1185.03696,373.383566 L1166.77991,319.911464 L1167.72627,319.588348 L1185.98331,373.06045 Z M1156.91339,323.939327 L1157.58355,324.681547 L1119.64115,358.940009 L1118.97099,358.197789 L1156.91339,323.939327 Z M1097.97736,314.485505 L1096.97835,314.440874 L1100.13631,243.754148 L1101.13531,243.798779 L1097.97736,314.485505 Z M1126.39584,256.689227 L1127.04839,257.446971 L1115.92428,267.026808 L1115.27173,266.269064 L1126.39584,256.689227 Z M1171.1716,242.192846 L1170.71761,243.083853 L1148.49814,231.762465 L1148.95213,230.871458 L1171.1716,242.192846 Z M1144.53235,265.965596 L1145.23432,266.677809 L1117.12299,294.384613 L1116.42102,293.6724 L1144.53235,265.965596 Z M1093.37167,395.098508 L1092.7527,395.883922 L1064.21881,373.396827 L1064.83778,372.611414 L1093.37167,395.098508 Z M1036.5084,333.611936 L1036.25102,332.645625 L1058.22174,326.793711 L1084.76317,357.260863 L1084.00916,357.917722 L1057.87701,327.920393 L1036.5084,333.611936 Z M1045.57045,351.139475 L1045.79645,352.113602 L1024.26993,357.107876 L997.76868,327.736841 L998.51112,327.066937 L1024.61775,356.000618 L1045.57045,351.139475 Z M1056.77453,292.481801 L1056.90079,293.473798 L1033.8446,296.40839 L1033.71834,295.416393 L1056.77453,292.481801 Z M1068.64645,247.802779 L1079.24052,268.568755 L1078.34975,269.023197 L1068.08003,248.892996 L1035.80239,253.465138 L1012.97295,207.183599 L1013.86977,206.741218 L1036.37895,252.373486 L1068.64645,247.802779 Z M1042.93605,277.930931 L1042.4939,278.827872 L1021.99209,268.721445 L1022.43424,267.824504 L1042.93605,277.930931 Z M1014.42935,294.845117 L1014.52004,295.840996 L984.18637,298.603294 L984.09568,297.607415 L1014.42935,294.845117 Z M1081.29298,313.543136 L1081.23298,314.541335 L1047.11957,312.490839 L1047.17957,311.49264 L1081.29298,313.543136 Z M1105.8474,359.759209 L1104.87196,359.979477 L1100.22318,339.392732 L1101.19862,339.172464 L1105.8474,359.759209 Z M1140.8437,385.932647 L1141.08646,386.902732 L1106.96735,395.441079 L1101.46805,366.636958 L1102.45031,366.449424 L1107.75116,394.214093 L1140.8437,385.932647 Z M1117.84316,431.619419 L1117.53879,432.571972 L1080.31886,420.679001 L1080.62323,419.726447 L1117.84316,431.619419 Z M1064.26633,411.515488 L1063.34654,411.907878 L1046.37958,372.135766 L1047.29938,371.743376 L1064.26633,411.515488 Z M1024.4178,375.517501 L1023.96381,376.408507 L985.50783,356.814206 L985.96182,355.9232 L1024.4178,375.517501 Z M924.78108,306.210477 L925.29062,305.350034 L947.92204,318.752106 L937.34145,351.787982 L936.3891,351.482968 L946.72653,319.206327 L924.78108,306.210477 Z M887.30861,329.736404 L887.38355,329.612854 L887.38103,329.468374 L887.30861,329.736404 Z M888.09126,370.157489 L887.09141,370.174941 L886.37866,329.341347 L910.63646,289.348269 L911.49148,289.866877 L887.38355,329.612854 L888.09126,370.157489 Z M925.6749,362.857593 L926.40137,363.544799 L912.95981,377.754207 L912.23335,377.067001 L925.6749,362.857593 Z M960.41231,381.620321 L959.72842,382.349905 L918.50477,343.708002 L919.18867,342.978419 L960.41231,381.620321 Z M911.68412,351.896447 L912.62428,352.23717 L895.20651,400.298472 L894.26634,399.957749 L911.68412,351.896447 Z M855.20839,371.218009 L854.30537,371.647606 L823.90827,307.752361 L824.81129,307.322764 L855.20839,371.218009 Z M853.16671,306.845256 L854.09862,307.207949 L848.77407,320.888897 L847.84216,320.526203 L853.16671,306.845256 Z M885.89573,273.024762 L885.91318,274.02461 L860.97948,274.459829 L860.96202,273.459982 L885.89573,273.024762 Z M873.53529,306.521226 L874.48945,306.820521 L862.67618,344.481645 L861.72202,344.182351 L873.53529,306.521226 Z M888.98732,444.557305 L888.80953,445.541374 L853.05855,439.082299 L853.23634,438.098231 L888.98732,444.557305 Z M809.91384,416.963573 L809.23293,416.231202 L825.88461,400.749643 L863.62277,415.190091 L863.26539,416.124051 L826.10918,401.906284 L809.91384,416.963573 Z M826.14383,428.185096 L826.80071,428.939097 L810.13858,443.454872 L772.9505,429.96337 L773.29154,429.023321 L809.92587,442.313926 L826.14383,428.185096 Z M808.49834,371.133448 L809.07553,371.950053 L790.09583,385.365369 L789.51864,384.548764 L808.49834,371.133448 Z M798.00509,326.110682 L817.10814,339.472335 L816.53498,340.291778 L798.01679,327.339208 L771.66382,346.529602 L729.77876,316.383203 L730.36292,315.571569 L771.6604,345.295052 L798.00509,326.110682 Z M789.44846,364.782565 L789.47916,365.782094 L766.63245,366.483665 L766.60176,365.484136 L789.44846,364.782565 Z M772.21927,393.09999 L772.76688,393.936724 L747.28066,410.616482 L746.73305,409.779748 L772.21927,393.09999 Z M840.03454,378.218789 L840.45019,379.128314 L809.36719,393.333107 L808.95154,392.423582 L840.03454,378.218789 Z M883.41194,407.497556 L882.65409,408.149983 L868.88457,392.155436 L869.64242,391.50301 L883.41194,407.497556 Z M926.59952,414.177562 L927.2693,414.920125 L901.15242,438.476992 L882.77412,415.626225 L883.55336,414.999501 L901.26845,437.025653 L926.59952,414.177562 Z M927.73989,465.314686 L927.91835,466.298634 L889.47168,473.271464 L889.29323,472.287516 L927.73989,465.314686 Z M870.99614,472.716765 L870.36822,473.495044 L836.71541,446.343857 L837.34333,445.565577 L870.99614,472.716765 Z M818.91194,459.640182 L818.9294,460.640029 L775.77581,461.393278 L775.75836,460.39343 L818.91194,459.640182 Z M1125.21419,454.237491 L1125.9873,453.603213 L1142.6701,473.937442 L1121.42866,501.362237 L1120.63807,500.749895 L1141.39133,473.955381 L1125.21419,454.237491 Z M1081.95525,463.528293 L1082.06793,463.437824 L1082.11498,463.301195 L1081.95525,463.528293 Z M1068.86588,501.779369 L1067.92036,501.453801 L1081.2165,462.838998 L1117.68982,433.554455 L1118.31589,434.334218 L1082.06793,463.437824 L1068.86588,501.779369 Z M1106.67966,507.774074 L1107.12728,508.668302 L1089.63644,517.423493 L1089.18883,516.529266 L1106.67966,507.774074 Z M1132.90491,537.286163 L1132.01273,537.737843 L1106.49149,487.327016 L1107.38367,486.875337 L1132.90491,537.286163 Z M1097.28156,492.688835 L1098.04849,493.330565 L1065.2432,532.536186 L1064.47627,531.894457 L1097.28156,492.688835 Z M1037.60337,491.529327 L1036.60787,491.624165 L1029.89741,421.185855 L1030.8929,421.091017 L1037.60337,491.529327 Z M1057.70159,430.340431 L1058.45325,430.999983 L1048.77066,442.034766 L1048.019,441.375215 L1057.70159,430.340431 Z M1100.0241,409.753546 L1099.69853,410.699064 L1076.11966,402.580208 L1076.44523,401.63469 L1100.0241,409.753546 Z M1076.95263,437.002408 L1077.74688,437.609995 L1053.76517,468.959499 L1052.97092,468.351912 L1076.95263,437.002408 Z M1044.26166,571.998798 L1043.75803,572.862712 L1012.37222,554.565611 L1012.87586,553.701697 L1044.26166,571.998798 Z M979.39451,519.024447 L979.00515,518.10336 L999.94762,509.250664 L1030.47096,535.727458 L1029.81571,536.482862 L999.76305,510.414358 L979.39451,519.024447 Z M990.80773,535.120215 L991.1671,536.053408 L970.54514,543.994993 L940.21414,518.598055 L940.85613,517.831342 L970.73548,542.850102 L990.80773,535.120215 Z M993.7392,475.474088 L994.00229,476.438858 L971.5789,482.553692 L971.31581,481.588922 L993.7392,475.474088 Z M999.27747,429.577626 L1012.6585,448.667099 L1011.83964,449.241091 L998.86828,430.736065 L967.54109,439.75589 L938.49267,397.102004 L939.31921,396.539114 L967.96011,438.59462 L999.27747,429.577626 Z M978.0103,462.99077 L977.69729,463.940517 L955.98846,456.785746 L956.30147,455.835998 L978.0103,462.99077 Z M952.13503,483.707714 L952.36343,484.68128 L922.70941,491.638326 L922.481,490.66476 L952.13503,483.707714 Z M1020.95021,492.918147 L1021.02971,493.914981 L986.96292,496.632109 L986.88342,495.635274 L1020.95021,492.918147 Z M1051.6977,535.267133 L1050.76241,535.621013 L1043.29375,515.881601 L1044.22904,515.527722 L1051.6977,535.267133 Z M1089.99606,556.315309 L1090.37147,557.242167 L1057.77271,570.445882 L1048.31817,542.687435 L1049.26477,542.365023 L1058.37812,569.121753 L1089.99606,556.315309 Z M1073.57773,604.758517 L1073.40889,605.74416 L1034.896,599.146944 L1035.06484,598.1613 L1073.57773,604.758517 Z M1017.72438,592.306689 L1016.86814,592.823272 L994.5311,555.799563 L995.38734,555.28298 L1017.72438,592.306689 Z M973.2537,562.204875 L972.92813,563.150394 L932.1194,549.098821 L932.44497,548.153303 L973.2537,562.204875 Z M371.826631,74.964043 L371.4623,74.032774 L395.95657,64.450111 L415.475135,93.126645 L414.648457,93.68932 L395.57847,65.671835 L371.826631,74.964043 Z M367.294962,118.976756 L367.24374,118.841637 L367.128336,118.754674 L367.294962,118.976756 Z M399.629057,143.245724 L399.027242,144.04436 L366.411117,119.466346 L349.830736,75.728738 L350.765803,75.374266 L367.24374,118.841637 L399.629057,143.245724 Z M417.015463,109.135144 L418.004244,108.98577 L420.92596,128.326048 L419.937179,128.475422 L417.015463,109.135144 Z M453.187175,93.313185 L453.34105,94.301276 L397.511007,102.995618 L397.357133,102.007527 L453.187175,93.313185 Z M399.764374,113.411679 L400.611689,112.88059 L427.76106,156.195475 L426.913744,156.726565 L399.764374,113.411679 Z M380.220041,169.810702 L380.002613,170.786779 L310.938151,155.402179 L311.155579,154.426103 L380.220041,169.810702 Z M328.236637,131.787743 L329.096183,131.276686 L336.598799,143.895317 L335.739253,144.406375 L328.236637,131.787743 Z M321.735719,85.174951 L322.534354,85.776766 L307.526592,105.692739 L306.727956,105.090924 L321.735719,85.174951 Z M340.521449,115.537589 L341.344736,114.969964 L363.749131,147.465453 L362.925844,148.033078 L340.521449,115.537589 Z M458.808583,188.344719 L459.474581,189.090673 L432.374258,213.286229 L431.70826,212.540276 L458.808583,188.344719 Z M388.381927,233.667078 L387.385603,233.752747 L385.437767,211.099643 L420.050927,190.251994 L420.566874,191.108615 L386.487471,211.634779 L388.381927,233.667078 Z M407.216792,227.786325 L408.215364,227.732911 L409.395722,249.799648 L375.869005,270.798057 L375.338203,269.950562 L408.365685,249.264833 L407.216792,227.786325 Z M351.395827,206.566665 L352.394678,206.61458 L351.281022,229.83008 L350.282171,229.782165 L351.395827,206.566665 Z M309.457118,187.11667 L331.747253,180.289521 L332.04011,181.245677 L310.432414,187.863806 L309.330142,220.445017 L259.787432,234.890924 L259.507504,233.930903 L308.355192,219.687653 L309.457118,187.11667 Z M334.662991,217.668174 L335.469527,218.259359 L321.956537,236.694738 L321.150001,236.103553 L334.662991,217.668174 Z M346.370075,248.678912 L347.366573,248.762534 L344.81952,279.115032 L343.823022,279.03141 L346.370075,248.678912 Z M376.394777,186.077969 L377.367392,186.310393 L369.424317,219.549473 L368.451702,219.31705 L376.394777,186.077969 Z M426.172555,169.921921 L426.220093,170.92079 L405.138855,171.924095 L405.091316,170.925226 L426.172555,169.921921 Z M458.025403,140.002261 L459.022906,139.931638 L461.506814,175.015075 L432.18535,175.429041 L432.171233,174.429141 L460.434576,174.030113 L458.025403,140.002261 Z M499.024089,170.586795 L499.909317,171.051951 L481.733853,205.641238 L480.848625,205.176081 L499.024089,170.586795 Z M469.922063,219.858658 L470.148771,220.832621 L428.034606,230.635454 L427.807899,229.661492 L469.922063,219.858658 Z M427.551341,252.850817 L428.349977,253.452632 L402.375547,287.921865 L401.576911,287.32005 L427.551341,252.850817 Z M611.872459,8.15512 L611.848612,7.155404 L638.14316,6.528181 L646.676659,40.151051 L645.70739,40.397052 L637.370009,7.546908 L611.872459,8.15512 Z M592.560848,47.963619 L592.558928,47.81913 L592.480227,47.697941 L592.560848,47.963619 Z M614.644483,81.827902 L613.805812,82.372541 L591.562855,48.121391 L590.941537,1.350659 L591.941449,1.337376 L592.558928,47.81913 L614.644483,81.827902 Z M642.648865,55.720942 L643.629104,55.918759 L639.759855,75.091962 L638.779616,74.894145 L642.648865,55.720942 Z M682.05059,53.224618 L681.85723,54.205748 L626.420514,43.280758 L626.613866,42.299629 L682.05059,53.224618 Z M624.975483,53.839351 L625.953342,53.630089 L636.650842,103.618398 L635.672983,103.82766 L624.975483,53.839351 Z M587.320216,100.152541 L586.782063,100.995388 L527.14454,62.917156 L527.682693,62.074309 L587.320216,100.152541 Z M551.476412,46.643276 L552.458914,46.457021 L555.193241,60.880701 L554.210739,61.066956 L551.476412,46.643276 Z M561.310061,0.618134 L561.8547,1.456805 L540.940353,15.03874 L540.395714,14.20007 L561.310061,0.618134 Z M568.57824,35.574779 L569.546016,35.322967 L579.485149,73.521492 L578.517373,73.773305 L568.57824,35.574779 Z M654.83028,144.447685 L655.20098,145.376436 L621.459642,158.843966 L621.08894,157.915214 L654.83028,144.447685 Z M573.149713,162.949435 L572.184175,162.689175 L578.101625,140.736021 L617.757672,132.984038 L617.949521,133.965462 L578.904997,141.597905 L573.149713,162.949435 Z M592.860032,163.865238 L593.816652,164.156577 L587.378558,185.296234 L548.69187,193.561472 L548.48294,192.583541 L586.593557,184.441378 L592.860032,163.865238 Z M547.663035,124.833386 L548.58526,125.220039 L539.598597,146.65458 L538.676372,146.267927 L547.663035,124.833386 Z M514.90583,92.212487 L538.186727,93.42074 L538.134898,94.419396 L515.566772,93.248135 L503.387545,123.487459 L451.891835,120.117567 L451.957135,119.119702 L502.730426,122.442318 L514.90583,92.212487 Z M528.142373,129.542425 L528.698072,130.373809 L509.694744,143.075684 L509.139045,142.2443 L528.142373,129.542425 Z M528.537137,162.687046 L529.444938,163.106447 L516.670325,190.757321 L515.762524,190.33792 L528.537137,162.687046 Z M578.161911,114.130454 L578.996376,114.681515 L560.163892,143.199342 L559.329427,142.648281 L578.161911,114.130454 Z M630.463415,115.973737 L630.166453,116.928627 L610.013418,110.661217 L610.31038,109.706327 L630.463415,115.973737 Z M670.62843,98.75277 L671.58993,99.027572 L661.9248,132.844765 L634.230048,123.205235 L634.558768,122.260808 L661.2541,131.552477 L670.62843,98.75277 Z M698.69406,141.515207 L699.36681,142.255077 L670.45723,168.542 L669.78448,167.802129 L698.69406,141.515207 Z M654.49514,177.862134 L654.37506,178.854899 L611.447919,173.662656 L611.567999,172.669892 L654.49514,177.862134 Z M603.395698,194.372982 L603.940337,195.211652 L567.743184,218.718358 L567.198545,217.879688 L603.395698,194.372982 Z M493.555692,246.007406 L493.065298,245.135905 L515.987543,232.237557 L539.307157,257.918554 L538.566833,258.590804 L515.783154,233.500012 L493.555692,246.007406 Z M495.19351,290.222477 L495.123982,290.095802 L494.997598,290.025746 L495.19351,290.222477 Z M530.59052,309.755225 L530.10571,310.629845 L494.386404,290.83031 L471.880284,249.825897 L472.756918,249.344738 L495.123982,290.095802 L530.59052,309.755225 Z M543.060447,273.556887 L544.018816,273.271354 L549.603745,292.01679 L548.645376,292.302322 L543.060447,273.556887 Z M576.678148,252.854776 L576.96804,253.811836 L522.89135,270.191605 L522.601458,269.234546 L576.678148,252.854776 Z M526.572423,280.192691 L527.337579,279.548846 L560.251001,318.663732 L559.485844,319.307576 L526.572423,280.192691 Z M515.067522,338.762887 L514.988053,339.759725 L444.454599,334.136762 L444.534067,333.139925 L515.067522,338.762887 Z M458.298243,308.344657 L459.078299,307.718947 L468.264074,319.170612 L467.484018,319.796322 L458.298243,308.344657 Z M445.373344,263.09025 L446.247964,263.57506 L434.158024,285.385889 L433.283404,284.901079 L445.373344,263.09025 Z M468.201916,290.542933 L468.938193,289.866252 L495.647047,318.927408 L494.910771,319.604089 L468.201916,290.542933 Z M595.470682,346.179122 L596.234015,346.825127 L572.7648,374.55685 L572.001467,373.910845 L595.470682,346.179122 Z M532.037066,400.861902 L531.062361,401.085399 L525.980779,378.92384 L557.355654,353.461858 L557.985798,354.238336 L527.094743,379.307678 L532.037066,400.861902 Z M549.870188,392.417074 L550.851609,392.225205 L555.091576,413.912916 L524.813553,439.372988 L524.169968,438.607613 L553.997132,413.526659 L549.870188,392.417074 Z M491.639264,379.172699 L492.635063,379.081135 L494.763218,402.225694 L493.767419,402.317258 L491.639264,379.172699 Z M447.401783,365.74873 L468.524837,355.885835 L468.947915,356.791929 L448.471568,366.35286 L451.914452,398.770399 L404.86437,419.970733 L404.453557,419.059013 L450.843586,398.156093 L447.401783,365.74873 Z M476.614302,392.49493 L477.495266,392.968113 L466.679492,413.104725 L465.798528,412.631541 L476.614302,392.49493 Z M492.523314,421.574562 L493.521752,421.518684 L495.223738,451.930275 L494.2253,451.986152 L492.523314,421.574562 Z M513.543451,355.404216 L514.538947,355.499016 L511.299159,389.520078 L510.303663,389.425278 L513.543451,355.404216 Z M560.588307,332.47767 L560.774398,333.460202 L540.037954,337.387684 L539.851862,336.405152 L560.588307,332.47767 Z M587.967153,298.416127 L588.94512,298.207365 L596.287526,332.603679 L567.309029,337.094376 L567.15589,336.106171 L595.088642,331.77753 L587.967153,298.416127 Z M632.823387,322.997099 L633.764738,323.334529 L620.580054,360.116731 L619.638704,359.779301 L632.823387,322.997099 Z M610.861899,375.839671 L611.221949,376.772604 L570.881927,392.341196 L570.521877,391.408263 L610.861899,375.839671 Z M573.495147,414.407617 L574.369767,414.892427 L553.445308,452.64115 L552.570688,452.15634 L573.495147,414.407617 Z M721.9674,146.440741 L721.80466,145.454073 L747.75602,141.17346 L760.88587,173.281481 L759.96027,173.659984 L747.13217,142.289875 L721.9674,146.440741 Z M708.38401,188.549483 L708.362,188.406667 L708.26719,188.297611 L708.38401,188.549483 Z M734.96572,219.010753 L734.21101,219.666812 L707.41768,188.844613 L700.29318,142.615522 L701.28152,142.463207 L708.362,188.406667 L734.96572,219.010753 Z M759.06418,189.260408 L760.06241,189.319877 L758.89921,208.844982 L757.90098,208.785513 L759.06418,189.260408 Z M797.73502,181.304719 L797.6801,182.303209 L741.26242,179.19984 L741.31735,178.20135 L797.73502,181.304719 Z M741.30093,189.856788 L742.24015,189.51347 L759.79057,237.526493 L758.85135,237.86981 L741.30093,189.856788 Z M710.45767,240.959861 L710.04206,241.869402 L645.685455,212.461684 L646.101069,211.552143 L710.45767,240.959861 Z M667.51564,192.959838 L668.46266,192.638658 L673.17777,206.541423 L672.23075,206.862603 L667.51564,192.959838 Z M670.84813,146.01403 L671.50419,146.768739 L652.68362,163.129211 L652.02756,162.374502 L670.84813,146.01403 Z M682.9106,179.618944 L683.83391,179.234894 L698.99253,215.678415 L698.06921,216.062465 L682.9106,179.618944 Z M783.47542,275.428342 L783.97178,276.296463 L752.43312,294.328815 L751.93677,293.460694 L783.47542,275.428342 Z M705.16471,305.117773 L704.17235,304.994423 L706.97692,282.431365 L745.16817,269.235769 L745.49474,270.180941 L707.89243,283.173054 L705.16471,305.117773 Z M724.81067,303.281517 L725.79852,303.436885 L722.36515,325.266822 L685.20526,338.835769 L684.86226,337.896433 L721.46882,324.529537 L724.81067,303.281517 Z M674.62134,270.919727 L675.5884,271.174268 L669.67231,293.650911 L668.70524,293.39637 L674.62134,270.919727 Z M637.642973,243.175213 L660.86546,241.131633 L660.95312,242.127784 L638.441617,244.108797 L630.589418,275.748855 L579.125862,279.578577 L579.051651,278.581334 L629.793238,274.805339 L637.642973,243.175213 Z M655.94602,278.299689 L656.61202,279.045643 L639.561389,294.268656 L638.895392,293.522702 L655.94602,278.299689 Z M660.94978,311.066808 L661.90712,311.355786 L653.10509,340.515446 L652.14775,340.226468 L660.94978,311.066808 Z M703.33384,256.076332 L704.23688,256.505895 L689.55659,287.367163 L688.65355,286.937601 L703.33384,256.076332 Z M755.38289,250.622714 L755.22171,251.609639 L734.39255,248.207984 L734.55372,247.221058 L755.38289,250.622714 Z M792.76032,227.97945 L793.75071,228.117763 L788.88608,262.950976 L760.11929,257.259621 L760.31338,256.278636 L788.04206,261.764607 L792.76032,227.97945 Z M826.5042,266.419744 L827.27338,267.058786 L802.30357,297.113322 L801.5344,296.474281 L826.5042,266.419744 Z M787.79393,308.564248 L787.81319,309.564063 L744.58119,310.396654 L744.56194,309.396839 L787.79393,308.564248 Z M739.48966,332.02608 L740.14572,332.78079 L707.57233,361.0964 L706.91627,360.341691 L739.48966,332.02608 Z M721.41008,455.674027 L721.88928,454.796325 L744.97464,467.400407 L735.55343,500.785416 L734.59102,500.513825 L743.79571,467.896075 L721.41008,455.674027 Z M684.78148,480.493393 L684.85206,480.367302 L684.8445,480.222999 L684.78148,480.493393 Z M686.97433,520.86254 L685.9757,520.914876 L683.83831,480.131031 L706.6856,439.315731 L707.55819,439.804183 L684.85206,480.367302 L686.97433,520.86254 Z M724.28031,512.255441 L725.03032,512.916875 L712.09285,527.586731 L711.34284,526.925297 L724.28031,512.255441 Z M759.65137,529.794421 L758.99335,530.547428 L716.44624,493.367749 L717.10425,492.614743 L759.65137,529.794421 Z M709.91551,501.789244 L710.86699,502.096947 L695.13715,550.736843 L694.18566,550.42914 L709.91551,501.789244 Z M654.1485,523.07001 L653.26102,523.53086 L620.652527,460.735382 L621.540005,460.274532 L654.1485,523.07001 Z M649.86149,458.807724 L650.80549,459.137674 L645.961642,472.996111 L645.017643,472.666162 L649.86149,458.807724 Z M681.39025,423.865607 L681.44258,424.864237 L656.53926,426.169364 L656.48692,425.170735 L681.39025,423.865607 Z M670.20635,457.773039 L671.17038,458.038851 L660.67866,496.089311 L659.71463,495.823499 L670.20635,457.773039 Z M690.46636,595.185762 L690.32302,596.175436 L654.3684,590.967987 L654.51174,589.978314 L690.46636,595.185762 Z M610.478036,570.368464 L609.771985,569.660303 L625.873225,553.607039 L664.09236,566.721648 L663.76779,567.667511 L626.138023,554.755138 L610.478036,570.368464 Z M627.089772,581.016732 L627.772559,581.747349 L611.627177,596.835781 L573.990905,584.650343 L574.298931,583.698965 L611.374775,595.702954 L627.089772,581.016732 Z M607.46395,524.615658 L608.069294,525.411622 L589.569345,539.481147 L588.964001,538.685183 L607.46395,524.615658 Z M595.405828,479.986527 L614.96355,492.673354 L614.419337,493.512301 L595.460397,481.213896 L569.793215,501.312306 L526.881567,472.646039 L527.437052,471.814512 L569.746703,500.078628 L595.405828,479.986527 Z M588.204041,518.933474 L588.269599,519.931323 L565.461296,521.429805 L565.395739,520.431957 L588.204041,518.933474 Z M571.973606,547.834939 L572.550084,548.652052 L547.661508,566.211105 L547.08503,565.393993 L571.973606,547.834939 Z M639.228217,530.596085 L639.675355,531.49055 L609.107032,546.771471 L608.659894,545.877005 L639.228217,530.596085 Z M683.60101,558.343167 L682.86639,559.021644 L668.54705,543.517391 L669.28167,542.838913 L683.60101,558.343167 Z M726.99541,563.511878 L727.69069,564.230614 L702.41185,588.684596 L683.24726,566.489144 L684.00415,565.835606 L702.47715,587.230093 L726.99541,563.511878 Z M729.91975,614.578052 L730.13243,615.555174 L691.95254,623.865525 L691.73985,622.888404 L729.91975,614.578052 Z M673.46889,623.955951 L672.86851,624.75567 L638.288645,598.795488 L638.889019,597.995769 L673.46889,623.955951 Z M620.960054,612.705046 L621.01239,613.703675 L577.911383,615.962503 L577.859047,614.963874 L620.960054,612.705046 Z M926.88716,596.615851 L927.63766,595.954979 L945.01995,615.6946 L924.74857,643.844004 L923.93708,643.259627 L943.74259,615.757157 L926.88716,596.615851 Z M883.97882,607.410709 L884.08827,607.316363 L884.13052,607.178175 L883.97882,607.410709 Z M872.23236,646.095296 L871.27606,645.802925 L883.21646,606.747616 L918.64554,576.208012 L919.29845,576.965451 L884.08827,607.316363 L872.23236,646.095296 Z M910.23232,650.766668 L910.71087,651.644729 L893.53624,661.005009 L893.05769,660.126948 L910.23232,650.766668 Z M937.47155,679.345531 L936.59568,679.828072 L909.33067,630.338633 L910.20655,629.856092 L937.47155,679.345531 Z M900.31347,636.018608 L901.10233,636.633181 L869.68529,676.959807 L868.89643,676.345234 L900.31347,636.018608 Z M840.63117,636.942545 L839.6396,637.072067 L830.47495,566.910858 L831.46653,566.781336 L840.63117,636.942545 Z M858.58169,575.089505 L859.35591,575.722423 L850.06433,587.088402 L849.29011,586.455484 L858.58169,575.089505 Z M900.15995,553.038127 L899.86757,553.994431 L876.01973,546.703412 L876.3121,545.747107 L900.15995,553.038127 Z M878.0535,581.075573 L878.86847,581.65507 L855.99545,613.822427 L855.18048,613.242929 L878.0535,581.075573 Z M850.09376,717.130625 L849.62058,718.011589 L817.61533,700.820983 L818.08852,699.940018 L850.09376,717.130625 Z M783.41734,666.452375 L782.99607,665.545438 L803.61683,655.967253 L835.04561,681.362668 L834.41711,682.14048 L803.47298,657.136679 L783.41734,666.452375 Z M795.38534,682.140022 L795.77706,683.060105 L775.44482,691.716548 L744.24596,667.393618 L744.8608,666.604966 L775.59509,690.565712 L795.38534,682.140022 Z M796.2334,622.427923 L796.53,623.382924 L774.33368,630.276598 L774.03708,629.321597 L796.2334,622.427923 Z M800.16654,576.366138 L814.20563,594.97699 L813.4073,595.579211 L799.79803,577.538151 L768.80471,587.645785 L738.28539,546.031657 L739.09177,545.440265 L769.18294,586.470598 L800.16654,576.366138 Z M780.07843,610.50114 L779.79875,611.461233 L757.85345,605.068447 L758.13313,604.108354 L780.07843,610.50114 Z M754.94193,632.108498 L755.20417,633.0735 L725.81101,641.061218 L725.54877,640.096216 L754.94193,632.108498 Z M824.03662,638.911705 L824.15087,639.905158 L790.19966,643.809544 L790.08541,642.816091 L824.03662,638.911705 Z M856.24335,680.161822 L855.32098,680.548127 L847.16797,661.081393 L848.09034,660.695088 L856.24335,680.161822 Z M895.25295,699.860582 L895.66048,700.773773 L863.54238,715.107125 L853.12484,687.695547 L854.05961,687.340295 L864.10121,713.762674 L895.25295,699.860582 Z M880.53526,748.847271 L880.40092,749.838206 L841.68125,744.589089 L841.81559,743.598154 L880.53526,748.847271 Z M824.28138,738.352282 L823.44369,738.898432 L799.82815,702.676829 L800.66583,702.130679 L824.28138,738.352282 Z M778.78725,709.82081 L778.49488,710.777115 L737.22061,698.158306 L737.51299,697.202002 L778.78725,709.82081 Z M668.62919,658.868452 L668.98158,657.932599 L693.59642,667.201158 L688.9132,701.572445 L687.92235,701.437439 L692.49795,667.856078 L668.62919,658.868452 Z M635.811249,688.543993 L635.863596,688.409306 L635.836024,688.267459 L635.811249,688.543993 Z M643.601055,728.215084 L642.619428,728.405893 L634.826824,688.316422 L651.77137,644.718605 L652.70345,645.080862 L635.863596,688.409306 L643.601055,728.215084 Z M679.34611,714.499759 L680.18086,715.050376 L669.41095,731.378014 L668.57619,730.827397 L679.34611,714.499759 Z M716.81388,726.945352 L716.26707,727.782608 L668.95962,696.886174 L669.50643,696.048918 L716.81388,726.945352 Z M663.66449,706.134613 L664.64953,706.306901 L655.84213,756.662608 L654.85709,756.49032 L663.66449,706.134613 Z M611.401906,734.969544 L610.587203,735.549422 L569.556611,677.903291 L570.371314,677.323412 L611.401906,734.969544 Z M598.213033,671.929291 L599.193765,672.12465 L596.325783,686.522351 L595.345051,686.326992 L598.213033,671.929291 Z M624.571955,632.939273 L624.762764,633.9209 L600.283436,638.679199 L600.092627,637.697572 L624.571955,632.939273 Z M618.215903,668.073217 L619.20754,668.202277 L614.113524,707.342597 L613.121887,707.213538 L618.215903,668.073217 Z M657.4029,801.329001 L657.39869,802.328992 L621.069236,802.176139 L621.073443,801.176148 L657.4029,801.329001 Z M574.739114,787.885446 L573.941377,787.28244 L587.651738,769.144546 L627.324128,776.812449 L627.13436,777.794278 L588.073744,770.244619 L574.739114,787.885446 Z M592.671137,796.118179 L593.448962,796.74666 L579.56061,813.93526 L540.594726,807.106363 L540.767348,806.121375 L579.153005,812.84858 L592.671137,796.118179 Z M565.3868,742.997383 L566.09703,743.701353 L549.73522,760.20865 L549.024991,759.50468 L565.3868,742.997383 Z M547.234853,700.480747 L568.367905,710.322197 L567.945747,711.22872 L547.459707,701.688576 L524.839474,725.163571 L478.355866,702.748429 L478.790219,701.847686 L524.62172,723.948372 L547.234853,700.480747 Z M545.52352,740.050959 L545.727314,741.029973 L523.349529,745.688175 L523.145735,744.709161 L545.52352,740.050959 Z M533.473346,770.929997 L534.157934,771.658928 L511.955319,792.510918 L511.270731,791.781988 L533.473346,770.929997 Z M597.674254,744.498877 L598.241526,745.322408 L570.097385,764.708904 L569.530113,763.885374 L597.674254,744.498877 Z M645.476859,765.800428 L644.843813,766.574542 L628.506057,753.214041 L629.139103,752.439927 L645.476859,765.800428 Z M689.1683,764.879504 L689.95684,765.49448 L668.32735,793.228614 L646.260253,773.916361 L646.918826,773.163845 L668.18958,791.779177 L689.1683,764.879504 Z M699.17121,815.04172 L699.51781,815.97973 L662.86606,829.52282 L662.51946,828.58481 L699.17121,815.04172 Z M644.57488,832.18479 L644.091648,833.06028 L606.235349,812.16533 L606.718581,811.28984 L644.57488,832.18479 Z M591.011234,828.3512 L591.202043,829.33282 L548.834861,837.56817 L548.644052,836.58654 L591.011234,828.3512 Z M891.7219,769.841757 L892.37312,769.082867 L912.33347,786.211236 L896.177,816.90792 L895.29209,816.44217 L911.07724,786.450958 L891.7219,769.841757 Z M850.73349,786.503247 L850.82875,786.394586 L850.85135,786.251864 L850.73349,786.503247 Z M844.4852,826.44615 L843.49751,826.28971 L849.88627,785.952707 L880.72027,750.779537 L881.47223,751.438737 L850.82875,786.394586 L844.4852,826.44615 Z M882.76548,825.78349 L883.36157,826.5864 L867.65678,838.24583 L867.06069,837.44292 L882.76548,825.78349 Z M913.71703,850.29325 L912.91684,850.893 L879.02957,805.679742 L879.82976,805.079998 L913.71703,850.29325 Z M870.89063,812.55939 L871.75734,813.05819 L846.25842,857.36477 L845.39171,856.86597 L870.89063,812.55939 Z M811.91774,821.78051 L810.95384,822.04677 L792.11383,753.843837 L793.07773,753.577574 L811.91774,821.78051 Z M821.08529,758.031187 L821.94006,758.550195 L814.32073,771.0987 L813.46596,770.579693 L821.08529,758.031187 Z M859.18994,730.407837 L859.03351,731.395525 L834.40303,727.494441 L834.55946,726.506752 L859.18994,730.407837 Z M841.20069,761.249048 L842.08838,761.709483 L823.9148,796.747098 L823.0271,796.286662 L841.20069,761.249048 Z M832.44826,899.87126 L832.10229,900.80951 L798.01605,888.24047 L798.36202,887.30223 L832.44826,899.87126 Z M759.36768,858.96578 L758.82429,858.12629 L777.91134,845.77147 L812.56862,866.5457 L812.05449,867.40341 L777.93165,846.94953 L759.36768,858.96578 Z M773.40251,872.83513 L773.91847,873.69174 L754.98884,885.09364 L720.70851,865.34946 L721.2076,864.48292 L754.97748,883.93309 L773.40251,872.83513 Z M765.932,813.58612 L766.35862,814.49054 L745.33772,824.40626 L744.9111,823.50183 L765.932,813.58612 Z M763.41629,767.425214 L779.90889,783.901083 L779.20214,784.608548 L763.21449,768.637108 L733.9295,782.959812 L697.91563,745.998138 L698.63186,745.300274 L734.1405,781.743422 L763.41629,767.425214 Z M748.27436,804.023741 L748.13102,805.013415 L725.50958,801.737039 L725.65292,800.747365 L748.27436,804.023741 Z M726.38964,828.91914 L726.78364,829.83826 L698.7882,841.83898 L698.39421,840.91986 L726.38964,828.91914 Z M795.75874,826.04002 L796.01014,827.0079 L762.93272,835.59939 L762.68133,834.6315 L795.75874,826.04002 Z M833.39293,862.40638 L832.5333,862.9173 L821.7504,844.77469 L822.61003,844.26378 L833.39293,862.40638 Z M874.76443,876.48435 L875.29509,877.33194 L845.48438,895.99577 L831.35327,870.3008 L832.2295,869.81891 L845.85066,894.58663 L874.76443,876.48435 Z M867.00761,927.04261 L867.01249,928.0426 L827.9391,928.2333 L827.93422,927.23331 L867.00761,927.04261 Z M809.84056,924.47878 L809.08704,925.1362 L780.66025,892.55375 L781.41377,891.89633 L809.84056,924.47878 Z M760.81837,902.55654 L760.66193,903.54423 L718.03315,896.79249 L718.18958,895.8048 L760.81837,902.55654 Z M83.919843,527.154702 L83.399333,526.300847 L105.857468,512.610381 L130.05913,537.461891 L129.342718,538.159569 L105.697263,513.8792 L83.919843,527.154702 Z M87.099746,571.285679 L87.02584,571.161508 L86.897088,571.095906 L87.099746,571.285679 Z M123.156877,589.571191 L122.702886,590.462197 L86.314346,571.92131 L62.390902,531.727328 L63.25021,531.215868 L87.02584,571.161508 L123.156877,589.571191 Z M134.355904,552.959709 L135.303724,552.640905 L141.539457,571.18001 L140.591637,571.498814 L134.355904,552.959709 Z M167.230632,531.09697 L167.553749,532.043329 L114.081647,550.30037 L113.75853,549.35401 L167.230632,531.09697 Z M118.10951,560.166895 L118.85173,559.496739 L153.110191,597.439135 L152.367971,598.109291 L118.10951,560.166895 Z M108.655687,619.102927 L108.611057,620.101931 L37.924331,616.943976 L37.968961,615.944973 L108.655687,619.102927 Z M50.85941,590.684446 L51.617154,590.031894 L61.196991,601.156004 L60.439247,601.808557 L50.85941,590.684446 Z M36.363029,545.90868 L37.254035,546.36267 L25.932647,568.582145 L25.041641,568.128155 L36.363029,545.90868 Z M60.135779,572.547933 L60.847991,571.845969 L88.554796,599.957296 L87.842583,600.65926 L60.135779,572.547933 Z M189.268691,623.708614 L190.054104,624.327586 L167.56701,652.861479 L166.781596,652.242508 L189.268691,623.708614 Z M127.782119,680.571884 L126.815808,680.829262 L120.963894,658.858548 L151.431046,632.317109 L152.087904,633.071123 L122.090575,659.203275 L127.782119,680.571884 Z M145.309657,671.509834 L146.283784,671.283831 L151.278059,692.810358 L121.907024,719.311607 L121.237119,718.56916 L150.170801,692.462531 L145.309657,671.509834 Z M86.651983,660.305757 L87.64398,660.179496 L90.578573,683.235684 L89.586576,683.361946 L86.651983,660.305757 Z M41.972962,648.433832 L62.738937,637.839761 L63.19338,638.730537 L43.063179,649.000258 L47.635321,681.277895 L1.353782,704.107338 L0.911401,703.210511 L46.543669,680.701336 L41.972962,648.433832 Z M72.101114,674.144236 L72.998055,674.586385 L62.891628,695.088196 L61.994686,694.646046 L72.101114,674.144236 Z M89.015299,702.650937 L90.011179,702.560248 L92.773477,732.893915 L91.777597,732.984603 L89.015299,702.650937 Z M107.713319,635.787308 L108.711517,635.847308 L106.661021,669.960713 L105.662823,669.900713 L107.713319,635.787308 Z M153.929392,611.232886 L154.14966,612.208325 L133.562915,616.857107 L133.342646,615.881667 L153.929392,611.232886 Z M180.102829,576.236584 L181.072914,575.993819 L189.611261,610.112934 L160.80714,615.61223 L160.619607,614.629972 L188.384276,609.329128 L180.102829,576.236584 Z M225.789601,599.237123 L226.742155,599.541494 L214.849183,636.761428 L213.89663,636.457057 L225.789601,599.237123 Z M205.68567,652.81395 L206.078061,653.733748 L166.305949,670.700703 L165.913559,669.780904 L205.68567,652.81395 Z M169.687683,692.662482 L170.57869,693.116472 L150.984389,731.572453 L150.093382,731.118463 L169.687683,692.662482 Z M308.717587,419.677237 L308.520503,418.69685 L334.306662,413.513155 L348.549068,445.143391 L347.637242,445.553967 L333.722157,414.650662 L308.717587,419.677237 Z M296.612036,462.234381 L296.585055,462.092421 L296.486505,461.986739 L296.612036,462.234381 Z M324.240642,491.749406 L323.509288,492.431405 L295.656602,462.563056 L286.92307,416.610768 L287.905485,416.424053 L296.585055,462.092421 L324.240642,491.749406 Z M347.286149,461.17616 L348.285847,461.200755 L347.804771,480.754562 L346.805074,480.729967 L347.286149,461.17616 Z M385.655786,451.875724 L385.635743,452.875523 L329.144127,451.742994 L329.164171,450.743195 L385.655786,451.875724 Z M329.55453,462.392105 L330.481196,462.016219 L349.696555,509.387492 L348.76989,509.763379 L329.55453,462.392105 Z M300.513532,514.540462 L300.129914,515.463954 L234.786203,488.320163 L235.169822,487.396671 L300.513532,514.540462 Z M255.92249,468.068334 L256.857722,467.714299 L262.055154,481.444041 L261.119922,481.798076 L255.92249,468.068334 Z M257.614562,421.034822 L258.29656,421.766176 L240.058427,438.77351 L239.376429,438.042157 L257.614562,421.034822 Z M270.842478,454.198292 L271.751825,453.782252 L288.173064,489.674544 L287.263717,490.090583 L270.842478,454.198292 Z M374.689739,546.439663 L375.216086,547.289933 L344.325963,566.411983 L343.799616,565.561713 L374.689739,546.439663 Z M297.462877,578.844013 L296.466814,578.755371 L298.48224,556.10818 L336.189705,541.587766 L336.549062,542.520966 L299.423071,556.817466 L297.462877,578.844013 Z M317.03278,576.323242 L318.025457,576.444039 L315.356035,598.3805 L278.692328,613.238043 L278.316756,612.31125 L314.434516,597.674946 L317.03278,576.323242 Z M265.744616,545.732747 L266.719973,545.953383 L261.591906,568.622803 L260.61655,568.402167 L265.744616,545.732747 Z M227.820507,519.295661 L250.957527,516.442873 L251.0799,517.435357 L228.651247,520.200804 L221.908053,552.095626 L170.609503,557.719067 L170.500534,556.725021 L221.07943,551.180471 L227.820507,519.295661 Z M247.338233,553.759973 L248.029858,554.48223 L231.520891,570.291028 L230.829266,569.568771 L247.338233,553.759973 Z M253.482503,586.332502 L254.44934,586.587893 L246.670327,616.036977 L245.703489,615.781586 L253.482503,586.332502 Z M293.921601,529.896343 L294.83908,530.294128 L281.244772,561.648932 L280.327294,561.251146 L293.921601,529.896343 Z M345.748611,522.629561 L345.621976,523.621511 L324.686786,520.948855 L324.813422,519.956905 L345.748611,522.629561 Z M382.313037,498.695638 L383.307649,498.799302 L379.661646,533.781069 L350.713757,529.097127 L350.873485,528.109966 L378.776734,532.624879 L382.313037,498.695638 Z M417.377912,535.93487 L418.168919,536.546679 L394.263214,567.45434 L393.472208,566.842532 L417.377912,535.93487 Z M380.162043,579.40467 L380.216179,580.403203 L337.039579,582.744062 L336.985443,581.745528 L380.162043,579.40467 Z M332.705999,604.538005 L333.387998,605.269358 L301.822658,634.704514 L301.140659,633.973161 L332.705999,604.538005 Z M233.500934,674.461503 L232.866656,673.688398 L253.200885,657.005599 L280.62568,678.247035 L280.013338,679.037628 L253.218824,658.284366 L233.500934,674.461503 Z M242.791736,717.720443 L242.701267,717.607766 L242.564638,717.560721 L242.791736,717.720443 Z M281.042812,730.809819 L280.717244,731.755337 L242.102441,718.459194 L212.817898,681.985877 L213.597661,681.359803 L242.701267,717.607766 L281.042812,730.809819 Z M287.037517,692.996034 L287.931745,692.548421 L296.686936,710.039259 L295.792709,710.486872 L287.037517,692.996034 Z M316.549606,666.770783 L317.001286,667.662964 L266.590459,693.184206 L266.13878,692.292026 L316.549606,666.770783 Z M271.952278,702.394141 L272.594008,701.62721 L311.799629,734.432497 L311.1579,735.199428 L271.952278,702.394141 Z M270.79277,762.07233 L270.887608,763.067823 L200.449298,769.778292 L200.35446,768.782799 L270.79277,762.07233 Z M209.603874,741.974103 L210.263426,741.222443 L221.298209,750.905039 L220.638658,751.656698 L209.603874,741.974103 Z M189.016989,699.651597 L189.962507,699.977165 L181.843651,723.556035 L180.898133,723.230467 L189.016989,699.651597 Z M216.265851,722.723072 L216.873438,721.928819 L248.222942,745.910526 L247.615355,746.70478 L216.265851,722.723072 Z M351.262241,755.414033 L352.126155,755.917672 L333.829054,787.303474 L332.96514,786.799835 L351.262241,755.414033 Z M298.28789,820.28119 L297.366803,820.67055 L288.514107,799.72808 L314.9909,769.204733 L315.746305,769.859992 L289.677801,799.912649 L298.28789,820.28119 Z M314.383658,808.867969 L315.316851,808.508594 L323.258436,829.13056 L297.861498,859.46156 L297.094785,858.81957 L322.113545,828.94022 L314.383658,808.867969 Z M254.73753,805.9365 L255.702301,805.673408 L261.817135,828.0968 L260.852365,828.35989 L254.73753,805.9365 Z M208.841069,800.39823 L227.930542,787.017194 L228.504534,787.836055 L209.999508,800.807414 L219.019333,832.13461 L176.365447,861.18302 L175.802557,860.35649 L217.858063,831.71559 L208.841069,800.39823 Z M242.254213,821.66539 L243.20396,821.97841 L236.049189,843.68724 L235.099441,843.37422 L242.254213,821.66539 Z M262.971157,847.54067 L263.944723,847.31226 L270.901769,876.96629 L269.928203,877.19469 L262.971157,847.54067 Z M272.18159,778.725492 L273.178424,778.645985 L275.895552,812.71277 L274.898717,812.79228 L272.18159,778.725492 Z M314.530576,747.977997 L314.884456,748.913288 L295.145044,756.381949 L294.791165,755.446658 L314.530576,747.977997 Z M335.578752,709.679639 L336.50561,709.304227 L349.709325,741.902988 L321.950878,751.357524 L321.628466,750.410925 L348.385195,741.297574 L335.578752,709.679639 Z M384.02196,726.097968 L385.007603,726.266808 L378.410387,764.779701 L377.424743,764.610862 L384.02196,726.097968 Z M371.570132,781.951315 L372.086715,782.807552 L335.063006,805.144594 L334.546423,804.288357 L371.570132,781.951315 Z M341.468318,826.422 L342.413837,826.74756 L328.362264,867.55629 L327.416746,867.23073 L341.468318,826.422 Z M441.152989,536.744201 L440.82138,535.800784 L465.635159,527.078797 L484.141037,556.41905 L483.295226,556.952532 L465.214653,528.286581 L441.152989,536.744201 Z M435.088058,580.57195 L435.041583,580.435126 L434.929285,580.344188 L435.088058,580.57195 Z M466.555482,605.954578 L465.926162,606.731724 L434.187666,581.030396 L419.143806,536.740785 L420.090674,536.419163 L435.041583,580.435126 L466.555482,605.954578 Z M485.121739,572.471554 L486.11513,572.356779 L488.360101,591.787242 L487.366709,591.902017 L485.121739,572.471554 Z M521.823595,557.921608 L521.942891,558.914466 L465.843431,565.655072 L465.724134,564.662213 L521.823595,557.921608 Z M467.731909,576.14343 L468.597244,575.642235 L494.218408,619.878233 L493.353074,620.379428 L467.731909,576.14343 Z M446.231186,631.826008 L445.979825,632.793902 L377.49435,615.008359 L377.74571,614.040466 L446.231186,631.826008 Z M395.60643,592.012017 L396.483288,591.531269 L403.54095,604.404051 L402.664092,604.884799 L395.60643,592.012017 Z M390.736235,545.200742 L391.513381,545.830062 L375.819704,565.21014 L375.042558,564.580819 L390.736235,545.200742 Z M408.450881,576.200496 L409.293476,575.661949 L430.550147,608.919545 L429.707551,609.458092 L408.450881,576.200496 Z M524.125025,653.091436 L524.764584,653.860178 L496.836357,677.095207 L496.196798,676.326465 L524.125025,653.091436 Z M452.159544,695.92833 L451.160837,695.979176 L450.00477,673.271893 L485.324417,653.644926 L485.810153,654.519031 L451.035158,673.843338 L452.159544,695.92833 Z M471.18817,690.708487 L472.187998,690.689955 L472.59752,712.784444 L438.358392,732.599996 L437.85749,731.734492 L471.586775,712.214006 L471.18817,690.708487 Z M416.141765,667.55363 L417.138336,667.636376 L415.215149,690.798867 L414.218578,690.716122 L416.141765,667.55363 Z M374.9074,646.651844 L397.42222,640.606768 L397.681529,641.572562 L375.856026,647.432561 L373.617358,679.955456 L323.600673,692.663548 L323.35442,691.694342 L372.669434,679.164529 L374.9074,646.651844 Z M399.031686,678.064409 L399.817098,678.683381 L385.668955,696.635933 L384.883542,696.016961 L399.031686,678.064409 Z M409.649379,709.464827 L410.642351,709.583175 L407.037563,739.828292 L406.044591,739.709944 L409.649379,709.464827 Z M441.840532,647.949866 L442.804443,648.216092 L433.706179,681.157715 L432.742269,680.891489 L441.840532,647.949866 Z M492.151824,633.540879 L492.164474,634.540799 L471.061062,634.807768 L471.048413,633.807848 L492.151824,633.540879 Z M525.02945,604.751094 L526.02881,604.715326 L527.28681,639.864078 L497.968761,639.254488 L497.989549,638.254704 L526.2496,638.842296 L525.02945,604.751094 Z M564.935775,636.747829 L565.804231,637.243597 L546.43269,671.177498 L545.564235,670.681731 L564.935775,636.747829 Z M534.131915,684.974032 L534.324494,685.955313 L491.89387,694.282412 L491.701291,693.301131 L534.131915,684.974032 Z M490.635594,716.467376 L491.41274,717.096696 L464.251174,750.638437 L463.474028,750.009117 L490.635594,716.467376 Z M633.231453,436.893304 L632.686946,437.732061 L610.682184,423.446934 L658.97706,374.545409 L659.08207,374.46417 L687.87108,357.776258 L688.37258,358.641416 L659.64151,375.295741 L612.256051,423.276421 L633.231453,436.893304 Z M712.06674,387.727869 L712.28198,388.70443 L675.68137,396.771448 L675.46613,395.794887 L712.06674,387.727869 Z M699.70968,408.019182 L700.31218,407.221057 L733.40858,432.205025 L732.80609,433.00315 L699.70968,408.019182 Z M760.63103,485.957042 L758.70438,450.92052 L759.70287,450.865613 L761.61592,485.654757 L781.73533,519.169021 L767.78561,554.45914 L766.85563,554.091531 L780.62388,519.260488 L760.63103,485.957042 Z M788.03327,493.815713 L788.98238,493.500757 L797.70471,519.785117 L796.75561,520.100073 L788.03327,493.815713 Z M785.20485,552.216301 L784.86469,551.275931 L829.17388,535.248253 L829.51403,536.188623 L785.20485,552.216301 Z M813.13481,482.260938 L814.1306,482.352556 L810.9783,516.615065 L809.98251,516.523448 L813.13481,482.260938 Z M834.24584,468.126707 L835.01357,467.485922 L866.65999,505.401395 L865.89227,506.04218 L834.24584,468.126707 Z M833.18836,494.236005 L834.09015,493.803834 L851.19968,529.5055 L837.08433,550.451579 L836.25506,549.892739 L850.05047,529.421408 L833.18836,494.236005 Z M890.07426,503.566602 L891.00509,503.201143 L900.64978,527.766317 L899.71896,528.131775 L890.07426,503.566602 Z M866.53421,525.868228 L867.02785,524.998563 L887.43323,536.581124 L886.93959,537.450789 L866.53421,525.868228 Z M417.193236,453.105872 L417.216954,452.106154 L465.768497,453.257998 L465.744779,454.257716 L417.193236,453.105872 Z M412.747684,470.426522 L413.647444,469.990137 L433.182335,510.268134 L432.282575,510.704519 L412.747684,470.426522 Z M442.237375,473.434587 L442.779429,472.594243 L520.833177,522.941931 L520.291122,523.782275 L442.237375,473.434587 Z M544.908362,506.498261 L544.464689,507.39445 L509.198559,489.935369 L494.518187,468.793083 L495.33959,468.222734 L509.873059,489.153455 L544.908362,506.498261 Z M545.892408,530.782836 L546.892011,530.754671 L547.366805,547.605595 L497.541346,541.497111 L497.663033,540.504542 L546.334455,546.471544 L545.892408,530.782836 Z M405.336338,492.045041 L406.335826,492.077032 L404.944636,535.542167 L403.945148,535.510177 L405.336338,492.045041 Z M394.265789,435.210489 L394.541426,434.249228 L430.149795,444.459763 L429.874157,445.421025 L394.265789,435.210489 Z M982.46619,616.423811 L982.85191,615.501195 L1034.47907,637.085032 L1022.42562,660.697546 L1021.53495,660.242889 L1033.09781,637.591441 L982.46619,616.423811 Z M972.79621,648.836324 L973.71119,648.432814 L985.95916,676.205534 L985.04419,676.609044 L972.79621,648.836324 Z M952.14468,666.576161 L953.13316,666.424788 L959.02153,704.876229 L958.03305,705.027602 L952.14468,666.576161 Z M913.99548,699.946141 L914.98748,699.819908 L920.96739,746.813054 L919.97539,746.939287 L913.99548,699.946141 Z M894.91026,726.721026 L895.81378,726.292478 L911.36723,759.084231 L910.46371,759.512779 L894.91026,726.721026 Z M940.03547,781.518187 L940.94999,781.922728 L914.94874,840.70215 L914.03422,840.29761 L940.03547,781.518187 Z M986.18948,739.391865 L986.98049,738.780057 L1045.70507,814.70504 L1044.91406,815.31685 L986.18948,739.391865 Z M1067.57092,644.665542 L1068.2698,645.380782 L1004.306,707.881256 L1003.60713,707.166015 L1067.57092,644.665542 Z M1014.46339,726.742752 L1015.34499,726.270753 L1036.37926,765.558621 L1035.49766,766.030619 L1014.46339,726.742752 Z M1042.45796,705.971169 L1043.43773,705.771044 L1050.72471,741.486493 L1053.36795,860.20918 L1052.36819,860.23144 L1049.73495,741.597685 L1042.45796,705.971169 Z M958.07488,751.815924 L958.9797,751.390109 L983.2436,802.94828 L954.4374,839.22555 L999.53788,862.59367 L999.07783,863.48156 L952.89907,839.55475 L982.0745,802.8125 L958.07488,751.815924 Z M998.86381,804.741217 L999.75191,805.200861 L987.02904,829.78341 L986.14094,829.32377 L998.86381,804.741217 Z M1014.43054,833.11986 L1015.37784,832.79951 L1032.93772,884.72516 L1031.99042,885.04551 L1014.43054,833.11986 Z M927.11784,850.67041 L927.86637,851.33351 L895.73629,887.60328 L894.98776,886.94018 L927.11784,850.67041 Z M951.47011,887.59224 L952.23763,886.95122 L969.98097,908.19575 L969.21346,908.83678 L951.47011,887.59224 Z M917.0079,891.6355 L917.95498,891.9565 L913.97307,903.70473 L913.02599,903.38373 L917.0079,891.6355 Z M936.13298,897.84682 L937.12852,897.94118 L932.61717,945.53546 L931.62164,945.4411 L936.13298,897.84682 Z M948.80319,859.3555 L949.30325,858.48952 L999.45553,887.44991 L999.80785,957.32535 L998.80786,957.3304 L998.45844,888.02889 L948.80319,859.3555 Z M1045.74252,864.66511 L1046.62186,864.18891 L1061.57656,891.80397 L1040.32933,928.55845 L1018.35992,897.96174 L1019.17221,897.37849 L1040.23852,926.71745 L1060.4307,891.78803 L1045.74252,864.66511 Z M982.34536,703.600203 L982.97274,704.378913 L948.80898,731.903675 L948.18159,731.124965 L982.34536,703.600203 Z M940.05004,756.0961 L940.93542,755.631247 L953.08161,778.765646 L952.19622,779.230499 L940.05004,756.0961 Z M1063.70627,681.552074 L1064.70627,681.552074 L1064.70627,728.951139 L1063.70627,728.951139 L1063.70627,681.552074 Z M1067.44326,750.015839 L1068.39746,749.716645 L1094.1557,831.86506 L1093.20151,832.16426 L1067.44326,750.015839 Z M1034.35292,613.017177 L1035.13414,612.392914 L1050.61544,631.766503 L1049.83423,632.390766 L1034.35292,613.017177 Z M986.17814,638.96984 L986.99184,638.388558 L999.80786,656.32896 L999.80786,679.176249 L999.78581,679.323083 L993.42438,700.029859 L992.46847,699.73619 L998.80786,679.101176 L998.80786,656.649455 L986.17814,638.96984 Z" id="Combined-Shape"></path>
        </g>
    </g>
</svg>