<?xml version="1.0" encoding="UTF-8"?>
<svg width="1205px" height="958px" viewBox="0 0 1205 958" version="1.1" xmlns="http://www.w3.org/2000/svg" xmlns:xlink="http://www.w3.org/1999/xlink">
    <!-- Generator: Sketch 53.2 (72643) - https://sketchapp.com -->
    <title>Combined Shape</title>
    <desc>Created with Sketch.</desc>
    <defs>
        <linearGradient x1="26.5471494%" y1="44.4326751%" x2="82.5970837%" y2="45.2396754%" id="linearGradient-1">
            <stop stop-color="#474A52" offset="0%"></stop>
            <stop stop-color="#FF815D" offset="100%"></stop>
        </linearGradient>
    </defs>
    <g id="Page-1" stroke="none" stroke-width="1" fill="none" fill-rule="evenodd">
        <g id="Artboard" transform="translate(-341.000000, -128.000000)" fill="url(#linearGradient-1)" fill-rule="nonzero">
            <path d="M1353.04444,243.268337 L1353.66878,242.487182 L1374.21475,258.908511 L1359.13942,290.150351 L1358.23879,289.715764 L1372.96765,259.191929 L1353.04444,243.268337 Z M1312.66248,261.350152 L1312.75389,261.238233 L1312.7715,261.094809 L1312.66248,261.350152 Z M1307.81199,301.486785 L1306.81944,301.364915 L1311.79656,260.829515 L1341.38425,224.601681 L1342.15877,225.234236 L1312.75389,261.238233 L1307.81199,301.486785 Z M1346.04582,299.488564 L1346.66957,300.270186 L1331.38126,312.470605 L1330.7575,311.688983 L1346.04582,299.488564 Z M1377.83389,322.903206 L1377.05512,323.53051 L1341.61058,279.527446 L1342.38935,278.900142 L1377.83389,322.903206 Z M1333.71668,286.68695 L1334.60028,287.155202 L1310.66317,332.324689 L1309.77958,331.856437 L1333.71668,286.68695 Z M1275.10153,297.960573 L1274.14751,298.260313 L1252.93873,230.756434 L1253.89276,230.456694 L1275.10153,297.960573 Z M1282.03868,233.930144 L1282.91104,234.419005 L1275.73429,247.225776 L1274.86193,246.736916 L1282.03868,233.930144 Z M1319.15608,204.993788 L1319.03421,205.986334 L1294.28259,202.947218 L1294.40446,201.954671 L1319.15608,204.993788 Z M1302.25413,236.444027 L1303.15735,236.873202 L1286.21763,272.523722 L1285.31441,272.094547 L1302.25413,236.444027 Z M1298.34487,375.287255 L1298.03186,376.237003 L1263.52773,364.865213 L1263.84075,363.915465 L1298.34487,375.287255 Z M1223.88123,336.957161 L1223.30888,336.137154 L1241.95312,323.123726 L1277.3143,342.675778 L1276.83042,343.550911 L1242.01453,324.300365 L1223.88123,336.957161 Z M1238.39155,350.328256 L1238.93709,351.166338 L1220.41691,363.221927 L1185.4684,344.686143 L1185.93695,343.802707 L1220.36506,362.062481 L1238.39155,350.328256 Z M1228.85783,291.376052 L1229.31576,292.265041 L1208.65372,302.908336 L1208.19579,302.019348 L1228.85783,291.376052 Z M1224.73266,245.331068 L1241.79021,261.221316 L1241.10859,261.953016 L1224.57327,246.549266 L1195.80598,261.885276 L1158.5241,226.202985 L1159.21554,225.480549 L1195.9744,260.662264 L1224.73266,245.331068 Z M1210.87722,282.435746 L1210.76851,283.429819 L1188.04651,280.944916 L1188.15522,279.950843 L1210.87722,282.435746 Z M1189.87468,308.079747 L1190.30051,308.984551 L1162.74095,321.954986 L1162.31512,321.050183 L1189.87468,308.079747 Z M1259.10103,302.78143 L1259.38606,303.739951 L1226.62863,313.480587 L1226.34361,312.522066 L1259.10103,302.78143 Z M1297.98147,337.812226 L1297.14019,338.35283 L1285.73069,320.597595 L1286.57196,320.05699 L1297.98147,337.812226 Z M1339.81908,350.437772 L1340.37899,351.266323 L1311.2378,370.959169 L1296.21856,345.773019 L1297.07744,345.260844 L1311.55468,369.538103 L1339.81908,350.437772 Z M1333.83144,401.235942 L1333.87122,402.235151 L1294.82828,403.78938 L1294.78851,402.790172 L1333.83144,401.235942 Z M1276.60974,400.668781 L1275.87962,401.352096 L1246.33303,369.781577 L1247.06316,369.098261 L1276.60974,400.668781 Z M1226.85233,380.470738 L1226.73046,381.463284 L1183.89202,376.203385 L1184.01389,375.210838 L1226.85233,380.470738 Z M1530.92558,417.74966 L1531.77944,417.22915 L1545.4699,439.687285 L1520.61839,463.888947 L1519.92072,463.172536 L1544.20108,439.52708 L1530.92558,417.74966 Z M1486.79461,420.929564 L1486.91878,420.855657 L1486.98438,420.726905 L1486.79461,420.929564 Z M1468.50909,456.986694 L1467.61809,456.532704 L1486.15897,420.144163 L1526.35296,396.22072 L1526.86442,397.080027 L1486.91878,420.855657 L1468.50909,456.986694 Z M1505.12057,468.185721 L1505.43938,469.133542 L1486.90027,475.369275 L1486.58147,474.421454 L1505.12057,468.185721 Z M1526.98331,501.06045 L1526.03696,501.383566 L1507.77991,447.911464 L1508.72627,447.588348 L1526.98331,501.06045 Z M1497.91339,451.939327 L1498.58355,452.681547 L1460.64115,486.940009 L1459.97099,486.197789 L1497.91339,451.939327 Z M1438.97736,442.485505 L1437.97835,442.440874 L1441.13631,371.754148 L1442.13531,371.798779 L1438.97736,442.485505 Z M1467.39584,384.689227 L1468.04839,385.446971 L1456.92428,395.026808 L1456.27173,394.269064 L1467.39584,384.689227 Z M1512.1716,370.192846 L1511.71761,371.083853 L1489.49814,359.762465 L1489.95213,358.871458 L1512.1716,370.192846 Z M1485.53235,393.965596 L1486.23432,394.677809 L1458.12299,422.384613 L1457.42102,421.6724 L1485.53235,393.965596 Z M1434.37167,523.098508 L1433.7527,523.883922 L1405.21881,501.396827 L1405.83778,500.611414 L1434.37167,523.098508 Z M1377.5084,461.611936 L1377.25102,460.645625 L1399.22174,454.793711 L1425.76317,485.260863 L1425.00916,485.917722 L1398.87701,455.920393 L1377.5084,461.611936 Z M1386.57045,479.139475 L1386.79645,480.113602 L1365.26993,485.107876 L1338.76868,455.736841 L1339.51112,455.066937 L1365.61775,484.000618 L1386.57045,479.139475 Z M1397.77453,420.481801 L1397.90079,421.473798 L1374.8446,424.40839 L1374.71834,423.416393 L1397.77453,420.481801 Z M1409.64645,375.802779 L1420.24052,396.568755 L1419.34975,397.023197 L1409.08003,376.892996 L1376.80239,381.465138 L1353.97295,335.183599 L1354.86977,334.741218 L1377.37895,380.373486 L1409.64645,375.802779 Z M1383.93605,405.930931 L1383.4939,406.827872 L1362.99209,396.721445 L1363.43424,395.824504 L1383.93605,405.930931 Z M1355.42935,422.845117 L1355.52004,423.840996 L1325.18637,426.603294 L1325.09568,425.607415 L1355.42935,422.845117 Z M1422.29298,441.543136 L1422.23298,442.541335 L1388.11957,440.490839 L1388.17957,439.49264 L1422.29298,441.543136 Z M1446.8474,487.759209 L1445.87196,487.979477 L1441.22318,467.392732 L1442.19862,467.172464 L1446.8474,487.759209 Z M1481.8437,513.932647 L1482.08646,514.902732 L1447.96735,523.441079 L1442.46805,494.636958 L1443.45031,494.449424 L1448.75116,522.214093 L1481.8437,513.932647 Z M1458.84316,559.619419 L1458.53879,560.571972 L1421.31886,548.679001 L1421.62323,547.726447 L1458.84316,559.619419 Z M1405.26633,539.515488 L1404.34654,539.907878 L1387.37958,500.135766 L1388.29938,499.743376 L1405.26633,539.515488 Z M1365.4178,503.517501 L1364.96381,504.408507 L1326.50783,484.814206 L1326.96182,483.9232 L1365.4178,503.517501 Z M1265.78108,434.210477 L1266.29062,433.350034 L1288.92204,446.752106 L1278.34145,479.787982 L1277.3891,479.482968 L1287.72653,447.206327 L1265.78108,434.210477 Z M1228.30861,457.736404 L1228.38355,457.612854 L1228.38103,457.468374 L1228.30861,457.736404 Z M1229.09126,498.157489 L1228.09141,498.174941 L1227.37866,457.341347 L1251.63646,417.348269 L1252.49148,417.866877 L1228.38355,457.612854 L1229.09126,498.157489 Z M1266.6749,490.857593 L1267.40137,491.544799 L1253.95981,505.754207 L1253.23335,505.067001 L1266.6749,490.857593 Z M1301.41231,509.620321 L1300.72842,510.349905 L1259.50477,471.708002 L1260.18867,470.978419 L1301.41231,509.620321 Z M1252.68412,479.896447 L1253.62428,480.23717 L1236.20651,528.298472 L1235.26634,527.957749 L1252.68412,479.896447 Z M1196.20839,499.218009 L1195.30537,499.647606 L1164.90827,435.752361 L1165.81129,435.322764 L1196.20839,499.218009 Z M1194.16671,434.845256 L1195.09862,435.207949 L1189.77407,448.888897 L1188.84216,448.526203 L1194.16671,434.845256 Z M1226.89573,401.024762 L1226.91318,402.02461 L1201.97948,402.459829 L1201.96202,401.459982 L1226.89573,401.024762 Z M1214.53529,434.521226 L1215.48945,434.820521 L1203.67618,472.481645 L1202.72202,472.182351 L1214.53529,434.521226 Z M1229.98732,572.557305 L1229.80953,573.541374 L1194.05855,567.082299 L1194.23634,566.098231 L1229.98732,572.557305 Z M1150.91384,544.963573 L1150.23293,544.231202 L1166.88461,528.749643 L1204.62277,543.190091 L1204.26539,544.124051 L1167.10918,529.906284 L1150.91384,544.963573 Z M1167.14383,556.185096 L1167.80071,556.939097 L1151.13858,571.454872 L1113.9505,557.96337 L1114.29154,557.023321 L1150.92587,570.313926 L1167.14383,556.185096 Z M1149.49834,499.133448 L1150.07553,499.950053 L1131.09583,513.365369 L1130.51864,512.548764 L1149.49834,499.133448 Z M1139.00509,454.110682 L1158.10814,467.472335 L1157.53498,468.291778 L1139.01679,455.339208 L1112.66382,474.529602 L1070.77876,444.383203 L1071.36292,443.571569 L1112.6604,473.295052 L1139.00509,454.110682 Z M1130.44846,492.782565 L1130.47916,493.782094 L1107.63245,494.483665 L1107.60176,493.484136 L1130.44846,492.782565 Z M1113.21927,521.09999 L1113.76688,521.936724 L1088.28066,538.616482 L1087.73305,537.779748 L1113.21927,521.09999 Z M1181.03454,506.218789 L1181.45019,507.128314 L1150.36719,521.333107 L1149.95154,520.423582 L1181.03454,506.218789 Z M1224.41194,535.497556 L1223.65409,536.149983 L1209.88457,520.155436 L1210.64242,519.50301 L1224.41194,535.497556 Z M1267.59952,542.177562 L1268.2693,542.920125 L1242.15242,566.476992 L1223.77412,543.626225 L1224.55336,542.999501 L1242.26845,565.025653 L1267.59952,542.177562 Z M1268.73989,593.314686 L1268.91835,594.298634 L1230.47168,601.271464 L1230.29323,600.287516 L1268.73989,593.314686 Z M1211.99614,600.716765 L1211.36822,601.495044 L1177.71541,574.343857 L1178.34333,573.565577 L1211.99614,600.716765 Z M1159.91194,587.640182 L1159.9294,588.640029 L1116.77581,589.393278 L1116.75836,588.39343 L1159.91194,587.640182 Z M1466.21419,582.237491 L1466.9873,581.603213 L1483.6701,601.937442 L1462.42866,629.362237 L1461.63807,628.749895 L1482.39133,601.955381 L1466.21419,582.237491 Z M1422.95525,591.528293 L1423.06793,591.437824 L1423.11498,591.301195 L1422.95525,591.528293 Z M1409.86588,629.779369 L1408.92036,629.453801 L1422.2165,590.838998 L1458.68982,561.554455 L1459.31589,562.334218 L1423.06793,591.437824 L1409.86588,629.779369 Z M1447.67966,635.774074 L1448.12728,636.668302 L1430.63644,645.423493 L1430.18883,644.529266 L1447.67966,635.774074 Z M1473.90491,665.286163 L1473.01273,665.737843 L1447.49149,615.327016 L1448.38367,614.875337 L1473.90491,665.286163 Z M1438.28156,620.688835 L1439.04849,621.330565 L1406.2432,660.536186 L1405.47627,659.894457 L1438.28156,620.688835 Z M1378.60337,619.529327 L1377.60787,619.624165 L1370.89741,549.185855 L1371.8929,549.091017 L1378.60337,619.529327 Z M1398.70159,558.340431 L1399.45325,558.999983 L1389.77066,570.034766 L1389.019,569.375215 L1398.70159,558.340431 Z M1441.0241,537.753546 L1440.69853,538.699064 L1417.11966,530.580208 L1417.44523,529.63469 L1441.0241,537.753546 Z M1417.95263,565.002408 L1418.74688,565.609995 L1394.76517,596.959499 L1393.97092,596.351912 L1417.95263,565.002408 Z M1385.26166,699.998798 L1384.75803,700.862712 L1353.37222,682.565611 L1353.87586,681.701697 L1385.26166,699.998798 Z M1320.39451,647.024447 L1320.00515,646.10336 L1340.94762,637.250664 L1371.47096,663.727458 L1370.81571,664.482862 L1340.76305,638.414358 L1320.39451,647.024447 Z M1331.80773,663.120215 L1332.1671,664.053408 L1311.54514,671.994993 L1281.21414,646.598055 L1281.85613,645.831342 L1311.73548,670.850102 L1331.80773,663.120215 Z M1334.7392,603.474088 L1335.00229,604.438858 L1312.5789,610.553692 L1312.31581,609.588922 L1334.7392,603.474088 Z M1340.27747,557.577626 L1353.6585,576.667099 L1352.83964,577.241091 L1339.86828,558.736065 L1308.54109,567.75589 L1279.49267,525.102004 L1280.31921,524.539114 L1308.96011,566.59462 L1340.27747,557.577626 Z M1319.0103,590.99077 L1318.69729,591.940517 L1296.98846,584.785746 L1297.30147,583.835998 L1319.0103,590.99077 Z M1293.13503,611.707714 L1293.36343,612.68128 L1263.70941,619.638326 L1263.481,618.66476 L1293.13503,611.707714 Z M1361.95021,620.918147 L1362.02971,621.914981 L1327.96292,624.632109 L1327.88342,623.635274 L1361.95021,620.918147 Z M1392.6977,663.267133 L1391.76241,663.621013 L1384.29375,643.881601 L1385.22904,643.527722 L1392.6977,663.267133 Z M1430.99606,684.315309 L1431.37147,685.242167 L1398.77271,698.445882 L1389.31817,670.687435 L1390.26477,670.365023 L1399.37812,697.121753 L1430.99606,684.315309 Z M1414.57773,732.758517 L1414.40889,733.74416 L1375.896,727.146944 L1376.06484,726.1613 L1414.57773,732.758517 Z M1358.72438,720.306689 L1357.86814,720.823272 L1335.5311,683.799563 L1336.38734,683.28298 L1358.72438,720.306689 Z M1314.2537,690.204875 L1313.92813,691.150394 L1273.1194,677.098821 L1273.44497,676.153303 L1314.2537,690.204875 Z M712.826631,202.964043 L712.4623,202.032774 L736.95657,192.450111 L756.475135,221.126645 L755.648457,221.68932 L736.57847,193.671835 L712.826631,202.964043 Z M708.294962,246.976756 L708.24374,246.841637 L708.128336,246.754674 L708.294962,246.976756 Z M740.629057,271.245724 L740.027242,272.04436 L707.411117,247.466346 L690.830736,203.728738 L691.765803,203.374266 L708.24374,246.841637 L740.629057,271.245724 Z M758.015463,237.135144 L759.004244,236.98577 L761.92596,256.326048 L760.937179,256.475422 L758.015463,237.135144 Z M794.187175,221.313185 L794.34105,222.301276 L738.511007,230.995618 L738.357133,230.007527 L794.187175,221.313185 Z M740.764374,241.411679 L741.611689,240.88059 L768.76106,284.195475 L767.913744,284.726565 L740.764374,241.411679 Z M721.220041,297.810702 L721.002613,298.786779 L651.938151,283.402179 L652.155579,282.426103 L721.220041,297.810702 Z M669.236637,259.787743 L670.096183,259.276686 L677.598799,271.895317 L676.739253,272.406375 L669.236637,259.787743 Z M662.735719,213.174951 L663.534354,213.776766 L648.526592,233.692739 L647.727956,233.090924 L662.735719,213.174951 Z M681.521449,243.537589 L682.344736,242.969964 L704.749131,275.465453 L703.925844,276.033078 L681.521449,243.537589 Z M799.808583,316.344719 L800.474581,317.090673 L773.374258,341.286229 L772.70826,340.540276 L799.808583,316.344719 Z M729.381927,361.667078 L728.385603,361.752747 L726.437767,339.099643 L761.050927,318.251994 L761.566874,319.108615 L727.487471,339.634779 L729.381927,361.667078 Z M748.216792,355.786325 L749.215364,355.732911 L750.395722,377.799648 L716.869005,398.798057 L716.338203,397.950562 L749.365685,377.264833 L748.216792,355.786325 Z M692.395827,334.566665 L693.394678,334.61458 L692.281022,357.83008 L691.282171,357.782165 L692.395827,334.566665 Z M650.457118,315.11667 L672.747253,308.289521 L673.04011,309.245677 L651.432414,315.863806 L650.330142,348.445017 L600.787432,362.890924 L600.507504,361.930903 L649.355192,347.687653 L650.457118,315.11667 Z M675.662991,345.668174 L676.469527,346.259359 L662.956537,364.694738 L662.150001,364.103553 L675.662991,345.668174 Z M687.370075,376.678912 L688.366573,376.762534 L685.81952,407.115032 L684.823022,407.03141 L687.370075,376.678912 Z M717.394777,314.077969 L718.367392,314.310393 L710.424317,347.549473 L709.451702,347.31705 L717.394777,314.077969 Z M767.172555,297.921921 L767.220093,298.92079 L746.138855,299.924095 L746.091316,298.925226 L767.172555,297.921921 Z M799.025403,268.002261 L800.022906,267.931638 L802.506814,303.015075 L773.18535,303.429041 L773.171233,302.429141 L801.434576,302.030113 L799.025403,268.002261 Z M840.024089,298.586795 L840.909317,299.051951 L822.733853,333.641238 L821.848625,333.176081 L840.024089,298.586795 Z M810.922063,347.858658 L811.148771,348.832621 L769.034606,358.635454 L768.807899,357.661492 L810.922063,347.858658 Z M768.551341,380.850817 L769.349977,381.452632 L743.375547,415.921865 L742.576911,415.32005 L768.551341,380.850817 Z M952.872459,136.15512 L952.848612,135.155404 L979.14316,134.528181 L987.676659,168.151051 L986.70739,168.397052 L978.370009,135.546908 L952.872459,136.15512 Z M933.560848,175.963619 L933.558928,175.81913 L933.480227,175.697941 L933.560848,175.963619 Z M955.644483,209.827902 L954.805812,210.372541 L932.562855,176.121391 L931.941537,129.350659 L932.941449,129.337376 L933.558928,175.81913 L955.644483,209.827902 Z M983.648865,183.720942 L984.629104,183.918759 L980.759855,203.091962 L979.779616,202.894145 L983.648865,183.720942 Z M1023.05059,181.224618 L1022.85723,182.205748 L967.420514,171.280758 L967.613866,170.299629 L1023.05059,181.224618 Z M965.975483,181.839351 L966.953342,181.630089 L977.650842,231.618398 L976.672983,231.82766 L965.975483,181.839351 Z M928.320216,228.152541 L927.782063,228.995388 L868.14454,190.917156 L868.682693,190.074309 L928.320216,228.152541 Z M892.476412,174.643276 L893.458914,174.457021 L896.193241,188.880701 L895.210739,189.066956 L892.476412,174.643276 Z M902.310061,128.618134 L902.8547,129.456805 L881.940353,143.03874 L881.395714,142.20007 L902.310061,128.618134 Z M909.57824,163.574779 L910.546016,163.322967 L920.485149,201.521492 L919.517373,201.773305 L909.57824,163.574779 Z M995.830282,272.447685 L996.200984,273.376436 L962.459642,286.843966 L962.08894,285.915214 L995.830282,272.447685 Z M914.149713,290.949435 L913.184175,290.689175 L919.101625,268.736021 L958.757672,260.984038 L958.949521,261.965462 L919.904997,269.597905 L914.149713,290.949435 Z M933.860032,291.865238 L934.816652,292.156577 L928.378558,313.296234 L889.69187,321.561472 L889.48294,320.583541 L927.593557,312.441378 L933.860032,291.865238 Z M888.663035,252.833386 L889.58526,253.220039 L880.598597,274.65458 L879.676372,274.267927 L888.663035,252.833386 Z M855.90583,220.212487 L879.186727,221.42074 L879.134898,222.419396 L856.566772,221.248135 L844.387545,251.487459 L792.891835,248.117567 L792.957135,247.119702 L843.730426,250.442318 L855.90583,220.212487 Z M869.142373,257.542425 L869.698072,258.373809 L850.694744,271.075684 L850.139045,270.2443 L869.142373,257.542425 Z M869.537137,290.687046 L870.444938,291.106447 L857.670325,318.757321 L856.762524,318.33792 L869.537137,290.687046 Z M919.161911,242.130454 L919.996376,242.681515 L901.163892,271.199342 L900.329427,270.648281 L919.161911,242.130454 Z M971.463415,243.973737 L971.166453,244.928627 L951.013418,238.661217 L951.31038,237.706327 L971.463415,243.973737 Z M1011.62843,226.75277 L1012.58993,227.027572 L1002.9248,260.844765 L975.230048,251.205235 L975.558768,250.260808 L1002.2541,259.552477 L1011.62843,226.75277 Z M1039.69406,269.515207 L1040.36681,270.255077 L1011.45723,296.542 L1010.78448,295.802129 L1039.69406,269.515207 Z M995.495135,305.862134 L995.375056,306.854899 L952.447919,301.662656 L952.567999,300.669892 L995.495135,305.862134 Z M944.395698,322.372982 L944.940337,323.211652 L908.743184,346.718358 L908.198545,345.879688 L944.395698,322.372982 Z M834.555692,374.007406 L834.065298,373.135905 L856.987543,360.237557 L880.307157,385.918554 L879.566833,386.590804 L856.783154,361.500012 L834.555692,374.007406 Z M836.19351,418.222477 L836.123982,418.095802 L835.997598,418.025746 L836.19351,418.222477 Z M871.59052,437.755225 L871.10571,438.629845 L835.386404,418.83031 L812.880284,377.825897 L813.756918,377.344738 L836.123982,418.095802 L871.59052,437.755225 Z M884.060447,401.556887 L885.018816,401.271354 L890.603745,420.01679 L889.645376,420.302322 L884.060447,401.556887 Z M917.678148,380.854776 L917.96804,381.811836 L863.89135,398.191605 L863.601458,397.234546 L917.678148,380.854776 Z M867.572423,408.192691 L868.337579,407.548846 L901.251001,446.663732 L900.485844,447.307576 L867.572423,408.192691 Z M856.067522,466.762887 L855.988053,467.759725 L785.454599,462.136762 L785.534067,461.139925 L856.067522,466.762887 Z M799.298243,436.344657 L800.078299,435.718947 L809.264074,447.170612 L808.484018,447.796322 L799.298243,436.344657 Z M786.373344,391.09025 L787.247964,391.57506 L775.158024,413.385889 L774.283404,412.901079 L786.373344,391.09025 Z M809.201916,418.542933 L809.938193,417.866252 L836.647047,446.927408 L835.910771,447.604089 L809.201916,418.542933 Z M936.470682,474.179122 L937.234015,474.825127 L913.7648,502.55685 L913.001467,501.910845 L936.470682,474.179122 Z M873.037066,528.861902 L872.062361,529.085399 L866.980779,506.92384 L898.355654,481.461858 L898.985798,482.238336 L868.094743,507.307678 L873.037066,528.861902 Z M890.870188,520.417074 L891.851609,520.225205 L896.091576,541.912916 L865.813553,567.372988 L865.169968,566.607613 L894.997132,541.526659 L890.870188,520.417074 Z M832.639264,507.172699 L833.635063,507.081135 L835.763218,530.225694 L834.767419,530.317258 L832.639264,507.172699 Z M788.401783,493.74873 L809.524837,483.885835 L809.947915,484.791929 L789.471568,494.35286 L792.914452,526.770399 L745.86437,547.970733 L745.453557,547.059013 L791.843586,526.156093 L788.401783,493.74873 Z M817.614302,520.49493 L818.495266,520.968113 L807.679492,541.104725 L806.798528,540.631541 L817.614302,520.49493 Z M833.523314,549.574562 L834.521752,549.518684 L836.223738,579.930275 L835.2253,579.986152 L833.523314,549.574562 Z M854.543451,483.404216 L855.538947,483.499016 L852.299159,517.520078 L851.303663,517.425278 L854.543451,483.404216 Z M901.588307,460.47767 L901.774398,461.460202 L881.037954,465.387684 L880.851862,464.405152 L901.588307,460.47767 Z M928.967153,426.416127 L929.94512,426.207365 L937.287526,460.603679 L908.309029,465.094376 L908.15589,464.106171 L936.088642,459.77753 L928.967153,426.416127 Z M973.823387,450.997099 L974.764738,451.334529 L961.580054,488.116731 L960.638704,487.779301 L973.823387,450.997099 Z M951.861899,503.839671 L952.221949,504.772604 L911.881927,520.341196 L911.521877,519.408263 L951.861899,503.839671 Z M914.495147,542.407617 L915.369767,542.892427 L894.445308,580.64115 L893.570688,580.15634 L914.495147,542.407617 Z M1062.9674,274.440741 L1062.80466,273.454073 L1088.75602,269.17346 L1101.88587,301.281481 L1100.96027,301.659984 L1088.13217,270.289875 L1062.9674,274.440741 Z M1049.38401,316.549483 L1049.362,316.406667 L1049.26719,316.297611 L1049.38401,316.549483 Z M1075.96572,347.010753 L1075.21101,347.666812 L1048.41768,316.844613 L1041.29318,270.615522 L1042.28152,270.463207 L1049.362,316.406667 L1075.96572,347.010753 Z M1100.06418,317.260408 L1101.06241,317.319877 L1099.89921,336.844982 L1098.90098,336.785513 L1100.06418,317.260408 Z M1138.73502,309.304719 L1138.6801,310.303209 L1082.26242,307.19984 L1082.31735,306.20135 L1138.73502,309.304719 Z M1082.30093,317.856788 L1083.24015,317.51347 L1100.79057,365.526493 L1099.85135,365.86981 L1082.30093,317.856788 Z M1051.45767,368.959861 L1051.04206,369.869402 L986.685455,340.461684 L987.101069,339.552143 L1051.45767,368.959861 Z M1008.51564,320.959838 L1009.46266,320.638658 L1014.17777,334.541423 L1013.23075,334.862603 L1008.51564,320.959838 Z M1011.84813,274.01403 L1012.50419,274.768739 L993.68362,291.129211 L993.027561,290.374502 L1011.84813,274.01403 Z M1023.9106,307.618944 L1024.83391,307.234894 L1039.99253,343.678415 L1039.06921,344.062465 L1023.9106,307.618944 Z M1124.47542,403.428342 L1124.97178,404.296463 L1093.43312,422.328815 L1092.93677,421.460694 L1124.47542,403.428342 Z M1046.16471,433.117773 L1045.17235,432.994423 L1047.97692,410.431365 L1086.16817,397.235769 L1086.49474,398.180941 L1048.89243,411.173054 L1046.16471,433.117773 Z M1065.81067,431.281517 L1066.79852,431.436885 L1063.36515,453.266822 L1026.20526,466.835769 L1025.86226,465.896433 L1062.46882,452.529537 L1065.81067,431.281517 Z M1015.62134,398.919727 L1016.5884,399.174268 L1010.67231,421.650911 L1009.70524,421.39637 L1015.62134,398.919727 Z M978.642973,371.175213 L1001.86546,369.131633 L1001.95312,370.127784 L979.441617,372.108797 L971.589418,403.748855 L920.125862,407.578577 L920.051651,406.581334 L970.793238,402.805339 L978.642973,371.175213 Z M996.946022,406.299689 L997.612019,407.045643 L980.561389,422.268656 L979.895392,421.522702 L996.946022,406.299689 Z M1001.94978,439.066808 L1002.90712,439.355786 L994.105086,468.515446 L993.14775,468.226468 L1001.94978,439.066808 Z M1044.33384,384.076332 L1045.23688,384.505895 L1030.55659,415.367163 L1029.65355,414.937601 L1044.33384,384.076332 Z M1096.38289,378.622714 L1096.22171,379.609639 L1075.39255,376.207984 L1075.55372,375.221058 L1096.38289,378.622714 Z M1133.76032,355.97945 L1134.75071,356.117763 L1129.88608,390.950976 L1101.11929,385.259621 L1101.31338,384.278636 L1129.04206,389.764607 L1133.76032,355.97945 Z M1167.5042,394.419744 L1168.27338,395.058786 L1143.30357,425.113322 L1142.5344,424.474281 L1167.5042,394.419744 Z M1128.79393,436.564248 L1128.81319,437.564063 L1085.58119,438.396654 L1085.56194,437.396839 L1128.79393,436.564248 Z M1080.48966,460.02608 L1081.14572,460.78079 L1048.57233,489.0964 L1047.91627,488.341691 L1080.48966,460.02608 Z M1062.41008,583.674027 L1062.88928,582.796325 L1085.97464,595.400407 L1076.55343,628.785416 L1075.59102,628.513825 L1084.79571,595.896075 L1062.41008,583.674027 Z M1025.78148,608.493393 L1025.85206,608.367302 L1025.8445,608.222999 L1025.78148,608.493393 Z M1027.97433,648.86254 L1026.9757,648.914876 L1024.83831,608.131031 L1047.6856,567.315731 L1048.55819,567.804183 L1025.85206,608.367302 L1027.97433,648.86254 Z M1065.28031,640.255441 L1066.03032,640.916875 L1053.09285,655.586731 L1052.34284,654.925297 L1065.28031,640.255441 Z M1100.65137,657.794421 L1099.99335,658.547428 L1057.44624,621.367749 L1058.10425,620.614743 L1100.65137,657.794421 Z M1050.91551,629.789244 L1051.86699,630.096947 L1036.13715,678.736843 L1035.18566,678.42914 L1050.91551,629.789244 Z M995.148499,651.07001 L994.261021,651.53086 L961.652527,588.735382 L962.540005,588.274532 L995.148499,651.07001 Z M990.861487,586.807724 L991.805485,587.137674 L986.961642,600.996111 L986.017643,600.666162 L990.861487,586.807724 Z M1022.39025,551.865607 L1022.44258,552.864237 L997.53926,554.169364 L997.486924,553.170735 L1022.39025,551.865607 Z M1011.20635,585.773039 L1012.17038,586.038851 L1001.67866,624.089311 L1000.71463,623.823499 L1011.20635,585.773039 Z M1031.46636,723.185762 L1031.32302,724.175436 L995.368397,718.967987 L995.511735,717.978314 L1031.46636,723.185762 Z M951.478036,698.368464 L950.771985,697.660303 L966.873225,681.607039 L1005.09236,694.721648 L1004.76779,695.667511 L967.138023,682.755138 L951.478036,698.368464 Z M968.089772,709.016732 L968.772559,709.747349 L952.627177,724.835781 L914.990905,712.650343 L915.298931,711.698965 L952.374775,723.702954 L968.089772,709.016732 Z M948.46395,652.615658 L949.069294,653.411622 L930.569345,667.481147 L929.964001,666.685183 L948.46395,652.615658 Z M936.405828,607.986527 L955.96355,620.673354 L955.419337,621.512301 L936.460397,609.213896 L910.793215,629.312306 L867.881567,600.646039 L868.437052,599.814512 L910.746703,628.078628 L936.405828,607.986527 Z M929.204041,646.933474 L929.269599,647.931323 L906.461296,649.429805 L906.395739,648.431957 L929.204041,646.933474 Z M912.973606,675.834939 L913.550084,676.652052 L888.661508,694.211105 L888.08503,693.393993 L912.973606,675.834939 Z M980.228217,658.596085 L980.675355,659.49055 L950.107032,674.771471 L949.659894,673.877005 L980.228217,658.596085 Z M1024.60101,686.343167 L1023.86639,687.021644 L1009.54705,671.517391 L1010.28167,670.838913 L1024.60101,686.343167 Z M1067.99541,691.511878 L1068.69069,692.230614 L1043.41185,716.684596 L1024.24726,694.489144 L1025.00415,693.835606 L1043.47715,715.230093 L1067.99541,691.511878 Z M1070.91975,742.578052 L1071.13243,743.555174 L1032.95254,751.865525 L1032.73985,750.888404 L1070.91975,742.578052 Z M1014.46889,751.955951 L1013.86851,752.75567 L979.288645,726.795488 L979.889019,725.995769 L1014.46889,751.955951 Z M961.960054,740.705046 L962.01239,741.703675 L918.911383,743.962503 L918.859047,742.963874 L961.960054,740.705046 Z M1267.88716,724.615851 L1268.63766,723.954979 L1286.01995,743.6946 L1265.74857,771.844004 L1264.93708,771.259627 L1284.74259,743.757157 L1267.88716,724.615851 Z M1224.97882,735.410709 L1225.08827,735.316363 L1225.13052,735.178175 L1224.97882,735.410709 Z M1213.23236,774.095296 L1212.27606,773.802925 L1224.21646,734.747616 L1259.64554,704.208012 L1260.29845,704.965451 L1225.08827,735.316363 L1213.23236,774.095296 Z M1251.23232,778.766668 L1251.71087,779.644729 L1234.53624,789.005009 L1234.05769,788.126948 L1251.23232,778.766668 Z M1278.47155,807.345531 L1277.59568,807.828072 L1250.33067,758.338633 L1251.20655,757.856092 L1278.47155,807.345531 Z M1241.31347,764.018608 L1242.10233,764.633181 L1210.68529,804.959807 L1209.89643,804.345234 L1241.31347,764.018608 Z M1181.63117,764.942545 L1180.6396,765.072067 L1171.47495,694.910858 L1172.46653,694.781336 L1181.63117,764.942545 Z M1199.58169,703.089505 L1200.35591,703.722423 L1191.06433,715.088402 L1190.29011,714.455484 L1199.58169,703.089505 Z M1241.15995,681.038127 L1240.86757,681.994431 L1217.01973,674.703412 L1217.3121,673.747107 L1241.15995,681.038127 Z M1219.0535,709.075573 L1219.86847,709.65507 L1196.99545,741.822427 L1196.18048,741.242929 L1219.0535,709.075573 Z M1191.09376,845.130625 L1190.62058,846.011589 L1158.61533,828.820983 L1159.08852,827.940018 L1191.09376,845.130625 Z M1124.41734,794.452375 L1123.99607,793.545438 L1144.61683,783.967253 L1176.04561,809.362668 L1175.41711,810.14048 L1144.47298,785.136679 L1124.41734,794.452375 Z M1136.38534,810.140022 L1136.77706,811.060105 L1116.44482,819.716548 L1085.24596,795.393618 L1085.8608,794.604966 L1116.59509,818.565712 L1136.38534,810.140022 Z M1137.2334,750.427923 L1137.53,751.382924 L1115.33368,758.276598 L1115.03708,757.321597 L1137.2334,750.427923 Z M1141.16654,704.366138 L1155.20563,722.97699 L1154.4073,723.579211 L1140.79803,705.538151 L1109.80471,715.645785 L1079.28539,674.031657 L1080.09177,673.440265 L1110.18294,714.470598 L1141.16654,704.366138 Z M1121.07843,738.50114 L1120.79875,739.461233 L1098.85345,733.068447 L1099.13313,732.108354 L1121.07843,738.50114 Z M1095.94193,760.108498 L1096.20417,761.0735 L1066.81101,769.061218 L1066.54877,768.096216 L1095.94193,760.108498 Z M1165.03662,766.911705 L1165.15087,767.905158 L1131.19966,771.809544 L1131.08541,770.816091 L1165.03662,766.911705 Z M1197.24335,808.161822 L1196.32098,808.548127 L1188.16797,789.081393 L1189.09034,788.695088 L1197.24335,808.161822 Z M1236.25295,827.860582 L1236.66048,828.773773 L1204.54238,843.107125 L1194.12484,815.695547 L1195.05961,815.340295 L1205.10121,841.762674 L1236.25295,827.860582 Z M1221.53526,876.847271 L1221.40092,877.838206 L1182.68125,872.589089 L1182.81559,871.598154 L1221.53526,876.847271 Z M1165.28138,866.352282 L1164.44369,866.898432 L1140.82815,830.676829 L1141.66583,830.130679 L1165.28138,866.352282 Z M1119.78725,837.82081 L1119.49488,838.777115 L1078.22061,826.158306 L1078.51299,825.202002 L1119.78725,837.82081 Z M1009.62919,786.868452 L1009.98158,785.932599 L1034.59642,795.201158 L1029.9132,829.572445 L1028.92235,829.437439 L1033.49795,795.856078 L1009.62919,786.868452 Z M976.811249,816.543993 L976.863596,816.409306 L976.836024,816.267459 L976.811249,816.543993 Z M984.601055,856.215084 L983.619428,856.405893 L975.826824,816.316422 L992.771372,772.718605 L993.70345,773.080862 L976.863596,816.409306 L984.601055,856.215084 Z M1020.34611,842.499759 L1021.18086,843.050376 L1010.41095,859.378014 L1009.57619,858.827397 L1020.34611,842.499759 Z M1057.81388,854.945352 L1057.26707,855.782608 L1009.95962,824.886174 L1010.50643,824.048918 L1057.81388,854.945352 Z M1004.66449,834.134613 L1005.64953,834.306901 L996.842133,884.662608 L995.857086,884.49032 L1004.66449,834.134613 Z M952.401906,862.969544 L951.587203,863.549422 L910.556611,805.903291 L911.371314,805.323412 L952.401906,862.969544 Z M939.213033,799.929291 L940.193765,800.12465 L937.325783,814.522351 L936.345051,814.326992 L939.213033,799.929291 Z M965.571955,760.939273 L965.762764,761.9209 L941.283436,766.679199 L941.092627,765.697572 L965.571955,760.939273 Z M959.215903,796.073217 L960.20754,796.202277 L955.113524,835.342597 L954.121887,835.213538 L959.215903,796.073217 Z M998.402896,929.329001 L998.398688,930.328992 L962.069236,930.176139 L962.073443,929.176148 L998.402896,929.329001 Z M915.739114,915.885446 L914.941377,915.28244 L928.651738,897.144546 L968.324128,904.812449 L968.13436,905.794278 L929.073744,898.244619 L915.739114,915.885446 Z M933.671137,924.118179 L934.448962,924.74666 L920.56061,941.935256 L881.594726,935.106363 L881.767348,934.121375 L920.153005,940.848581 L933.671137,924.118179 Z M906.3868,870.997383 L907.09703,871.701353 L890.73522,888.20865 L890.024991,887.50468 L906.3868,870.997383 Z M888.234853,828.480747 L909.367905,838.322197 L908.945747,839.22872 L888.459707,829.688576 L865.839474,853.163571 L819.355866,830.748429 L819.790219,829.847686 L865.62172,851.948372 L888.234853,828.480747 Z M886.52352,868.050959 L886.727314,869.029973 L864.349529,873.688175 L864.145735,872.709161 L886.52352,868.050959 Z M874.473346,898.929997 L875.157934,899.658928 L852.955319,920.510918 L852.270731,919.781988 L874.473346,898.929997 Z M938.674254,872.498877 L939.241526,873.322408 L911.097385,892.708904 L910.530113,891.885374 L938.674254,872.498877 Z M986.476859,893.800428 L985.843813,894.574542 L969.506057,881.214041 L970.139103,880.439927 L986.476859,893.800428 Z M1030.1683,892.879504 L1030.95684,893.49448 L1009.32735,921.228614 L987.260253,901.916361 L987.918826,901.163845 L1009.18958,919.779177 L1030.1683,892.879504 Z M1040.17121,943.041717 L1040.51781,943.979729 L1003.86606,957.522819 L1003.51946,956.584807 L1040.17121,943.041717 Z M985.57488,960.184791 L985.091648,961.060284 L947.235349,940.165332 L947.718581,939.28984 L985.57488,960.184791 Z M932.011234,956.351196 L932.202043,957.332824 L889.834861,965.56817 L889.644052,964.586542 L932.011234,956.351196 Z M1232.7219,897.841757 L1233.37312,897.082867 L1253.33347,914.211236 L1237.177,944.907923 L1236.29209,944.442169 L1252.07724,914.450958 L1232.7219,897.841757 Z M1191.73349,914.503247 L1191.82875,914.394586 L1191.85135,914.251864 L1191.73349,914.503247 Z M1185.4852,954.446149 L1184.49751,954.289715 L1190.88627,913.952707 L1221.72027,878.779537 L1222.47223,879.438737 L1191.82875,914.394586 L1185.4852,954.446149 Z M1223.76548,953.783487 L1224.36157,954.586402 L1208.65678,966.245835 L1208.06069,965.44292 L1223.76548,953.783487 Z M1254.71703,978.293254 L1253.91684,978.892997 L1220.02957,933.679742 L1220.82976,933.079998 L1254.71703,978.293254 Z M1211.89063,940.559391 L1212.75734,941.058195 L1187.25842,985.364773 L1186.39171,984.865969 L1211.89063,940.559391 Z M1152.91774,949.780507 L1151.95384,950.04677 L1133.11383,881.843837 L1134.07773,881.577574 L1152.91774,949.780507 Z M1162.08529,886.031187 L1162.94006,886.550195 L1155.32073,899.0987 L1154.46596,898.579693 L1162.08529,886.031187 Z M1200.18994,858.407837 L1200.03351,859.395525 L1175.40303,855.494441 L1175.55946,854.506752 L1200.18994,858.407837 Z M1182.20069,889.249048 L1183.08838,889.709483 L1164.9148,924.747098 L1164.0271,924.286662 L1182.20069,889.249048 Z M1173.44826,1027.87126 L1173.10229,1028.80951 L1139.01605,1016.24047 L1139.36202,1015.30223 L1173.44826,1027.87126 Z M1100.36768,986.965777 L1099.82429,986.126295 L1118.91134,973.771469 L1153.56862,994.545697 L1153.05449,995.40341 L1118.93165,974.949534 L1100.36768,986.965777 Z M1114.40251,1000.83513 L1114.91847,1001.69174 L1095.98884,1013.09364 L1061.70851,993.349462 L1062.2076,992.482916 L1095.97748,1011.93309 L1114.40251,1000.83513 Z M1106.932,941.586116 L1107.35862,942.490544 L1086.33772,952.406261 L1085.9111,951.501833 L1106.932,941.586116 Z M1104.41629,895.425214 L1120.90889,911.901083 L1120.20214,912.608548 L1104.21449,896.637108 L1074.9295,910.959812 L1038.91563,873.998138 L1039.63186,873.300274 L1075.1405,909.743422 L1104.41629,895.425214 Z M1089.27436,932.023741 L1089.13102,933.013415 L1066.50958,929.737039 L1066.65292,928.747365 L1089.27436,932.023741 Z M1067.38964,956.919143 L1067.78364,957.838256 L1039.7882,969.838976 L1039.39421,968.919863 L1067.38964,956.919143 Z M1136.75874,954.040019 L1137.01014,955.007903 L1103.93272,963.599387 L1103.68133,962.631503 L1136.75874,954.040019 Z M1174.39293,990.406382 L1173.5333,990.917297 L1162.7504,972.774691 L1163.61003,972.263776 L1174.39293,990.406382 Z M1215.76443,1004.48435 L1216.29509,1005.33194 L1186.48438,1023.99577 L1172.35327,998.300801 L1173.2295,997.818912 L1186.85066,1022.58663 L1215.76443,1004.48435 Z M1208.00761,1055.04261 L1208.01249,1056.0426 L1168.9391,1056.2333 L1168.93422,1055.23331 L1208.00761,1055.04261 Z M1150.84056,1052.47878 L1150.08704,1053.1362 L1121.66025,1020.55375 L1122.41377,1019.89633 L1150.84056,1052.47878 Z M1101.81837,1030.55654 L1101.66193,1031.54423 L1059.03315,1024.79249 L1059.18958,1023.8048 L1101.81837,1030.55654 Z M424.919843,655.154702 L424.399333,654.300847 L446.857468,640.610381 L471.05913,665.461891 L470.342718,666.159569 L446.697263,641.8792 L424.919843,655.154702 Z M428.099746,699.285679 L428.02584,699.161508 L427.897088,699.095906 L428.099746,699.285679 Z M464.156877,717.571191 L463.702886,718.462197 L427.314346,699.92131 L403.390902,659.727328 L404.25021,659.215868 L428.02584,699.161508 L464.156877,717.571191 Z M475.355904,680.959709 L476.303724,680.640905 L482.539457,699.18001 L481.591637,699.498814 L475.355904,680.959709 Z M508.230632,659.09697 L508.553749,660.043329 L455.081647,678.30037 L454.75853,677.35401 L508.230632,659.09697 Z M459.10951,688.166895 L459.85173,687.496739 L494.110191,725.439135 L493.367971,726.109291 L459.10951,688.166895 Z M449.655687,747.102927 L449.611057,748.101931 L378.924331,744.943976 L378.968961,743.944973 L449.655687,747.102927 Z M391.85941,718.684446 L392.617154,718.031894 L402.196991,729.156004 L401.439247,729.808557 L391.85941,718.684446 Z M377.363029,673.90868 L378.254035,674.36267 L366.932647,696.582145 L366.041641,696.128155 L377.363029,673.90868 Z M401.135779,700.547933 L401.847991,699.845969 L429.554796,727.957296 L428.842583,728.65926 L401.135779,700.547933 Z M530.268691,751.708614 L531.054104,752.327586 L508.56701,780.861479 L507.781596,780.242508 L530.268691,751.708614 Z M468.782119,808.571884 L467.815808,808.829262 L461.963894,786.858548 L492.431046,760.317109 L493.087904,761.071123 L463.090575,787.203275 L468.782119,808.571884 Z M486.309657,799.509834 L487.283784,799.283831 L492.278059,820.810358 L462.907024,847.311607 L462.237119,846.56916 L491.170801,820.462531 L486.309657,799.509834 Z M427.651983,788.305757 L428.64398,788.179496 L431.578573,811.235684 L430.586576,811.361946 L427.651983,788.305757 Z M382.972962,776.433832 L403.738937,765.839761 L404.19338,766.730537 L384.063179,777.000258 L388.635321,809.277895 L342.353782,832.107338 L341.911401,831.210511 L387.543669,808.701336 L382.972962,776.433832 Z M413.101114,802.144236 L413.998055,802.586385 L403.891628,823.088196 L402.994686,822.646046 L413.101114,802.144236 Z M430.015299,830.650937 L431.011179,830.560248 L433.773477,860.893915 L432.777597,860.984603 L430.015299,830.650937 Z M448.713319,763.787308 L449.711517,763.847308 L447.661021,797.960713 L446.662823,797.900713 L448.713319,763.787308 Z M494.929392,739.232886 L495.14966,740.208325 L474.562915,744.857107 L474.342646,743.881667 L494.929392,739.232886 Z M521.102829,704.236584 L522.072914,703.993819 L530.611261,738.112934 L501.80714,743.61223 L501.619607,742.629972 L529.384276,737.329128 L521.102829,704.236584 Z M566.789601,727.237123 L567.742155,727.541494 L555.849183,764.761428 L554.89663,764.457057 L566.789601,727.237123 Z M546.68567,780.81395 L547.078061,781.733748 L507.305949,798.700703 L506.913559,797.780904 L546.68567,780.81395 Z M510.687683,820.662482 L511.57869,821.116472 L491.984389,859.572453 L491.093382,859.118463 L510.687683,820.662482 Z M649.717587,547.677237 L649.520503,546.69685 L675.306662,541.513155 L689.549068,573.143391 L688.637242,573.553967 L674.722157,542.650662 L649.717587,547.677237 Z M637.612036,590.234381 L637.585055,590.092421 L637.486505,589.986739 L637.612036,590.234381 Z M665.240642,619.749406 L664.509288,620.431405 L636.656602,590.563056 L627.92307,544.610768 L628.905485,544.424053 L637.585055,590.092421 L665.240642,619.749406 Z M688.286149,589.17616 L689.285847,589.200755 L688.804771,608.754562 L687.805074,608.729967 L688.286149,589.17616 Z M726.655786,579.875724 L726.635743,580.875523 L670.144127,579.742994 L670.164171,578.743195 L726.655786,579.875724 Z M670.55453,590.392105 L671.481196,590.016219 L690.696555,637.387492 L689.76989,637.763379 L670.55453,590.392105 Z M641.513532,642.540462 L641.129914,643.463954 L575.786203,616.320163 L576.169822,615.396671 L641.513532,642.540462 Z M596.92249,596.068334 L597.857722,595.714299 L603.055154,609.444041 L602.119922,609.798076 L596.92249,596.068334 Z M598.614562,549.034822 L599.29656,549.766176 L581.058427,566.77351 L580.376429,566.042157 L598.614562,549.034822 Z M611.842478,582.198292 L612.751825,581.782252 L629.173064,617.674544 L628.263717,618.090583 L611.842478,582.198292 Z M715.689739,674.439663 L716.216086,675.289933 L685.325963,694.411983 L684.799616,693.561713 L715.689739,674.439663 Z M638.462877,706.844013 L637.466814,706.755371 L639.48224,684.10818 L677.189705,669.587766 L677.549062,670.520966 L640.423071,684.817466 L638.462877,706.844013 Z M658.03278,704.323242 L659.025457,704.444039 L656.356035,726.3805 L619.692328,741.238043 L619.316756,740.31125 L655.434516,725.674946 L658.03278,704.323242 Z M606.744616,673.732747 L607.719973,673.953383 L602.591906,696.622803 L601.61655,696.402167 L606.744616,673.732747 Z M568.820507,647.295661 L591.957527,644.442873 L592.0799,645.435357 L569.651247,648.200804 L562.908053,680.095626 L511.609503,685.719067 L511.500534,684.725021 L562.07943,679.180471 L568.820507,647.295661 Z M588.338233,681.759973 L589.029858,682.48223 L572.520891,698.291028 L571.829266,697.568771 L588.338233,681.759973 Z M594.482503,714.332502 L595.44934,714.587893 L587.670327,744.036977 L586.703489,743.781586 L594.482503,714.332502 Z M634.921601,657.896343 L635.83908,658.294128 L622.244772,689.648932 L621.327294,689.251146 L634.921601,657.896343 Z M686.748611,650.629561 L686.621976,651.621511 L665.686786,648.948855 L665.813422,647.956905 L686.748611,650.629561 Z M723.313037,626.695638 L724.307649,626.799302 L720.661646,661.781069 L691.713757,657.097127 L691.873485,656.109966 L719.776734,660.624879 L723.313037,626.695638 Z M758.377912,663.93487 L759.168919,664.546679 L735.263214,695.45434 L734.472208,694.842532 L758.377912,663.93487 Z M721.162043,707.40467 L721.216179,708.403203 L678.039579,710.744062 L677.985443,709.745528 L721.162043,707.40467 Z M673.705999,732.538005 L674.387998,733.269358 L642.822658,762.704514 L642.140659,761.973161 L673.705999,732.538005 Z M574.500934,802.461503 L573.866656,801.688398 L594.200885,785.005599 L621.62568,806.247035 L621.013338,807.037628 L594.218824,786.284366 L574.500934,802.461503 Z M583.791736,845.720443 L583.701267,845.607766 L583.564638,845.560721 L583.791736,845.720443 Z M622.042812,858.809819 L621.717244,859.755337 L583.102441,846.459194 L553.817898,809.985877 L554.597661,809.359803 L583.701267,845.607766 L622.042812,858.809819 Z M628.037517,820.996034 L628.931745,820.548421 L637.686936,838.039259 L636.792709,838.486872 L628.037517,820.996034 Z M657.549606,794.770783 L658.001286,795.662964 L607.590459,821.184206 L607.13878,820.292026 L657.549606,794.770783 Z M612.952278,830.394141 L613.594008,829.62721 L652.799629,862.432497 L652.1579,863.199428 L612.952278,830.394141 Z M611.79277,890.07233 L611.887608,891.067823 L541.449298,897.778292 L541.35446,896.782799 L611.79277,890.07233 Z M550.603874,869.974103 L551.263426,869.222443 L562.298209,878.905039 L561.638658,879.656698 L550.603874,869.974103 Z M530.016989,827.651597 L530.962507,827.977165 L522.843651,851.556035 L521.898133,851.230467 L530.016989,827.651597 Z M557.265851,850.723072 L557.873438,849.928819 L589.222942,873.910526 L588.615355,874.70478 L557.265851,850.723072 Z M692.262241,883.414033 L693.126155,883.917672 L674.829054,915.303474 L673.96514,914.799835 L692.262241,883.414033 Z M639.28789,948.281191 L638.366803,948.670548 L629.514107,927.72808 L655.9909,897.204733 L656.746305,897.859992 L630.677801,927.912649 L639.28789,948.281191 Z M655.383658,936.867969 L656.316851,936.508594 L664.258436,957.130557 L638.861498,987.461556 L638.094785,986.819567 L663.113545,956.940216 L655.383658,936.867969 Z M595.73753,933.9365 L596.702301,933.673408 L602.817135,956.096799 L601.852365,956.359891 L595.73753,933.9365 Z M549.841069,928.39823 L568.930542,915.017194 L569.504534,915.836055 L550.999508,928.807414 L560.019333,960.134608 L517.365447,989.183022 L516.802557,988.356491 L558.858063,959.715589 L549.841069,928.39823 Z M583.254213,949.665393 L584.20396,949.97841 L577.049189,971.687241 L576.099441,971.374224 L583.254213,949.665393 Z M603.971157,975.54067 L604.944723,975.312264 L611.901769,1004.96629 L610.928203,1005.19469 L603.971157,975.54067 Z M613.18159,906.725492 L614.178424,906.645985 L616.895552,940.712775 L615.898717,940.792281 L613.18159,906.725492 Z M655.530576,875.977997 L655.884456,876.913288 L636.145044,884.381949 L635.791165,883.446658 L655.530576,875.977997 Z M676.578752,837.679639 L677.50561,837.304227 L690.709325,869.902988 L662.950878,879.357524 L662.628466,878.410925 L689.385195,869.297574 L676.578752,837.679639 Z M725.02196,854.097968 L726.007603,854.266808 L719.410387,892.779701 L718.424743,892.610862 L725.02196,854.097968 Z M712.570132,909.951315 L713.086715,910.807552 L676.063006,933.144594 L675.546423,932.288357 L712.570132,909.951315 Z M682.468318,954.421996 L683.413837,954.747564 L669.362264,995.556293 L668.416746,995.230725 L682.468318,954.421996 Z M782.152989,664.744201 L781.82138,663.800784 L806.635159,655.078797 L825.141037,684.41905 L824.295226,684.952532 L806.214653,656.286581 L782.152989,664.744201 Z M776.088058,708.57195 L776.041583,708.435126 L775.929285,708.344188 L776.088058,708.57195 Z M807.555482,733.954578 L806.926162,734.731724 L775.187666,709.030396 L760.143806,664.740785 L761.090674,664.419163 L776.041583,708.435126 L807.555482,733.954578 Z M826.121739,700.471554 L827.11513,700.356779 L829.360101,719.787242 L828.366709,719.902017 L826.121739,700.471554 Z M862.823595,685.921608 L862.942891,686.914466 L806.843431,693.655072 L806.724134,692.662213 L862.823595,685.921608 Z M808.731909,704.14343 L809.597244,703.642235 L835.218408,747.878233 L834.353074,748.379428 L808.731909,704.14343 Z M787.231186,759.826008 L786.979825,760.793902 L718.49435,743.008359 L718.74571,742.040466 L787.231186,759.826008 Z M736.60643,720.012017 L737.483288,719.531269 L744.54095,732.404051 L743.664092,732.884799 L736.60643,720.012017 Z M731.736235,673.200742 L732.513381,673.830062 L716.819704,693.21014 L716.042558,692.580819 L731.736235,673.200742 Z M749.450881,704.200496 L750.293476,703.661949 L771.550147,736.919545 L770.707551,737.458092 L749.450881,704.200496 Z M865.125025,781.091436 L865.764584,781.860178 L837.836357,805.095207 L837.196798,804.326465 L865.125025,781.091436 Z M793.159544,823.92833 L792.160837,823.979176 L791.00477,801.271893 L826.324417,781.644926 L826.810153,782.519031 L792.035158,801.843338 L793.159544,823.92833 Z M812.18817,818.708487 L813.187998,818.689955 L813.59752,840.784444 L779.358392,860.599996 L778.85749,859.734492 L812.586775,840.214006 L812.18817,818.708487 Z M757.141765,795.55363 L758.138336,795.636376 L756.215149,818.798867 L755.218578,818.716122 L757.141765,795.55363 Z M715.9074,774.651844 L738.42222,768.606768 L738.681529,769.572562 L716.856026,775.432561 L714.617358,807.955456 L664.600673,820.663548 L664.35442,819.694342 L713.669434,807.164529 L715.9074,774.651844 Z M740.031686,806.064409 L740.817098,806.683381 L726.668955,824.635933 L725.883542,824.016961 L740.031686,806.064409 Z M750.649379,837.464827 L751.642351,837.583175 L748.037563,867.828292 L747.044591,867.709944 L750.649379,837.464827 Z M782.840532,775.949866 L783.804443,776.216092 L774.706179,809.157715 L773.742269,808.891489 L782.840532,775.949866 Z M833.151824,761.540879 L833.164474,762.540799 L812.061062,762.807768 L812.048413,761.807848 L833.151824,761.540879 Z M866.02945,732.751094 L867.02881,732.715326 L868.28681,767.864078 L838.968761,767.254488 L838.989549,766.254704 L867.2496,766.842296 L866.02945,732.751094 Z M905.935775,764.747829 L906.804231,765.243597 L887.43269,799.177498 L886.564235,798.681731 L905.935775,764.747829 Z M875.131915,812.974032 L875.324494,813.955313 L832.89387,822.282412 L832.701291,821.301131 L875.131915,812.974032 Z M831.635594,844.467376 L832.41274,845.096696 L805.251174,878.638437 L804.474028,878.009117 L831.635594,844.467376 Z M974.231453,564.893304 L973.686946,565.732061 L951.682184,551.446934 L999.977062,502.545409 L1000.08207,502.46417 L1028.87108,485.776258 L1029.37258,486.641416 L1000.64151,503.295741 L953.256051,551.276421 L974.231453,564.893304 Z M1053.06674,515.727869 L1053.28198,516.70443 L1016.68137,524.771448 L1016.46613,523.794887 L1053.06674,515.727869 Z M1040.70968,536.019182 L1041.31218,535.221057 L1074.40858,560.205025 L1073.80609,561.00315 L1040.70968,536.019182 Z M1101.63103,613.957042 L1099.70438,578.92052 L1100.70287,578.865613 L1102.61592,613.654757 L1122.73533,647.169021 L1108.78561,682.45914 L1107.85563,682.091531 L1121.62388,647.260488 L1101.63103,613.957042 Z M1129.03327,621.815713 L1129.98238,621.500757 L1138.70471,647.785117 L1137.75561,648.100073 L1129.03327,621.815713 Z M1126.20485,680.216301 L1125.86469,679.275931 L1170.17388,663.248253 L1170.51403,664.188623 L1126.20485,680.216301 Z M1154.13481,610.260938 L1155.1306,610.352556 L1151.9783,644.615065 L1150.98251,644.523448 L1154.13481,610.260938 Z M1175.24584,596.126707 L1176.01357,595.485922 L1207.65999,633.401395 L1206.89227,634.04218 L1175.24584,596.126707 Z M1174.18836,622.236005 L1175.09015,621.803834 L1192.19968,657.5055 L1178.08433,678.451579 L1177.25506,677.892739 L1191.05047,657.421408 L1174.18836,622.236005 Z M1231.07426,631.566602 L1232.00509,631.201143 L1241.64978,655.766317 L1240.71896,656.131775 L1231.07426,631.566602 Z M1207.53421,653.868228 L1208.02785,652.998563 L1228.43323,664.581124 L1227.93959,665.450789 L1207.53421,653.868228 Z M758.193236,581.105872 L758.216954,580.106154 L806.768497,581.257998 L806.744779,582.257716 L758.193236,581.105872 Z M753.747684,598.426522 L754.647444,597.990137 L774.182335,638.268134 L773.282575,638.704519 L753.747684,598.426522 Z M783.237375,601.434587 L783.779429,600.594243 L861.833177,650.941931 L861.291122,651.782275 L783.237375,601.434587 Z M885.908362,634.498261 L885.464689,635.39445 L850.198559,617.935369 L835.518187,596.793083 L836.33959,596.222734 L850.873059,617.153455 L885.908362,634.498261 Z M886.892408,658.782836 L887.892011,658.754671 L888.366805,675.605595 L838.541346,669.497111 L838.663033,668.504542 L887.334455,674.471544 L886.892408,658.782836 Z M746.336338,620.045041 L747.335826,620.077032 L745.944636,663.542167 L744.945148,663.510177 L746.336338,620.045041 Z M735.265789,563.210489 L735.541426,562.249228 L771.149795,572.459763 L770.874157,573.421025 L735.265789,563.210489 Z M1323.46619,744.423811 L1323.85191,743.501195 L1375.47907,765.085032 L1363.42562,788.697546 L1362.53495,788.242889 L1374.09781,765.591441 L1323.46619,744.423811 Z M1313.79621,776.836324 L1314.71119,776.432814 L1326.95916,804.205534 L1326.04419,804.609044 L1313.79621,776.836324 Z M1293.14468,794.576161 L1294.13316,794.424788 L1300.02153,832.876229 L1299.03305,833.027602 L1293.14468,794.576161 Z M1254.99548,827.946141 L1255.98748,827.819908 L1261.96739,874.813054 L1260.97539,874.939287 L1254.99548,827.946141 Z M1235.91026,854.721026 L1236.81378,854.292478 L1252.36723,887.084231 L1251.46371,887.512779 L1235.91026,854.721026 Z M1281.03547,909.518187 L1281.94999,909.922728 L1255.94874,968.70215 L1255.03422,968.297609 L1281.03547,909.518187 Z M1327.18948,867.391865 L1327.98049,866.780057 L1386.70507,942.705044 L1385.91406,943.316852 L1327.18948,867.391865 Z M1408.57092,772.665542 L1409.2698,773.380782 L1345.306,835.881256 L1344.60713,835.166015 L1408.57092,772.665542 Z M1355.46339,854.742752 L1356.34499,854.270753 L1377.37926,893.558621 L1376.49766,894.030619 L1355.46339,854.742752 Z M1383.45796,833.971169 L1384.43773,833.771044 L1391.72471,869.486493 L1394.36795,988.209184 L1393.36819,988.231442 L1390.73495,869.597685 L1383.45796,833.971169 Z M1299.07488,879.815924 L1299.9797,879.390109 L1324.2436,930.94828 L1295.4374,967.225548 L1340.53788,990.593667 L1340.07783,991.481561 L1293.89907,967.554749 L1323.0745,930.8125 L1299.07488,879.815924 Z M1339.86381,932.741217 L1340.75191,933.200861 L1328.02904,957.78341 L1327.14094,957.323766 L1339.86381,932.741217 Z M1355.43054,961.119859 L1356.37784,960.799507 L1373.93772,1012.72516 L1372.99042,1013.04551 L1355.43054,961.119859 Z M1268.11784,978.670408 L1268.86637,979.333506 L1236.73629,1015.60328 L1235.98776,1014.94018 L1268.11784,978.670408 Z M1292.47011,1015.59224 L1293.23763,1014.95122 L1310.98097,1036.19575 L1310.21346,1036.83678 L1292.47011,1015.59224 Z M1258.0079,1019.6355 L1258.95498,1019.9565 L1254.97307,1031.70473 L1254.02599,1031.38373 L1258.0079,1019.6355 Z M1277.13298,1025.84682 L1278.12852,1025.94118 L1273.61717,1073.53546 L1272.62164,1073.4411 L1277.13298,1025.84682 Z M1289.80319,987.355505 L1290.30325,986.489517 L1340.45553,1015.44991 L1340.80785,1085.32535 L1339.80786,1085.3304 L1339.45844,1016.02889 L1289.80319,987.355505 Z M1386.74252,992.665106 L1387.62186,992.188908 L1402.57656,1019.80397 L1381.32933,1056.55845 L1359.35992,1025.96174 L1360.17221,1025.37849 L1381.23852,1054.71745 L1401.4307,1019.78803 L1386.74252,992.665106 Z M1323.34536,831.600203 L1323.97274,832.378913 L1289.80898,859.903675 L1289.18159,859.124965 L1323.34536,831.600203 Z M1281.05004,884.0961 L1281.93542,883.631247 L1294.08161,906.765646 L1293.19622,907.230499 L1281.05004,884.0961 Z M1404.70627,809.552074 L1405.70627,809.552074 L1405.70627,856.951139 L1404.70627,856.951139 L1404.70627,809.552074 Z M1408.44326,878.015839 L1409.39746,877.716645 L1435.1557,959.865064 L1434.20151,960.164258 L1408.44326,878.015839 Z M1375.35292,741.017177 L1376.13414,740.392914 L1391.61544,759.766503 L1390.83423,760.390766 L1375.35292,741.017177 Z M1327.17814,766.96984 L1327.99184,766.388558 L1340.80786,784.32896 L1340.80786,807.176249 L1340.78581,807.323083 L1334.42438,828.029859 L1333.46847,827.73619 L1339.80786,807.101176 L1339.80786,784.649455 L1327.17814,766.96984 Z" id="Combined-Shape"></path>
        </g>
    </g>
</svg>