<?xml version="1.0" encoding="UTF-8"?>
<svg width="500px" height="500px" viewBox="0 0 500 500" version="1.1" xmlns="http://www.w3.org/2000/svg" xmlns:xlink="http://www.w3.org/1999/xlink">
    <!-- Generator: Sketch 64 (93537) - https://sketch.com -->
    <title>logo_datica</title>
    <desc>Created with Sketch.</desc>
    <g id="logo_datica" stroke="none" stroke-width="1" fill="none" fill-rule="evenodd">
        <g id="Group">
            <rect id="Rectangle" stroke="#000000" stroke-width="20" fill="#FFFFFF" x="10" y="10" width="480" height="480" rx="50"></rect>
            <path d="M69,212.669591 L92.621693,185 L175,288 L69,212.669591 Z M92,350 L92,312 L219,330.898264 L92,350 Z M197.81006,435 L174,407.330409 L280,332 L197.81006,435 L197.81006,435 Z M330,424 L295,420.17706 L325.624321,290 L330,424 Z M421,323.141621 L392.168319,345 L332,226 L421,323.146027 L421,323.141621 Z M425,185.481117 L417.489846,222 L297,176 L424.995606,185.48551 L425,185.481117 Z M339.13688,79 L357,111.591655 L237,162 L339.13688,79 L339.13688,79 Z M207.251569,60 L241,71.4721856 L185,192 L207.251569,60 Z M97,138.211608 L129.556385,123 L165,253 L97,138.211608 Z M66,273.993123 L80.3925334,240 L189,311 L66,273.997502 L66,273.993123 Z M130.035243,397 L119,361.434605 L246,338 L130.035243,397 L130.035243,397 Z M254.948533,443 L224,424.39455 L303,318 L254.944144,443 L254.948533,443 Z M378,390.145066 L343.071847,398 L334,264 L378,390.145066 L378,390.145066 Z M435,264.544424 L413.905338,295 L321,201 L435,264.544424 L435,264.544424 Z M397.349126,131 L401,168 L273,163.373071 L397.349126,131 L397.349126,131 Z M285.40454,58 L312,82.8878468 L213,169 L285.40454,58 Z M154,84 L189,84 L171.406418,217 L154,84 Z" id="Shape" fill="#000000"></path>
        </g>
    </g>
</svg>