<?xml version="1.0" encoding="UTF-8"?>
<svg width="500px" height="500px" viewBox="0 0 500 500" version="1.1" xmlns="http://www.w3.org/2000/svg" xmlns:xlink="http://www.w3.org/1999/xlink">
    <!-- Generator: Sketch 64 (93537) - https://sketch.com -->
    <title>logo_dz</title>
    <desc>Created with Sketch.</desc>
    <defs>
        <linearGradient x1="0%" y1="0%" x2="100%" y2="100%" id="linearGradient-1">
            <stop stop-color="#24AD8D" offset="0%"></stop>
            <stop stop-color="#5A45DC" offset="100%"></stop>
        </linearGradient>
    </defs>
    <g id="logo_dz" stroke="none" stroke-width="1" fill="none" fill-rule="evenodd">
        <g id="Group">
            <rect id="Rectangle" fill="url(#linearGradient-1)" x="0" y="0" width="500" height="500" rx="50"></rect>
            <path d="M389.58915,112.41085 C399.183569,122.00527 399.921601,137.102342 391.803246,147.543324 L389.58915,150.050688 L123.435304,416.204534 C113.041349,426.598489 96.1894199,426.598489 85.7954657,416.204534 C76.2010464,406.610115 75.4630141,391.513042 83.5813689,381.072061 L85.7954657,378.564696 L351.949312,112.41085 C362.343266,102.016896 379.195195,102.016896 389.58915,112.41085 Z M407.78318,167.493227 C418.16896,188.680142 424,212.505268 424,237.692308 C424,325.887934 352.503319,397.384615 264.307692,397.384615 C239.120653,397.384615 215.295526,391.553575 194.108612,381.167795 L235.160973,340.114717 C244.423962,342.745631 254.201374,344.153846 264.307692,344.153846 C323.104776,344.153846 370.769231,296.489392 370.769231,237.692308 C370.769231,227.585989 369.361016,217.808577 366.730102,208.545588 L407.78318,167.493227 Z M264.307692,78 C289.494953,78 313.320277,83.8311424 334.507331,94.2170935 L293.455414,135.270183 C284.192128,132.639086 274.414375,131.230769 264.307692,131.230769 C205.510608,131.230769 157.846154,178.895224 157.846154,237.692308 C157.846154,247.798991 159.254471,257.576744 161.885567,266.84003 L120.832478,307.891946 C110.446527,286.704892 104.615385,262.879568 104.615385,237.692308 C104.615385,149.496681 176.112066,78 264.307692,78 Z" id="Combined-Shape" fill="#FFFFFF" fill-rule="nonzero"></path>
        </g>
    </g>
</svg>