<?xml version="1.0" encoding="UTF-8"?>
<svg width="100px" height="33px" viewBox="0 0 100 33" version="1.1" xmlns="http://www.w3.org/2000/svg" xmlns:xlink="http://www.w3.org/1999/xlink">
    <!-- Generator: Sketch 55.1 (78136) - https://sketchapp.com -->
    <title>logo</title>
    <desc>Created with Sketch.</desc>
    <defs>
        <linearGradient x1="0%" y1="50%" x2="100%" y2="50%" id="linearGradient-1">
            <stop stop-color="#3D1AFF" offset="0%"></stop>
            <stop stop-color="#FF684C" offset="100%"></stop>
        </linearGradient>
    </defs>
    <g id="Website" stroke="none" stroke-width="1" fill="none" fill-rule="evenodd">
        <g id="Home" transform="translate(-80.000000, -80.000000)" fill="url(#linearGradient-1)" fill-rule="nonzero">
            <path d="M118.358346,102.92204 L122.574797,95.3539707 C123.586338,93.5383637 125.895711,92.876896 127.732925,93.8765412 C128.363999,94.2199145 128.88322,94.7336013 129.229976,95.3576358 L131.338188,99.1516475 L142.300413,81.7684378 C143.409669,80.0094489 145.751811,79.4721608 147.531733,80.5683713 C147.991775,80.8517001 148.385107,81.2290774 148.685285,81.675133 L152.337743,87.1025804 L155.237824,82.1388333 C156.286504,80.3439228 158.609007,79.7289857 160.425278,80.7653329 C160.970656,81.0765206 161.42916,81.516862 161.75951,82.0467119 L179.811683,111.000682 C180.178404,111.588868 179.993197,112.359476 179.398011,112.721885 C178.802826,113.084293 178.023046,112.901264 177.656325,112.313078 L159.604153,83.359108 C159.494036,83.1824913 159.341201,83.0357108 159.159408,82.9319816 C158.553985,82.5865325 157.779817,82.7915116 157.430257,83.3898151 L153.902539,89.4278208 L168.395647,110.964157 C168.782781,111.539426 168.624717,112.315916 168.042602,112.698497 C167.460487,113.081077 166.674755,112.924872 166.287622,112.349603 L152.489615,91.8461669 L141.459401,110.725365 C141.112303,111.319454 140.607065,111.808156 139.998601,112.138355 C138.160261,113.135976 135.851635,112.471965 134.842142,110.655245 L131.200103,104.100903 L126.776453,111.115649 C126.454601,111.626022 126.01335,112.052482 125.489868,112.359109 C123.685695,113.415893 121.356235,112.827216 120.286875,111.044261 L118.439354,107.963872 L116.890377,110.744116 C116.512029,111.42321 115.930155,111.969848 115.224717,112.30891 C113.338678,113.215417 111.066127,112.439332 110.148832,110.575474 L106.47136,103.103197 C106.429673,103.018494 106.372737,102.941996 106.303333,102.877441 C106.003978,102.599001 105.541897,102.59777 105.24129,102.864044 L100.250283,111.163658 C99.8915765,111.760156 99.3725487,112.246693 98.750867,112.569214 C96.8939121,113.532577 94.5982981,112.825883 93.6234696,110.990767 L90.032853,104.231427 C89.9341792,104.045674 89.7898165,103.887428 89.6130486,103.771252 C89.0309335,103.388672 88.2452024,103.544877 87.858069,104.120146 L82.3199672,112.349603 C81.9328338,112.924872 81.1471027,113.081077 80.5649876,112.698497 C79.9828725,112.315916 79.8248087,111.539426 80.2119421,110.964157 L85.7500438,102.734699 C86.9114441,101.008892 89.2686375,100.540278 91.0149827,101.688019 C91.5452866,102.036548 91.9783745,102.511284 92.2743958,103.068544 L95.8650125,109.827884 C96.1899553,110.439589 96.95516,110.675154 97.5741449,110.354033 C97.7813722,110.246526 97.9543814,110.084347 98.0739501,109.885515 L107.051719,94.95626 C108.123169,93.174531 110.453317,92.588521 112.25625,93.6473701 C112.802683,93.9682862 113.25886,94.4196208 113.582962,94.9599991 L118.358346,102.92204 Z M119.856593,105.420082 L122.464704,109.76861 C122.821158,110.362928 123.597644,110.559154 124.199035,110.206893 C124.37353,110.104684 124.520613,109.96253 124.627897,109.792406 L129.80283,101.586321 L127.010903,96.561871 C126.895318,96.3538594 126.722244,96.1826305 126.511886,96.0681727 C125.899482,95.7349577 125.129691,95.9554469 124.79251,96.5606493 L119.856593,105.420082 Z M150.924819,89.5209266 L146.577259,83.0605793 C146.4772,82.9118941 146.34609,82.7861017 146.192742,82.6916587 C145.599435,82.3262553 144.818721,82.5053513 144.448969,83.0916809 L132.73546,101.666229 L137.061215,109.451009 C137.397713,110.056583 138.167255,110.27792 138.780035,109.945379 C138.982856,109.835313 139.151269,109.672413 139.266968,109.474383 L150.924819,89.5209266 Z M116.941106,105.46583 L111.405133,96.2356502 C111.297099,96.0555241 111.14504,95.9050793 110.962895,95.7981072 C110.361918,95.4451575 109.585202,95.6404942 109.228052,96.2344038 L106.772055,100.318513 C107.23068,100.462543 107.664615,100.707888 108.038454,101.055608 C108.331538,101.328215 108.571974,101.651258 108.74801,102.008946 L112.425482,109.481223 C112.731247,110.102509 113.488764,110.361204 114.117443,110.059035 C114.352589,109.946015 114.546547,109.763802 114.672664,109.537437 L116.941106,105.46583 Z" id="logo"></path>
        </g>
    </g>
</svg>