<?xml version="1.0" encoding="UTF-8"?>
<svg width="30px" height="30px" viewBox="0 0 30 30" version="1.1" xmlns="http://www.w3.org/2000/svg" xmlns:xlink="http://www.w3.org/1999/xlink">
    <!-- Generator: Sketch 64 (93537) - https://sketch.com -->
    <title>logo</title>
    <desc>Created with Sketch.</desc>
    <g id="Page-1" stroke="none" stroke-width="1" fill="none" fill-rule="evenodd">
        <g id="home" transform="translate(-30.000000, -30.000000)" fill="#FBFF58" fill-rule="nonzero">
            <g id="navbar" transform="translate(30.000000, 30.000000)">
                <g id="header">
                    <path d="M15,0 C23.2842712,0 30,6.71572875 30,15 C30,15.3017383 29.9910907,15.6013956 29.9735207,15.8987234 C29.9913565,16.1737252 30,16.4512378 30,16.7307692 C30,20.9798614 28.0027964,24.7624817 24.8959261,27.1910931 C24.793792,27.2707948 24.6905299,27.3492439 24.5859047,27.4259431 C22.3868364,29.0440685 19.6704377,30 16.7307692,30 C16.4512378,30 16.1737252,29.9913565 15.898484,29.9743221 C15.6013956,29.9910907 15.3017383,30 15,30 C6.71572875,30 0,23.2842712 0,15 C0,11.1902027 3.45284227,9.08871918 5.85446211,6.48473159 L5.96454327,6.36418269 C8.70948749,3.32742369 10.5841383,0 15,0 Z M16.7307692,4.23076923 C14.9045834,4.23076923 13.9425179,4.93692839 12.5583351,6.95970813 L11.5821077,8.41329631 C11.5503592,8.45974728 11.5224832,8.50024197 11.4997263,8.53289301 C11.0781799,9.13771855 10.6925466,9.63586197 10.2746816,10.0981502 L10.1462041,10.2377233 C9.61028863,10.8090318 9.05301743,11.2649039 7.95140637,12.0792405 L7.38121173,12.4997276 C4.99364736,14.2765904 4.23076923,15.2062349 4.23076923,16.7307692 C4.23076923,22.6944628 8.40711467,27.6827186 13.9946765,28.9304077 C9.64416267,27.3431828 6.53846154,23.1688945 6.53846154,18.2692308 C6.53846154,15.3431261 12.411873,15.1981103 14.2307692,13.1858474 C16.3070732,10.8888117 14.5444123,6.92307692 17.8846154,6.92307692 C23.6278082,6.92307692 28.3743639,11.1901877 29.1268299,16.7269565 C29.1601598,16.4533137 29.1855511,16.1766194 29.2029107,15.897749 C28.7745491,9.38235118 23.3542674,4.23076923 16.7307692,4.23076923 Z M17.8846154,7.69230769 C16.8209023,7.69230769 16.5591665,8.03015364 16.2860355,9.6479346 L16.1550778,10.4554001 C16.1170841,10.6819207 16.0912999,10.8160226 16.0504277,11.010473 C15.8152173,12.1294907 15.4527584,12.9810886 14.8014243,13.7016658 C14.1082309,14.4685526 13.279028,14.8854735 11.3114372,15.6107945 L10.6226523,15.8628725 C8.12625651,16.7879627 7.30769231,17.3513915 7.30769231,18.2692308 C7.30769231,24.1107041 12.0431421,28.8461538 17.8846154,28.8461538 C18.0391784,28.8461538 18.192967,28.8428385 18.3459141,28.8362751 C18.8064899,28.7242245 19.2585241,28.5907766 19.7006015,28.4361276 C19.4822292,28.4531136 19.2613292,28.4615385 19.0384615,28.4615385 C14.2590743,28.4615385 10.3846154,24.5870796 10.3846154,19.8076923 C10.3846154,15.3634083 16.2862339,18.6501614 17.6735276,17.1153846 C19.2571493,15.3634083 16.490849,11.1538462 19.0384615,11.1538462 C23.8178488,11.1538462 27.6923077,15.028305 27.6923077,19.8076923 C27.6923077,20.5430931 27.600577,21.2570691 27.4279334,21.9388023 C27.7675862,21.3308771 28.0645041,20.6952669 28.3139042,20.0363032 C28.4112149,19.4618397 28.4615385,18.8714121 28.4615385,18.2692308 C28.4615385,12.4277575 23.7260887,7.69230769 17.8846154,7.69230769 Z M15,0.769230769 C12.4950607,0.769230769 10.9365031,1.76742721 8.66359896,4.39572558 L7.19466914,6.12961067 L6.92199898,6.44451353 C6.83357881,6.54567172 6.74729777,6.64337541 6.66216357,6.73868939 L6.53519838,6.88000119 C6.07729011,7.38658964 5.6665204,7.79396085 4.8630562,8.55272563 L4.58540901,8.81429008 C1.70061568,11.527852 0.769230769,12.8532278 0.769230769,15 C0.769230769,21.3927096 4.98442283,26.8009084 10.7870351,28.5968245 C6.44293838,26.4174795 3.46153846,21.922296 3.46153846,16.7307692 C3.46153846,13.3087146 7.57684273,11.9356562 9.70402644,9.58233173 C12.1322463,6.895968 12.8244301,3.46153846 16.7307692,3.46153846 C21.8916099,3.46153846 26.3643149,6.40779762 28.5586564,10.7100882 L28.5965146,10.7860339 C26.8002863,4.98393795 21.392342,0.769230769 15,0.769230769 Z M19.0384615,11.9230769 C18.7501543,11.9230769 18.7315673,11.9381805 18.6961365,12.1183372 L18.6845189,12.186493 C18.6459037,12.4537726 18.6759408,12.8021396 18.7947706,13.6423196 L18.8727662,14.2029259 C18.882539,14.2781173 18.8912199,14.3484915 18.8996794,14.4209809 C19.0693299,15.8747172 18.9448311,16.8560689 18.2441828,17.6312031 C17.5649505,18.3826445 16.8418829,18.4367073 14.7363277,18.2404131 L14.1080907,18.1822299 L13.8718981,18.1633782 C11.8377537,18.0140215 11.1782439,18.3274187 11.1545152,19.7272898 L11.1538462,19.8076923 C11.1538462,24.1622451 14.6839087,27.6923077 19.0384615,27.6923077 C23.3930144,27.6923077 26.9230769,24.1622451 26.9230769,19.8076923 C26.9230769,15.4975737 23.4646889,11.9952049 19.1715038,11.9241767 L19.0384615,11.9230769 Z" id="logo" transform="translate(15.000000, 15.000000) scale(-1, -1) translate(-15.000000, -15.000000) "></path>
                </g>
            </g>
        </g>
    </g>
</svg>