<?xml version="1.0" encoding="UTF-8"?>
<svg width="500px" height="500px" viewBox="0 0 500 500" version="1.1" xmlns="http://www.w3.org/2000/svg" xmlns:xlink="http://www.w3.org/1999/xlink">
    <!-- Generator: Sketch 64 (93537) - https://sketch.com -->
    <title>logo_pk</title>
    <desc>Created with Sketch.</desc>
    <g id="logo_pk" stroke="none" stroke-width="1" fill="none" fill-rule="evenodd">
        <g id="Group">
            <rect id="Rectangle" fill="#010101" x="0" y="0" width="500" height="500" rx="50"></rect>
            <path d="M194.815789,116 L195.837434,116.00331 C214.527892,116.124678 231.035297,119.583669 245.359649,126.380282 C259.944444,133.300469 271.197368,143.114554 279.118421,155.822535 C287.039474,168.530516 291,183.314554 291,200.174648 C291,202.877283 290.910294,205.522439 290.730883,208.110116 L290.397774,269.161072 L351.910506,195.071786 L422.11284,195.071786 L353.420233,270.265215 L424,384 L356.439689,384 L311.525292,307.673001 L290.766537,329.966531 L290.766537,384 L230,384 L230.001017,281.965884 C219.041039,285.064684 206.809706,286.614085 193.307018,286.614085 L193.307018,286.614085 L139.745614,286.614085 L139.745614,384 L76,384 L76,116 L194.815789,116 Z M179.350877,162.050704 L139.745614,162.050704 L139.745614,242.073239 L179.350877,242.073239 C193.432749,242.073239 204.434211,238.550235 212.355263,231.504225 C220.276316,224.458216 224.236842,214.644131 224.236842,202.061972 C224.236842,189.479812 220.339181,179.665728 212.54386,172.619718 C204.748538,165.573709 193.684211,162.050704 179.350877,162.050704 L179.350877,162.050704 Z" id="Combined-Shape" fill="#FFFFFF" fill-rule="nonzero"></path>
        </g>
    </g>
</svg>