<svg width="200" height="200" viewBox="0 0 200 200" fill="none" xmlns="http://www.w3.org/2000/svg">
<path fill-rule="evenodd" clip-rule="evenodd" d="M20 0C8.95428 0 0 8.95435 0 20V180C0 191.046 8.95428 200 20 200H180C191.046 200 200 191.046 200 180V20C200 8.95435 191.046 0 180 0H20ZM100.349 150.62C106.599 154.514 112.86 158.414 119.345 162.036C120.146 162.437 120.938 162.84 121.724 163.24C123.608 164.198 125.464 165.143 127.352 166.016C132.746 168.509 138.405 170.08 144.322 170.688C147.711 171.037 156.206 171.517 159.934 169.467C163.663 167.417 165.64 163.1 164.814 158.961C164.013 154.95 161.586 152.299 157.962 150.729C152.939 148.551 148.035 146.178 143.691 142.787C141.531 141.101 139.42 139.354 137.65 137.294C137.682 137.227 137.704 137.172 137.722 137.126C137.752 137.051 137.771 137.003 137.806 136.976L137.885 136.915C138.274 136.615 138.664 136.314 139.067 136.033C144.412 132.322 148.932 127.78 152.586 122.391C160.462 110.773 163.608 97.9222 162.337 83.9692C161.632 76.2373 159.325 68.9432 155.647 62.1533C150.307 52.2917 142.843 44.3846 133.21 38.5961C122.864 32.3788 111.713 29.0137 99.6122 29.0089C91.6773 29.0057 83.7424 29.0057 75.8074 29.0057C66.1586 29.0057 56.5097 29.0056 46.8608 29C45.7659 28.9994 44.6868 29.0813 43.6089 29.2616C39.3463 29.9742 36.0436 33.8014 36.0382 38.1179C36.0191 53.1322 36.0126 68.1466 36.0145 83.161C36.015 87.4009 37.8417 89.2087 42.0878 89.212C48.6784 89.217 55.2691 89.2194 61.8598 89.2217C67.8809 89.2239 73.902 89.2261 79.9232 89.2302C83.7711 89.2329 85.0899 90.1614 86.438 93.7755C86.4748 93.8739 86.5111 93.9725 86.5474 94.0712C86.6652 94.391 86.783 94.7109 86.9146 95.0249C89.6551 101.562 95.6655 105.146 102.692 104.437C112.331 103.463 118.633 93.8129 115.677 84.5524C113.498 77.7241 107.06 72.9611 99.6813 72.899C93.5434 72.8474 87.4052 72.8513 81.2668 72.8551C78.1887 72.8571 75.1106 72.859 72.0325 72.854C70.4057 72.8513 69.9276 72.3767 69.922 70.7584C69.9124 67.9585 69.9073 65.1581 69.9423 62.3584C69.9854 58.903 71.7662 57.1205 75.2049 57.1101C83.2489 57.0856 91.293 57.0748 99.337 57.0909C100.868 57.094 102.398 57.139 103.926 57.3744C112.978 58.7681 120.625 62.744 126.167 70.1394C133.906 80.4662 135.384 91.6976 129.609 103.391C124.797 113.135 116.657 118.578 105.964 120.134C103.669 120.468 101.355 120.413 99.0427 120.359C98.0795 120.336 97.1165 120.313 96.1551 120.318C89.1218 120.358 82.0881 120.344 75.0547 120.321C72.1672 120.312 69.915 117.829 70.029 114.936C70.0896 113.396 70.0995 111.85 70.0449 110.31C69.9166 106.696 67.5647 104.531 64.04 104.625C56.6457 104.821 49.2493 104.804 41.8553 104.628C37.9792 104.536 35.8541 106.592 36.0242 110.466C36.0353 110.718 36.0343 110.972 36.0333 111.225C36.033 111.297 36.0327 111.368 36.0327 111.439L36.0292 128.788C36.0272 138.426 36.0252 148.064 36.0237 157.702C36.0236 158.171 36.0178 158.641 36.0119 159.111C35.9979 160.225 35.9839 161.338 36.0474 162.448C36.3003 166.868 40.0886 170.765 44.3425 170.831C50.2833 170.923 56.23 170.992 62.1674 170.826C66.9462 170.692 70.2175 166.98 69.9443 162.771C69.8591 161.459 69.8843 160.139 69.9094 158.819C69.9191 158.311 69.9288 157.802 69.9321 157.294C69.9681 151.861 69.9974 146.429 70.0576 140.997C70.0867 138.376 71.5 136.585 73.7684 136.357C75.6353 136.169 77.4127 136.334 79.1094 137.422C83.3555 140.142 87.653 142.782 91.9501 145.422C92.5817 145.81 93.2134 146.198 93.8448 146.586C96.0175 147.922 98.1826 149.271 100.349 150.62Z" fill="#0066FF"/>
</svg>
