<?xml version="1.0" encoding="UTF-8"?>
<svg width="79px" height="90px" viewBox="0 0 79 90" version="1.1" xmlns="http://www.w3.org/2000/svg" xmlns:xlink="http://www.w3.org/1999/xlink">
    <!-- Generator: Sketch 61.2 (89653) - https://sketch.com -->
    <title>notion-icons__book-solid</title>
    <desc>Created with Sketch.</desc>
    <g id="Page-1" stroke="none" stroke-width="1" fill="none" fill-rule="evenodd">
        <g id="Artboard" transform="translate(-347.000000, -149.000000)" fill="#FFFFFF" fill-rule="nonzero">
            <g id="book-solid" transform="translate(347.000000, 149.000000)">
                <path d="M78.75,63.28125 L78.75,4.21875 C78.75,1.88085937 76.8691406,0 74.53125,0 L16.875,0 C7.55859375,0 0,7.55859375 0,16.875 L0,73.125 C0,82.4414062 7.55859375,90 16.875,90 L74.53125,90 C76.8691406,90 78.75,88.1191406 78.75,85.78125 L78.75,82.96875 C78.75,81.6503906 78.1347656,80.4550781 77.1855469,79.6816406 C76.4472656,76.9746094 76.4472656,69.2578125 77.1855469,66.5507812 C78.1347656,65.7949219 78.75,64.5996094 78.75,63.28125 Z M22.5,23.5546875 C22.5,22.9746094 22.9746094,22.5 23.5546875,22.5 L60.8203125,22.5 C61.4003906,22.5 61.875,22.9746094 61.875,23.5546875 L61.875,27.0703125 C61.875,27.6503906 61.4003906,28.125 60.8203125,28.125 L23.5546875,28.125 C22.9746094,28.125 22.5,27.6503906 22.5,27.0703125 L22.5,23.5546875 Z M22.5,34.8046875 C22.5,34.2246094 22.9746094,33.75 23.5546875,33.75 L60.8203125,33.75 C61.4003906,33.75 61.875,34.2246094 61.875,34.8046875 L61.875,38.3203125 C61.875,38.9003906 61.4003906,39.375 60.8203125,39.375 L23.5546875,39.375 C22.9746094,39.375 22.5,38.9003906 22.5,38.3203125 L22.5,34.8046875 Z M67.0429687,78.75 L16.875,78.75 C13.7636719,78.75 11.25,76.2363281 11.25,73.125 C11.25,70.03125 13.78125,67.5 16.875,67.5 L67.0429687,67.5 C66.7089844,70.5058594 66.7089844,75.7441406 67.0429687,78.75 Z" id="Shape"></path>
            </g>
        </g>
    </g>
</svg>