<?xml version="1.0" encoding="UTF-8"?>
<svg width="80px" height="80px" viewBox="0 0 80 80" version="1.1" xmlns="http://www.w3.org/2000/svg" xmlns:xlink="http://www.w3.org/1999/xlink">
    <!-- Generator: Sketch 61.2 (89653) - https://sketch.com -->
    <title>notion-icon__globe-americas-solid</title>
    <desc>Created with Sketch.</desc>
    <g id="Page-1" stroke="none" stroke-width="1" fill="none" fill-rule="evenodd">
        <g id="Artboard" transform="translate(-122.000000, -35.000000)" fill="#FFFFFF" fill-rule="nonzero">
            <g id="globe-americas-solid" transform="translate(122.000000, 35.000000)">
                <path d="M40,0 C17.9080645,0 0,17.9080645 0,40 C0,62.0919355 17.9080645,80 40,80 C62.0919355,80 80,62.0919355 80,40 C80,17.9080645 62.0919355,0 40,0 Z M53.2725806,57.6774194 C52.6435484,58.3032258 51.983871,58.9596774 51.4483871,59.4967742 C50.966129,59.9806452 50.6258065,60.5774194 50.4532258,61.2241935 C50.2096774,62.1370968 50.0129032,63.0596774 49.683871,63.9451613 L46.8790323,71.5016129 C44.6596774,71.9854839 42.3629032,72.2580645 40,72.2580645 L40,67.8419355 C40.2725806,65.8064516 38.7677419,61.9935484 36.35,59.5758065 C35.3822581,58.6080645 34.8387097,57.2951613 34.8387097,55.9258065 L34.8387097,50.7629032 C34.8387097,48.8854839 33.8274194,47.1596774 32.183871,46.2516129 C29.866129,44.9693548 26.5693548,43.1774194 24.3112903,42.0403226 C22.4596774,41.1080645 20.7467742,39.9209677 19.2064516,38.5322581 L19.0774194,38.416129 C17.9759087,37.4218334 16.9979244,36.2987219 16.1645161,35.0709677 C14.6516129,32.85 12.1870968,29.1967742 10.5854839,26.8225806 C13.8870968,19.483871 19.8370968,13.5903226 27.2306452,10.3887097 L31.1032258,12.3258065 C32.8193548,13.183871 34.8387097,11.9370968 34.8387097,10.0177419 L34.8387097,8.19516129 C36.1274194,7.98709677 37.4387097,7.85483871 38.7725806,7.80483871 L43.3370968,12.3693548 C44.3451613,13.3774194 44.3451613,15.0112903 43.3370968,16.0193548 L42.5806452,16.7741935 L40.9129032,18.4419355 C40.4096774,18.9451613 40.4096774,19.7629032 40.9129032,20.266129 L41.6693548,21.0225806 C42.1725806,21.5258065 42.1725806,22.3435484 41.6693548,22.8467742 L40.3790323,24.1370968 C40.1367623,24.3788973 39.8084187,24.5146436 39.466129,24.5145161 L38.016129,24.5145161 C37.6806452,24.5145161 37.3580645,24.6451613 37.116129,24.8806452 L35.516129,26.4370968 C35.1137042,26.8289725 35.0106842,27.436008 35.2612903,27.9387097 L37.7758065,32.9693548 C38.2048387,33.8274194 37.5806452,34.8370968 36.6225806,34.8370968 L35.7129032,34.8370968 C35.4016129,34.8370968 35.1016129,34.7241935 34.8677419,34.5209677 L33.3709677,33.2209677 C32.6818701,32.6231568 31.7285653,32.4331089 30.8629032,32.7209677 L25.8354839,34.3967742 C25.0483238,34.659244 24.5174924,35.3960407 24.5177419,36.2258065 C24.5177419,36.9564516 24.9306452,37.6225806 25.583871,37.95 L27.3709677,38.8435484 C28.8887097,39.6032258 30.5629032,39.9983871 32.2596774,39.9983871 C33.9564516,39.9983871 35.9032258,44.4 37.4209677,45.1596774 L48.1870968,45.1596774 C49.5564516,45.1596774 50.8677419,45.7032258 51.8370968,46.6709677 L54.0451613,48.8790323 C54.9676106,49.8018342 55.4854839,51.0532749 55.4854839,52.3580645 C55.4848145,54.3549549 54.6884436,56.2692632 53.2725806,57.6774194 Z M67.2580645,42.9435484 C66.3241935,42.7096774 65.5096774,42.1370968 64.9758065,41.3354839 L62.0758065,36.9854839 C61.2080676,35.6858305 61.2080676,33.9915888 62.0758065,32.6919355 L65.2354839,27.9532258 C65.6096774,27.3935484 66.1225806,26.9387097 66.7258065,26.6387097 L68.8193548,25.5919355 C71,29.933871 72.2580645,34.8177419 72.2580645,40 C72.2580645,41.3983871 72.1387097,42.7677419 71.9645161,44.1193548 L67.2580645,42.9435484 Z" id="Shape"></path>
            </g>
        </g>
    </g>
</svg>