<?xml version="1.0" encoding="UTF-8"?>
<svg width="80px" height="80px" viewBox="0 0 80 80" version="1.1" xmlns="http://www.w3.org/2000/svg" xmlns:xlink="http://www.w3.org/1999/xlink">
    <!-- Generator: Sketch 61.2 (89653) - https://sketch.com -->
    <title>notion_icon__drafting-compass-solid</title>
    <desc>Created with Sketch.</desc>
    <g id="Page-1" stroke="none" stroke-width="1" fill="none" fill-rule="evenodd">
        <g id="Artboard" transform="translate(-577.000000, -36.000000)" fill="#FFFFFF" fill-rule="nonzero">
            <g id="drafting-compass-solid" transform="translate(577.000000, 36.000000)">
                <path d="M71.4092072,53.8166761 C67.4950683,56.9933007 63.1856091,59.6261646 58.5120803,61.4808883 L67.0091213,76.1983632 L75.4389734,79.7984336 C76.9718159,80.4531339 78.7030997,79.4531143 78.9031036,77.7983945 L80,68.6966542 L71.4092072,53.8166761 L71.4092072,53.8166761 Z M78.0483994,39.0413875 C78.8077892,37.8429266 78.3437177,36.2303951 77.1030684,35.5428817 L72.7170453,33.1100217 C71.5482724,32.4615715 70.1216821,32.8818922 69.3951054,34.0037891 C62.9715424,43.9305455 51.9150765,50.0009766 40.0007813,50.0009766 C36.2616457,50.0009766 32.6209496,49.3369011 29.1552569,48.1993789 L39.6804625,29.9677728 C39.7898396,29.9708979 39.8898416,30.0005859 39.9992187,30.0005859 C40.1085959,30.0005859 40.2101604,29.9708979 40.317975,29.9677728 L48.3009434,43.7961679 C53.1807262,42.3961405 57.6073751,39.7726518 61.209008,36.1522686 L53.1166624,22.1348073 C54.2807477,20.0050782 55.0010742,17.5987812 55.0010742,15.000293 C55.0010742,6.71575617 48.2853181,-2.13162821e-14 40.0007813,-2.13162821e-14 C31.7162445,-2.13162821e-14 25.0004883,6.71575617 25.0004883,15.000293 C25.0004883,17.5987812 25.7208149,20.0050782 26.8833376,22.1348073 L16.2112541,40.6211059 C14.2502783,38.8070079 12.467431,36.7788433 10.9486513,34.5272369 C10.2001992,33.4178402 8.76579621,33.0240825 7.60796109,33.6944081 L3.27193891,36.2053946 C2.04535245,36.9147835 1.61096896,38.5335651 2.39067169,39.7164007 C4.82353171,43.4102229 7.81109006,46.6243481 11.1377175,49.407215 L0,68.6982168 L1.09689642,77.799957 C1.29690033,79.4546768 3.02818414,80.4546964 4.56102658,79.7999961 L12.9908787,76.1999258 L24.0535948,57.038614 C29.0833805,58.9511514 34.4725483,60.0011719 40.0007813,60.0011719 C55.477646,60.0011719 69.8263638,52.0307037 78.0483994,39.0413875 Z M40.0007813,10.0001953 C42.7617727,10.0001953 45.0008789,12.2393015 45.0008789,15.000293 C45.0008789,17.7612844 42.7617727,20.0003906 40.0007813,20.0003906 C37.2397898,20.0003906 35.0006836,17.7612844 35.0006836,15.000293 C35.0006836,12.2393015 37.2397898,10.0001953 40.0007813,10.0001953 Z" id="Shape"></path>
            </g>
        </g>
    </g>
</svg>