<?xml version="1.0" encoding="UTF-8"?>
<svg width="62px" height="90px" viewBox="0 0 62 90" version="1.1" xmlns="http://www.w3.org/2000/svg" xmlns:xlink="http://www.w3.org/1999/xlink">
    <!-- Generator: Sketch 61.2 (89653) - https://sketch.com -->
    <title>notion-icon__lightbulb-regular</title>
    <desc>Created with Sketch.</desc>
    <g id="Page-1" stroke="none" stroke-width="1" fill="none" fill-rule="evenodd">
        <g id="Artboard" transform="translate(-30.000000, -30.000000)" fill="#FFFFFF" fill-rule="nonzero">
            <g id="lightbulb-regular" transform="translate(30.000000, 30.000000)">
                <path d="M30.9375,14.0625 C21.6316406,14.0625 14.0625,21.6316406 14.0625,30.9375 C14.0625,32.4914062 15.3210937,33.75 16.875,33.75 C18.4289063,33.75 19.6875,32.4914062 19.6875,30.9375 C19.6875,24.7324219 24.7359375,19.6875 30.9375,19.6875 C32.4914062,19.6875 33.75,18.4289063 33.75,16.875 C33.75,15.3210937 32.4914062,14.0625 30.9375,14.0625 Z M16.8855469,80.7134766 C16.8855469,81.2671875 17.0490234,81.8068359 17.3566406,82.2673828 L21.6650391,88.7431641 C22.1871094,89.5271484 23.0660156,89.9982422 24.0064453,89.9982422 L37.8667969,89.9982422 C38.8089844,89.9982422 39.6878906,89.5271484 40.2082031,88.7431641 L44.5166016,82.2673828 C44.8224609,81.8068359 44.9859375,81.2654297 44.9876953,80.7134766 L44.9964844,73.1232422 L16.8785156,73.1232422 L16.8855469,80.7134766 Z M30.9375,0 C12.9585938,0 0,14.5845703 0,30.9375 C0,38.7369141 2.89160156,45.8525391 7.65703125,51.2894531 C10.5820312,54.6275391 15.1699219,61.6253906 16.8714844,67.4894531 L16.8714844,67.5 L25.3089844,67.5 L25.3089844,67.4789062 C25.3072266,66.6404297 25.1824219,65.8072266 24.9310547,65.0056641 C23.9484375,61.875 20.9197266,53.6203125 14.0027344,45.7277344 C10.3921875,41.6091797 8.46210938,36.3849609 8.44628906,30.9375 C8.41113281,17.9929687 18.9351563,8.4375 30.9375,8.4375 C43.3441406,8.4375 53.4375,18.5308594 53.4375,30.9375 C53.4375,36.3814453 51.4617187,41.6337891 47.8740234,45.7277344 C40.9992187,53.5693359 37.9564453,61.8064453 36.9580078,64.96875 C36.7003275,65.7817962 36.5687229,66.6295196 36.5677734,67.4824219 L36.5677734,67.5 L45.0052734,67.5 L45.0052734,67.4912109 C46.7068359,61.6253906 51.2947266,54.6275391 54.2197266,51.2912109 C58.9833984,45.8525391 61.875,38.7369141 61.875,30.9375 C61.875,13.8515625 48.0234375,0 30.9375,0 Z" id="Shape"></path>
            </g>
        </g>
    </g>
</svg>