<?xml version="1.0" encoding="UTF-8"?>
<svg width="84px" height="65px" viewBox="0 0 84 65" version="1.1" xmlns="http://www.w3.org/2000/svg" xmlns:xlink="http://www.w3.org/1999/xlink">
    <!-- Generator: Sketch 61.2 (89653) - https://sketch.com -->
    <title>notion-icons__glasses-solid</title>
    <desc>Created with Sketch.</desc>
    <g id="Page-1" stroke="none" stroke-width="1" fill="none" fill-rule="evenodd">
        <g id="Artboard" transform="translate(-260.000000, -289.000000)" fill="#FFFFFF" fill-rule="nonzero">
            <g id="glasses-solid" transform="translate(260.000000, 289.000000)">
                <path d="M83.110245,36.1003341 L76.5451002,9.79487751 C75.6895323,6.36391982 73.4195991,3.41792873 70.3201559,1.71547884 C67.2163697,0.0173719376 63.52049,-0.327171492 60.15902,0.799109131 L57.9513363,1.53452116 C56.7367483,1.93841871 56.0809577,3.25144766 56.4863029,4.46458797 L57.2188196,6.66213808 C57.6227171,7.8752784 58.9342984,8.53106904 60.1474388,8.12717149 L62.0554566,7.49164811 C63.6290646,6.96759465 65.385078,6.97483296 66.855902,7.74209354 C68.3455457,8.51948775 69.3994432,9.84988864 69.8047884,11.4799555 L75.3724944,33.7478842 C72.1601336,32.7620267 68.164588,31.944098 63.6174833,31.944098 C58.5839644,31.944098 52.9076837,32.9603563 46.9910913,35.8151448 L36.3971047,35.8151448 C30.4805122,32.957461 24.8042316,31.9426503 19.769265,31.9426503 C15.2207127,31.9426503 11.225167,32.7605791 8.01280624,33.7464365 L13.5805122,11.4770601 C13.9844098,9.84844098 15.0412027,8.51659243 16.5308463,7.74064588 C18.0016704,6.9733853 19.7562361,6.96614699 21.3298441,7.49020045 L23.2364143,8.12572383 C24.4495546,8.52962138 25.7611359,7.87383073 26.1650334,6.66069042 L26.8975501,4.46314031 C27.3028953,3.25 26.6471047,1.93697105 25.4325167,1.5330735 L23.224833,0.79766147 C19.863363,-0.328619154 16.1674833,0.0144766147 13.0636971,1.71403118 C9.9642539,3.41792873 7.69432071,6.36247216 6.83875278,9.79198218 L0.275055679,36.1003341 C0.0925488287,36.8338484 -1.0321291e-15,37.5868834 -1.0321291e-15,38.3427617 L-1.0321291e-15,48.5125835 C-1.0321291e-15,57.6183742 7.46703786,65 16.6770601,65 L22.0507795,65 C30.7772829,65 38.0286192,58.3494432 38.6815145,49.7459911 L39.1056793,44.1536748 L44.281069,44.1536748 L44.7052339,49.7459911 C45.3566815,58.3494432 52.6080178,65 61.3345212,65 L66.7082405,65 C75.9182628,65 83.3853007,57.6183742 83.3853007,48.5140312 L83.3853007,38.3442094 C83.3853007,37.5870824 83.2926503,36.8342984 83.110245,36.1003341 Z M29.442539,49.0453229 C29.1573497,52.7962138 25.910245,55.7349666 22.0507795,55.7349666 L16.6770601,55.7349666 C12.5903118,55.7349666 9.26503341,52.4951002 9.26503341,48.5125835 L9.26503341,43.0780624 C11.888196,42.1385301 15.5507795,41.2076837 19.7721604,41.2076837 C23.2262806,41.2076837 26.6138085,41.8345212 29.895657,43.0780624 L29.442539,49.0453229 L29.442539,49.0453229 Z M74.1202673,48.5140312 C74.1202673,52.4965479 70.7949889,55.7349666 66.7082405,55.7349666 L61.3345212,55.7349666 C57.473608,55.7349666 54.2265033,52.7962138 53.9427617,49.0453229 L53.4896437,43.0780624 C56.7714922,41.8345212 60.1604677,41.2076837 63.6160356,41.2076837 C67.8316258,41.2076837 71.495657,42.1399777 74.1188196,43.07951 L74.1188196,48.5140312 L74.1202673,48.5140312 Z" id="Shape"></path>
            </g>
        </g>
    </g>
</svg>