<?xml version="1.0" encoding="UTF-8"?>
<svg width="75px" height="85px" viewBox="0 0 75 85" version="1.1" xmlns="http://www.w3.org/2000/svg" xmlns:xlink="http://www.w3.org/1999/xlink">
    <!-- Generator: Sketch 61.2 (89653) - https://sketch.com -->
    <title>notion-icon__user-astronaut-solid</title>
    <desc>Created with Sketch.</desc>
    <g id="Page-1" stroke="none" stroke-width="1" fill="none" fill-rule="evenodd">
        <g id="Artboard" transform="translate(-352.000000, -35.000000)" fill="#FFFFFF" fill-rule="nonzero">
            <g id="user-astronaut-solid" transform="translate(352.000000, 35.000000)">
                <path d="M11.0234375,37.1875 L13.2646484,37.1875 C17.3652344,46.5673828 26.6953125,53.125 37.5859375,53.125 C48.4765625,53.125 57.8066406,46.5673828 61.9072266,37.1875 L64.1484375,37.1875 C65.609375,37.1875 66.8046875,35.9921875 66.8046875,34.53125 L66.8046875,18.59375 C66.8046875,17.1328125 65.609375,15.9375 64.1484375,15.9375 L61.9072266,15.9375 C57.8066406,6.55761719 48.4765625,0 37.5859375,0 C26.6953125,0 17.3652344,6.55761719 13.2646484,15.9375 L11.0234375,15.9375 C9.5625,15.9375 8.3671875,17.1328125 8.3671875,18.59375 L8.3671875,34.53125 C8.3671875,35.9921875 9.5625,37.1875 11.0234375,37.1875 Z M17.6640625,22.578125 C17.6640625,18.9091797 21.2333984,15.9375 25.6328125,15.9375 L49.5390625,15.9375 C53.9384766,15.9375 57.5078125,18.9091797 57.5078125,22.578125 L57.5078125,26.5625 C57.5078125,35.3613281 50.3691406,42.5 41.5703125,42.5 L33.6015625,42.5 C24.8027344,42.5 17.6640625,35.3613281 17.6640625,26.5625 L17.6640625,22.578125 Z M29.6171875,34.53125 L31.609375,28.5546875 L37.5859375,26.5625 L31.609375,24.5703125 L29.6171875,18.59375 L27.625,24.5703125 L21.6484375,26.5625 L27.625,28.5546875 L29.6171875,34.53125 Z M54.7851563,53.3574219 C49.8212891,56.5615234 43.9277344,58.4375 37.5859375,58.4375 C31.2441406,58.4375 25.3505859,56.5615234 20.3867188,53.3574219 C9.18066406,54.5361328 0.3984375,63.9160156 0.3984375,75.4375 L0.3984375,77.03125 C0.3984375,81.4306641 3.96777344,85 8.3671875,85 L21.6484375,85 L21.6484375,74.375 C21.6484375,71.4365234 24.0224609,69.0625 26.9609375,69.0625 L48.2109375,69.0625 C51.1494141,69.0625 53.5234375,71.4365234 53.5234375,74.375 L53.5234375,85 L66.8046875,85 C71.2041016,85 74.7734375,81.4306641 74.7734375,77.03125 L74.7734375,75.4375 C74.7734375,63.9160156 65.9912109,54.5361328 54.7851563,53.3574219 Z M45.5546875,74.375 C44.09375,74.375 42.8984375,75.5703125 42.8984375,77.03125 C42.8984375,78.4921875 44.09375,79.6875 45.5546875,79.6875 C47.015625,79.6875 48.2109375,78.4921875 48.2109375,77.03125 C48.2109375,75.5703125 47.015625,74.375 45.5546875,74.375 Z M29.6171875,74.375 C28.15625,74.375 26.9609375,75.5703125 26.9609375,77.03125 L26.9609375,85 L32.2734375,85 L32.2734375,77.03125 C32.2734375,75.5703125 31.078125,74.375 29.6171875,74.375 Z" id="Shape"></path>
            </g>
        </g>
    </g>
</svg>