<?xml version="1.0" encoding="UTF-8"?>
<svg width="90px" height="72px" viewBox="0 0 90 72" version="1.1" xmlns="http://www.w3.org/2000/svg" xmlns:xlink="http://www.w3.org/1999/xlink">
    <!-- Generator: Sketch 61.2 (89653) - https://sketch.com -->
    <title>notion-icon__city-solid</title>
    <desc>Created with Sketch.</desc>
    <g id="Page-1" stroke="none" stroke-width="1" fill="none" fill-rule="evenodd">
        <g id="Artboard" transform="translate(-457.000000, -42.000000)" fill="#FFFFFF" fill-rule="nonzero">
            <g id="city-solid" transform="translate(457.000000, 42.000000)">
                <path d="M86.625,27 L67.5,27 L67.5,3.375 C67.5,1.5103125 65.9896875,0 64.125,0 L43.875,0 C42.0103125,0 40.5,1.5103125 40.5,3.375 L40.5,13.5 L31.5,13.5 L31.5,2.25 C31.5,1.006875 30.493125,0 29.25,0 L27,0 C25.756875,0 24.75,1.006875 24.75,2.25 L24.75,13.5 L15.75,13.5 L15.75,2.25 C15.75,1.006875 14.743125,0 13.5,0 L11.25,0 C10.006875,0 9,1.006875 9,2.25 L9,13.5 L3.375,13.5 C1.5103125,13.5 0,15.0103125 0,16.875 L0,67.5 C0,69.9848437 2.01515625,72 4.5,72 L85.5,72 C87.9848437,72 90,69.9848437 90,67.5 L90,30.375 C90,28.5103125 88.4882812,27 86.625,27 Z M18,56.8125 C18,57.7448438 17.2448438,58.5 16.3125,58.5 L10.6875,58.5 C9.75515625,58.5 9,57.7448438 9,56.8125 L9,51.1875 C9,50.2551562 9.75515625,49.5 10.6875,49.5 L16.3125,49.5 C17.2448438,49.5 18,50.2551562 18,51.1875 L18,56.8125 Z M18,43.3125 C18,44.2448438 17.2448438,45 16.3125,45 L10.6875,45 C9.75515625,45 9,44.2448438 9,43.3125 L9,37.6875 C9,36.7551562 9.75515625,36 10.6875,36 L16.3125,36 C17.2448438,36 18,36.7551562 18,37.6875 L18,43.3125 Z M18,29.8125 C18,30.7448438 17.2448438,31.5 16.3125,31.5 L10.6875,31.5 C9.75515625,31.5 9,30.7448438 9,29.8125 L9,24.1875 C9,23.2551562 9.75515625,22.5 10.6875,22.5 L16.3125,22.5 C17.2448438,22.5 18,23.2551562 18,24.1875 L18,29.8125 Z M36,56.8125 C36,57.7448438 35.2448438,58.5 34.3125,58.5 L28.6875,58.5 C27.7551562,58.5 27,57.7448438 27,56.8125 L27,51.1875 C27,50.2551562 27.7551562,49.5 28.6875,49.5 L34.3125,49.5 C35.2448438,49.5 36,50.2551562 36,51.1875 L36,56.8125 Z M36,43.3125 C36,44.2448438 35.2448438,45 34.3125,45 L28.6875,45 C27.7551562,45 27,44.2448438 27,43.3125 L27,37.6875 C27,36.7551562 27.7551562,36 28.6875,36 L34.3125,36 C35.2448438,36 36,36.7551562 36,37.6875 L36,43.3125 Z M36,29.8125 C36,30.7448438 35.2448438,31.5 34.3125,31.5 L28.6875,31.5 C27.7551562,31.5 27,30.7448438 27,29.8125 L27,24.1875 C27,23.2551562 27.7551562,22.5 28.6875,22.5 L34.3125,22.5 C35.2448438,22.5 36,23.2551562 36,24.1875 L36,29.8125 Z M58.5,43.3125 C58.5,44.2448438 57.7448438,45 56.8125,45 L51.1875,45 C50.2551562,45 49.5,44.2448438 49.5,43.3125 L49.5,37.6875 C49.5,36.7551562 50.2551562,36 51.1875,36 L56.8125,36 C57.7448438,36 58.5,36.7551562 58.5,37.6875 L58.5,43.3125 Z M58.5,29.8125 C58.5,30.7448438 57.7448438,31.5 56.8125,31.5 L51.1875,31.5 C50.2551562,31.5 49.5,30.7448438 49.5,29.8125 L49.5,24.1875 C49.5,23.2551562 50.2551562,22.5 51.1875,22.5 L56.8125,22.5 C57.7448438,22.5 58.5,23.2551562 58.5,24.1875 L58.5,29.8125 Z M58.5,16.3125 C58.5,17.2448438 57.7448438,18 56.8125,18 L51.1875,18 C50.2551562,18 49.5,17.2448438 49.5,16.3125 L49.5,10.6875 C49.5,9.75515625 50.2551562,9 51.1875,9 L56.8125,9 C57.7448438,9 58.5,9.75515625 58.5,10.6875 L58.5,16.3125 Z M81,56.8125 C81,57.7448438 80.2448438,58.5 79.3125,58.5 L73.6875,58.5 C72.7551562,58.5 72,57.7448438 72,56.8125 L72,51.1875 C72,50.2551562 72.7551562,49.5 73.6875,49.5 L79.3125,49.5 C80.2448438,49.5 81,50.2551562 81,51.1875 L81,56.8125 Z M81,43.3125 C81,44.2448438 80.2448438,45 79.3125,45 L73.6875,45 C72.7551562,45 72,44.2448438 72,43.3125 L72,37.6875 C72,36.7551562 72.7551562,36 73.6875,36 L79.3125,36 C80.2448438,36 81,36.7551562 81,37.6875 L81,43.3125 Z" id="Shape"></path>
            </g>
        </g>
    </g>
</svg>