<?xml version="1.0" encoding="UTF-8"?>
<svg width="80px" height="92px" viewBox="0 0 80 92" version="1.1" xmlns="http://www.w3.org/2000/svg" xmlns:xlink="http://www.w3.org/1999/xlink">
    <!-- Generator: Sketch 61.2 (89653) - https://sketch.com -->
    <title>notion-icons__calendar-check-regular</title>
    <desc>Created with Sketch.</desc>
    <g id="Page-1" stroke="none" stroke-width="1" fill="none" fill-rule="evenodd">
        <g id="Artboard" transform="translate(-456.000000, -148.000000)" fill="#FFFFFF" fill-rule="nonzero">
            <g id="calendar-check-regular" transform="translate(456.000000, 148.000000)">
                <path d="M71.4285714,11.4285714 L62.8571429,11.4285714 L62.8571429,2.14285714 C62.8571429,0.959464286 61.8976786,0 60.7142857,0 L53.5714286,0 C52.3880357,0 51.4285714,0.959464286 51.4285714,2.14285714 L51.4285714,11.4285714 L28.5714286,11.4285714 L28.5714286,2.14285714 C28.5714286,0.959464286 27.6119643,0 26.4285714,0 L19.2857143,0 C18.1023214,0 17.1428571,0.959464286 17.1428571,2.14285714 L17.1428571,11.4285714 L8.57142857,11.4285714 C3.8375,11.4285714 0,15.2660714 0,20 L0,82.8571429 C0,87.5910714 3.8375,91.4285714 8.57142857,91.4285714 L71.4285714,91.4285714 C76.1625,91.4285714 80,87.5910714 80,82.8571429 L80,20 C80,15.2660714 76.1625,11.4285714 71.4285714,11.4285714 Z M70.3571429,82.8571429 L9.64285714,82.8571429 C9.05112348,82.8571429 8.57142857,82.3774479 8.57142857,81.7857143 L8.57142857,28.5714286 L71.4285714,28.5714286 L71.4285714,81.7857143 C71.4285714,82.3774479 70.9488765,82.8571429 70.3571429,82.8571429 Z M60.9198214,47.0267857 L35.5075,72.2355357 C34.6673214,73.0689286 33.3105357,73.0635714 32.4769643,72.2233929 L19.0678571,58.7057143 C18.2344643,57.8655357 18.2398214,56.50875 19.08,55.6751786 L23.1369643,51.6508929 C23.9771429,50.8175 25.3339286,50.8228571 26.1673214,51.6632143 L34.0430357,59.6026786 L53.8773214,39.9275 C54.7175,39.0941071 56.0742857,39.0994643 56.9078571,39.9396429 L60.9321429,43.9964286 C61.7655357,44.8366071 61.76,46.1933929 60.9198214,47.0267857 Z" id="Shape"></path>
            </g>
        </g>
    </g>
</svg>