<?xml version="1.0" encoding="UTF-8"?>
<svg width="90px" height="63px" viewBox="0 0 90 63" version="1.1" xmlns="http://www.w3.org/2000/svg" xmlns:xlink="http://www.w3.org/1999/xlink">
    <!-- Generator: Sketch 61.2 (89653) - https://sketch.com -->
    <title>notion-icon__space-shuttle-solid</title>
    <desc>Created with Sketch.</desc>
    <g id="Page-1" stroke="none" stroke-width="1" fill="none" fill-rule="evenodd">
        <g id="Artboard" transform="translate(-232.000000, -44.000000)" fill="#FFFFFF" fill-rule="nonzero">
            <g id="space-shuttle-solid" transform="translate(232.000000, 44.000000)">
                <path d="M83.3349375,24.7843125 C78.7127344,22.6175625 72.5311406,21.375 66.375,21.375 L26.2022344,21.375 C25.5058594,20.4532031 24.7137187,19.6905937 23.8509844,19.125 L52.875,19.125 C32.2252031,14.8706719 30.8535469,0 13.5004219,0 L13.5,0 L13.5,18 L11.25,18 L11.25,0 C7.52203125,0 4.5,4.02946875 4.5,9 L4.5,18 C1.23792188,18 0,19.41075 0,21.375 L0,27 C0,28.9663594 1.24017188,30.375 4.5,30.375 L4.5,32.625 C1.23792188,32.625 0,34.03575 0,36 L0,41.625 C0,43.5913594 1.24017188,45 4.5,45 L4.5,54 C4.5,58.9705312 7.52203125,63 11.25,63 L11.25,45 L13.5,45 L13.5,63 L13.5004219,63 C30.8535469,63 32.2252031,48.1293281 52.875,43.875 L23.8508437,43.875 C24.7135781,43.3094062 25.5057187,42.5467969 26.2020937,41.625 L66.375,41.625 C72.5311406,41.625 78.7127344,40.3824375 83.3349375,38.2156875 C87.5084063,36.2594531 90,33.748875 90,31.5 C90,29.251125 87.5084063,26.7405469 83.3349375,24.7843125 Z M68.625,37.125 C68.0036797,37.125 67.5,36.6213203 67.5,36 L67.5,27 C67.5,26.3786797 68.0036797,25.875 68.625,25.875 C73.1122031,25.875 73.1168438,37.125 68.625,37.125 Z" id="Shape"></path>
            </g>
        </g>
    </g>
</svg>