<?xml version="1.0" encoding="UTF-8"?>
<svg width="99px" height="55px" viewBox="0 0 99 55" version="1.1" xmlns="http://www.w3.org/2000/svg" xmlns:xlink="http://www.w3.org/1999/xlink">
    <!-- Generator: Sketch 61.2 (89653) - https://sketch.com -->
    <title>notion-icons__fish-solid</title>
    <desc>Created with Sketch.</desc>
    <g id="Page-1" stroke="none" stroke-width="1" fill="none" fill-rule="evenodd">
        <g id="Artboard" transform="translate(-131.000000, -294.000000)" fill="#FFFFFF" fill-rule="nonzero">
            <g id="fish-solid" transform="translate(131.000000, 294.000000)">
                <path d="M56.2203125,0 C40.7567188,0 27.2525,9.41359375 19.7364063,17.4676563 L4.7265625,6.1153125 C2.64171875,4.5375 -0.4709375,6.2184375 0.061875,8.635 L4.2178125,27.5 L0.06015625,46.3667187 C-0.47265625,48.7832813 2.64,50.4625 4.72484375,48.8864063 L19.7346875,37.5340625 C27.2507812,45.5864063 40.7567188,55 56.2203125,55 C79.84625,55 99,33 99,27.5 C99,22 79.84625,0 56.2203125,0 Z M71.2473437,31.625 C68.97,31.625 67.1223437,29.7773438 67.1223437,27.5 C67.1223437,25.2209375 68.97,23.375 71.2473437,23.375 C73.5264062,23.375 75.3723437,25.2209375 75.3723437,27.5 C75.3723437,29.7773438 73.5246875,31.625 71.2473437,31.625 Z" id="Shape"></path>
            </g>
        </g>
    </g>
</svg>