<?xml version="1.0" encoding="UTF-8"?>
<svg width="80px" height="80px" viewBox="0 0 80 80" version="1.1" xmlns="http://www.w3.org/2000/svg" xmlns:xlink="http://www.w3.org/1999/xlink">
    <!-- Generator: Sketch 61.2 (89653) - https://sketch.com -->
    <title>notion-icons__phone-solid</title>
    <desc>Created with Sketch.</desc>
    <g id="Page-1" stroke="none" stroke-width="1" fill="none" fill-rule="evenodd">
        <g id="Artboard" transform="translate(-237.000000, -155.000000)" fill="#FFFFFF" fill-rule="nonzero">
            <g id="phone-solid" transform="translate(237.000000, 155.000000)">
                <path d="M77.0994152,3.99220273 L60.8810916,0.249512671 C59.1189084,-0.155945419 57.3099415,0.764132554 56.5925926,2.417154 L49.1072125,19.8830409 C48.4522417,21.411306 48.8888889,23.2046784 50.1832359,24.2495127 L59.6335283,31.9844055 C54.0194932,43.9454191 44.2105263,53.8947368 32,59.6179337 L24.2651072,50.1676413 C23.2046784,48.8732943 21.4269006,48.4366472 19.8986355,49.0916179 L2.43274854,56.5769981 C0.764132554,57.3099415 -0.155945419,59.1189084 0.249512671,60.8810916 L3.99220273,77.0994152 C4.38206628,78.7836257 5.8791423,80 7.64132554,80 C47.5789474,80 80,47.6413255 80,7.64132554 C80,5.89473684 78.7992203,4.38206628 77.0994152,3.99220273 Z" id="Path"></path>
            </g>
        </g>
    </g>
</svg>