<?xml version="1.0" encoding="UTF-8"?>
<svg width="80px" height="65px" viewBox="0 0 80 65" version="1.1" xmlns="http://www.w3.org/2000/svg" xmlns:xlink="http://www.w3.org/1999/xlink">
    <!-- Generator: Sketch 61.2 (89653) - https://sketch.com -->
    <title>notion-icon__list-ul-solid</title>
    <desc>Created with Sketch.</desc>
    <g id="Page-1" stroke="none" stroke-width="1" fill="none" fill-rule="evenodd">
        <g id="Artboard" transform="translate(-373.000000, -289.000000)" fill="#FFFFFF" fill-rule="nonzero">
            <g id="list-ul-solid" transform="translate(373.000000, 289.000000)">
                <path d="M7.5,0 C3.35786438,0 0,3.35786438 0,7.5 C0,11.6421356 3.35786438,15 7.5,15 C11.6421356,15 15,11.6421356 15,7.5 C15,3.35786438 11.6421356,0 7.5,0 L7.5,0 Z M7.5,25 C3.35786438,25 0,28.3578644 0,32.5 C0,36.6421356 3.35786438,40 7.5,40 C11.6421356,40 15,36.6421356 15,32.5 C15,28.3578644 11.6421356,25 7.5,25 Z M7.5,50 C3.35786438,50 0,53.3578644 0,57.5 C0,61.6421356 3.35786438,65 7.5,65 C11.6421356,65 15,61.6421356 15,57.5 C15,53.3578644 11.6421356,50 7.5,50 Z M77.5,52.5 L27.5,52.5 C26.1192881,52.5 25,53.6192881 25,55 L25,60 C25,61.3807119 26.1192881,62.5 27.5,62.5 L77.5,62.5 C78.8807119,62.5 80,61.3807119 80,60 L80,55 C80,53.6192881 78.8807119,52.5 77.5,52.5 Z M77.5,2.5 L27.5,2.5 C26.1192881,2.5 25,3.61928813 25,5 L25,10 C25,11.3807119 26.1192881,12.5 27.5,12.5 L77.5,12.5 C78.8807119,12.5 80,11.3807119 80,10 L80,5 C80,3.61928813 78.8807119,2.5 77.5,2.5 Z M77.5,27.5 L27.5,27.5 C26.1192881,27.5 25,28.6192881 25,30 L25,35 C25,36.3807119 26.1192881,37.5 27.5,37.5 L77.5,37.5 C78.8807119,37.5 80,36.3807119 80,35 L80,30 C80,28.6192881 78.8807119,27.5 77.5,27.5 Z" id="Shape"></path>
            </g>
        </g>
    </g>
</svg>