<?xml version="1.0" encoding="UTF-8"?>
<svg width="80px" height="80px" viewBox="0 0 80 80" version="1.1" xmlns="http://www.w3.org/2000/svg" xmlns:xlink="http://www.w3.org/1999/xlink">
    <!-- Generator: Sketch 61.2 (89653) - https://sketch.com -->
    <title>notion-icons__tools-solid</title>
    <desc>Created with Sketch.</desc>
    <g id="Page-1" stroke="none" stroke-width="1" fill="none" fill-rule="evenodd">
        <g id="Artboard" transform="translate(-127.000000, -155.000000)" fill="#FFFFFF" fill-rule="nonzero">
            <g id="tools-solid" transform="translate(127.000000, 155.000000)">
                <path d="M78.3001949,61.7076023 L60.0389864,43.4463938 C56.4366472,39.8440546 51.0565302,39.1423002 46.7212476,41.2787524 L30.0974659,24.6549708 L30.0974659,14.9707602 L10.1364522,0 L0.155945419,9.98050682 L15.1267057,29.9415205 L24.8109162,29.9415205 L41.4346979,46.5653021 C39.3138402,50.9005848 40,56.2807018 43.6023392,59.8830409 L61.8635478,78.1442495 C64.1403509,80.4210526 67.8206628,80.4210526 70.0818713,78.1442495 L78.3001949,69.9259259 C80.5614035,67.6491228 80.5614035,63.9688109 78.3001949,61.7076023 L78.3001949,61.7076023 Z M51.8830409,35.0877193 C56.2962963,35.0877193 60.4444444,36.8031189 63.5633528,39.9220273 L66.588694,42.9473684 C69.0526316,41.871345 71.3918129,40.374269 73.4191033,38.3469786 C79.2046784,32.5614035 81.1695906,24.4210526 79.3294347,17.0292398 C78.9863548,15.625731 77.2241715,15.1423002 76.1949318,16.17154 L64.5925926,27.7738791 L54.0038986,26.0116959 L52.2417154,15.4230019 L63.8440546,3.82066277 C64.8732943,2.791423 64.374269,1.02923977 62.9551657,0.670565302 C55.5633528,-1.1539961 47.4230019,0.810916179 41.6530214,6.58089669 C37.208577,11.0253411 35.1189084,16.8888889 35.2280702,22.7368421 L48.0311891,35.539961 C49.294347,35.2436647 50.6042885,35.0877193 51.8830409,35.0877193 Z M35.6803119,47.8752437 L26.8382066,39.0331384 L3.07212476,62.8148148 C-0.826510721,66.7134503 -0.826510721,73.0292398 3.07212476,76.9278752 C6.97076023,80.8265107 13.2865497,80.8265107 17.1851852,76.9278752 L36.460039,57.6530214 C35.2748538,54.5497076 34.9161793,51.165692 35.6803119,47.8752437 L35.6803119,47.8752437 Z M10.1364522,73.6062378 C8.07797271,73.6062378 6.39376218,71.9220273 6.39376218,69.8635478 C6.39376218,67.7894737 8.06237817,66.1208577 10.1364522,66.1208577 C12.2105263,66.1208577 13.8791423,67.7894737 13.8791423,69.8635478 C13.8791423,71.9220273 12.2105263,73.6062378 10.1364522,73.6062378 Z" id="Shape"></path>
            </g>
        </g>
    </g>
</svg>