<?xml version="1.0" encoding="UTF-8"?>
<svg width="74px" height="90px" viewBox="0 0 74 90" version="1.1" xmlns="http://www.w3.org/2000/svg" xmlns:xlink="http://www.w3.org/1999/xlink">
    <!-- Generator: Sketch 61.2 (89653) - https://sketch.com -->
    <title>notion-icons__utensils-solid</title>
    <desc>Created with Sketch.</desc>
    <g id="Page-1" stroke="none" stroke-width="1" fill="none" fill-rule="evenodd">
        <g id="Artboard" transform="translate(-24.000000, -150.000000)" fill="#FFFFFF" fill-rule="nonzero">
            <g id="utensils-solid" transform="translate(24.000000, 150.000000)">
                <path d="M36.5449219,2.6721187 C36.6855469,3.49828827 39.375,19.2834005 39.375,25.3126805 C39.375,34.5060142 34.4882812,41.0626366 27.2636719,43.699348 L29.53125,85.5527468 C29.6542969,87.9609432 27.7382813,90 25.3125,90 L14.0625,90 C11.6542969,90 9.72070312,87.9785213 9.84375,85.5527468 L12.1113281,43.699348 C4.86914062,41.0626366 0,34.4884362 0,25.3126805 C0,19.2658224 2.68945313,3.49828827 2.83007813,2.6721187 C3.39257812,-0.89623072 10.7929687,-0.948964948 11.25,2.86547753 L11.25,27.6857208 C11.4785156,28.2833754 13.9042969,28.2482192 14.0625,27.6857208 C14.3085938,23.2384676 15.4511719,3.21703905 15.46875,2.76000908 C16.0488281,-0.89623072 23.3261719,-0.89623072 23.8886719,2.76000908 C23.9238281,3.23461713 25.0488281,23.2384676 25.2949219,27.6857208 C25.453125,28.2482192 27.8964844,28.2833754 28.1074219,27.6857208 L28.1074219,2.86547753 C28.5644531,-0.931386872 35.9824219,-0.89623072 36.5449219,2.6721187 Z M57.4980469,52.8926817 L54.8613281,85.4297003 C54.6503906,87.8906309 56.6015625,90 59.0625,90 L68.90625,90 C71.2441406,90 73.125,88.1191459 73.125,85.7812618 L73.125,4.21898938 C73.125,1.89868336 71.2441406,0.000251153345 68.90625,0.000251153345 C54.4042969,0.000251153345 29.9882813,31.3771167 57.4980469,52.8926817 Z" id="Shape"></path>
            </g>
        </g>
    </g>
</svg>