<?xml version="1.0" encoding="UTF-8"?>
<svg width="80px" height="103px" viewBox="0 0 80 103" version="1.1" xmlns="http://www.w3.org/2000/svg" xmlns:xlink="http://www.w3.org/1999/xlink">
    <!-- Generator: Sketch 61.2 (89653) - https://sketch.com -->
    <title>notion-icons__pagelines-brands</title>
    <desc>Created with Sketch.</desc>
    <g id="Page-1" stroke="none" stroke-width="1" fill="none" fill-rule="evenodd">
        <g id="Artboard" transform="translate(-21.000000, -270.000000)" fill="#FFFFFF" fill-rule="nonzero">
            <g id="pagelines-brands" transform="translate(21.000000, 270.000000)">
                <path d="M79.7922078,62.8987013 C68.3428571,91.3038961 40.9142857,74.1194805 40.9142857,74.1194805 C32.4987013,91.1168831 18.5974026,102.046753 2.55584416,102.109091 C-0.78961039,102.109091 -0.893506494,97.038961 2.55584416,97.038961 C15.9376623,96.9766234 27.5948052,88.1662338 35.2207792,74.161039 C26.6805195,77.4649351 10.5766234,79.9584416 1.64155844,57.0805195 C24.2909091,47.7506494 34.7012987,59.4077922 38.6909091,66.5350649 C40.7480519,61.4649351 42.2233766,55.9584416 43.1792208,49.974026 C43.1792208,49.974026 14.1506494,54.5246753 12.1142857,29.5896104 C36.8623377,19.6363636 43.8233766,45.5272727 43.8233766,45.5272727 C44.1558442,42.0571429 44.5090909,34.5974026 44.5090909,34.4311688 C44.5090909,34.4311688 22.4207792,19.1168831 36.5922078,0.103896104 C62.4831169,9.03896104 49.3506494,33.8493506 49.3506494,33.8493506 C49.4545455,34.1818182 49.4545455,38.7948052 49.3506494,40.7896104 C49.3506494,40.7896104 58.7428571,22.2961039 77.6935065,28.8415584 C76.8207792,56.6857143 48.2077922,50.9506494 48.2077922,50.9506494 C47.2935065,56.6441558 45.8805195,62.0467532 44.0519481,67.0545455 C44.0519481,67.0545455 61.2987013,47.9792208 79.7922078,62.8987013 L79.7922078,62.8987013 Z" id="Path"></path>
            </g>
        </g>
    </g>
</svg>